{
DisplayStrings = (
/fraction
);
classes = (
{
automatic = 1;
code = "A B C D E F G H I J K L M N O P Q R S T U V W X Y Z";
name = Uppercase;
}
);
copyright = "Free for personal and commercial use.";
date = "2016-12-11 20:21:52 +0000";
designer = "James Lewis";
designerURL = www.jamesllewis.com;
familyName = "Expose";
featurePrefixes = (
{
automatic = 1;
code = "languagesystem DFLT dflt;\012languagesystem latn dflt;\012";
name = Languagesystems;
}
);
features = (
{
automatic = 1;
code = "sub r a c i s t by r_a_c_i_s_t;\012sub a f t e r by a_f_t_e_r;\012sub L I V E by L_I_V_E;\012sub S a l e by S_a_l_e;\012sub i n t o by i_n_t_o;\012sub i t quotesingle s by i_t_quotesingle_s;\012sub t h e y by t_h_e_y;\012sub t i m e by t_i_m_e;\012sub G E T by G_E_T;\012sub I N G by I_N_G;\012sub M a i by M_a_i;\012sub N O W by N_O_W;\012sub O F F by O_F_F;\012sub W H I by W_H_I;\012sub a n d by a_n_d;\012sub b u y by b_u_y;\012sub d i d by d_i_d;\012sub f o r by f_o_r;\012sub i n g by i_n_g;\012sub i o n by i_o_n;\012sub o w n by o_w_n;\012sub t e n by t_e_n;\012sub t h e by t_h_e;\012sub w a y by w_a_y;\012sub w h y by w_h_y;\012sub E A by E_A;\012sub H I by H_I;\012sub O L by O_L;\012sub S h by S_h;\012sub T H by T_H;\012sub U M by U_M;\012sub U P by U_P;\012sub W h by W_h;\012sub a m by a_m;\012sub a n by a_n;\012sub a t by a_t;\012sub b e by b_e;\012sub e e by e_e;\012sub e i by e_i;\012sub e r by e_r;\012sub e t by e_t;\012sub g g by g_g;\012sub g o by g_o;\012sub g y by g_y;\012sub i s by i_s;\012sub i t by i_t;\012sub l l by l_l;\012sub l y by l_y;\012sub o e by o_e;\012sub o f by o_f;\012sub o n by o_n;\012sub o o by o_o;\012sub o r by o_r;\012sub s e by s_e;\012sub s h by s_h;\012sub s o by s_o;\012sub s s by s_s;\012sub t t by t_t;\012sub u i by u_i;\012sub u p by u_p;\012";
name = dlig;
},
{
automatic = 1;
code = "pos @Uppercase <5 0 10 0>;\012";
name = cpsp;
}
);
fontMaster = (
{
ascender = 800;
capHeight = 500;
descender = "-200";

glyphs = (
{
glyphname = A;
lastChange = "2017-01-19 14:09:10 +0000";
layers = (
{
layerId = "82E980F0-013F-4801-8ED7-9905E88076B0";
name = Regular;
paths = (
{
closed = 1;
nodes = (
"220 777 OFFCURVE",
"215 774 OFFCURVE",
"212 767 CURVE",
"211 764 OFFCURVE",
"211 763 OFFCURVE",
"209 761 CURVE",
"208 752 OFFCURVE",
"204 743 OFFCURVE",
"198 739 CURVE",
"197 728 OFFCURVE",
"198 719 OFFCURVE",
"195 712 CURVE",
"192 701 OFFCURVE",
"187 691 OFFCURVE",
"184 680 CURVE SMOOTH",
"181 670 OFFCURVE",
"180 658 OFFCURVE",
"177 648 CURVE SMOOTH",
"156 573 LINE",
"153 565 OFFCURVE",
"149 557 OFFCURVE",
"147 548 CURVE",
"142 526 OFFCURVE",
"135 505 OFFCURVE",
"126 484 CURVE",
"125 478 OFFCURVE",
"124 471 OFFCURVE",
"121 466 CURVE",
"118 453 OFFCURVE",
"115 439 OFFCURVE",
"111 426 CURVE",
"108 416 OFFCURVE",
"104 407 OFFCURVE",
"101 397 CURVE",
"97 374 OFFCURVE",
"91 352 OFFCURVE",
"84 331 CURVE SMOOTH",
"72 292 OFFCURVE",
"61 252 OFFCURVE",
"49 213 CURVE",
"41 189 LINE SMOOTH",
"40 185 OFFCURVE",
"37 182 OFFCURVE",
"33 182 CURVE",
"26 181 OFFCURVE",
"20 181 OFFCURVE",
"13 181 CURVE",
"-4 180 OFFCURVE",
"-5 178 OFFCURVE",
"-7 160 CURVE",
"-7 133 OFFCURVE",
"-8 105 OFFCURVE",
"-8 77 CURVE",
"-10 66 OFFCURVE",
"-10 56 OFFCURVE",
"-8 45 CURVE",
"-8 39 OFFCURVE",
"-5 37 OFFCURVE",
"-1 37 CURVE SMOOTH",
"4 37 OFFCURVE",
"9 35 OFFCURVE",
"14 35 CURVE SMOOTH",
"65 35 LINE SMOOTH",
"96 35 OFFCURVE",
"126 34 OFFCURVE",
"157 32 CURVE",
"191 32 OFFCURVE",
"223 32 OFFCURVE",
"257 31 CURVE",
"262 31 LINE",
"269 32 OFFCURVE",
"274 35 OFFCURVE",
"274 42 CURVE",
"275 51 OFFCURVE",
"275 59 OFFCURVE",
"275 67 CURVE SMOOTH",
"275 72 OFFCURVE",
"275 76 OFFCURVE",
"279 79 CURVE SMOOTH",
"283 81 OFFCURVE",
"285 86 OFFCURVE",
"285 91 CURVE",
"283 93 OFFCURVE",
"283 93 OFFCURVE",
"282 93 CURVE",
"275 94 OFFCURVE",
"275 95 OFFCURVE",
"278 101 CURVE",
"278 102 OFFCURVE",
"279 104 OFFCURVE",
"281 105 CURVE",
"276 118 LINE",
"275 124 OFFCURVE",
"276 128 OFFCURVE",
"276 132 CURVE SMOOTH",
"276 142 OFFCURVE",
"276 150 OFFCURVE",
"275 160 CURVE",
"275 170 OFFCURVE",
"272 173 OFFCURVE",
"261 174 CURVE",
"257 174 OFFCURVE",
"253 173 OFFCURVE",
"248 173 CURVE",
"241 171 OFFCURVE",
"234 170 OFFCURVE",
"227 174 CURVE",
"226 182 OFFCURVE",
"229 189 OFFCURVE",
"232 196 CURVE",
"233 203 OFFCURVE",
"237 206 OFFCURVE",
"243 205 CURVE",
"254 203 OFFCURVE",
"265 205 OFFCURVE",
"276 205 CURVE SMOOTH",
"349 205 LINE SMOOTH",
"366 205 OFFCURVE",
"366 203 OFFCURVE",
"369 187 CURVE",
"370 182 OFFCURVE",
"370 178 OFFCURVE",
"372 173 CURVE",
"366 171 OFFCURVE",
"363 170 OFFCURVE",
"359 170 CURVE SMOOTH",
"334 170 LINE SMOOTH",
"327 170 OFFCURVE",
"324 167 OFFCURVE",
"324 160 CURVE SMOOTH",
"324 153 OFFCURVE",
"323 146 OFFCURVE",
"323 138 CURVE SMOOTH",
"323 108 OFFCURVE",
"321 79 OFFCURVE",
"320 49 CURVE",
"318 35 OFFCURVE",
"321 31 OFFCURVE",
"337 31 CURVE",
"358 30 OFFCURVE",
"379 30 OFFCURVE",
"400 30 CURVE SMOOTH",
"467 30 LINE SMOOTH",
"508 28 OFFCURVE",
"547 28 OFFCURVE",
"588 28 CURVE",
"590 27 OFFCURVE",
"593 27 OFFCURVE",
"597 28 CURVE",
"602 28 OFFCURVE",
"604 31 OFFCURVE",
"606 37 CURVE",
"606 41 LINE",
"603 81 OFFCURVE",
"604 122 OFFCURVE",
"600 163 CURVE",
"600 166 OFFCURVE",
"599 167 OFFCURVE",
"599 170 CURVE",
"588 170 LINE SMOOTH",
"579 170 OFFCURVE",
"576 171 OFFCURVE",
"574 181 CURVE",
"571 194 OFFCURVE",
"567 206 OFFCURVE",
"564 219 CURVE SMOOTH",
"529 355 LINE SMOOTH",
"523 374 OFFCURVE",
"520 395 OFFCURVE",
"515 415 CURVE SMOOTH",
"506 442 OFFCURVE",
"502 468 OFFCURVE",
"491 494 CURVE",
"490 496 OFFCURVE",
"490 501 OFFCURVE",
"488 505 CURVE",
"467 589 LINE",
"464 606 OFFCURVE",
"460 621 OFFCURVE",
"456 638 CURVE",
"461 641 OFFCURVE",
"464 646 OFFCURVE",
"466 652 CURVE",
"468 660 OFFCURVE",
"468 660 OFFCURVE",
"457 660 CURVE SMOOTH",
"456 660 OFFCURVE",
"454 663 OFFCURVE",
"453 663 CURVE",
"447 666 OFFCURVE",
"445 673 OFFCURVE",
"443 679 CURVE SMOOTH",
"438 698 OFFCURVE",
"433 719 OFFCURVE",
"428 738 CURVE",
"425 749 OFFCURVE",
"424 760 OFFCURVE",
"415 770 CURVE",
"405 771 OFFCURVE",
"396 771 OFFCURVE",
"386 771 CURVE SMOOTH",
"324 771 LINE",
"313 773 OFFCURVE",
"302 773 OFFCURVE",
"290 774 CURVE",
"272 774 OFFCURVE",
"254 775 OFFCURVE",
"234 775 CURVE SMOOTH",
"233 775 OFFCURVE",
"230 775 OFFCURVE",
"227 777 CURVE"
);
},
{
closed = 1;
nodes = (
"178 759 OFFCURVE",
"175 759 OFFCURVE",
"175 756 CURVE",
"180 753 LINE",
"181 753 OFFCURVE",
"183 754 OFFCURVE",
"184 754 CURVE",
"183 756 OFFCURVE",
"181 757 OFFCURVE",
"180 757 CURVE"
);
},
{
closed = 1;
nodes = (
"183 742 OFFCURVE",
"183 742 OFFCURVE",
"184 733 CURVE",
"185 733 LINE",
"190 746 LINE SMOOTH",
"191 750 OFFCURVE",
"188 752 OFFCURVE",
"185 754 CURVE"
);
},
{
closed = 1;
nodes = (
"590 752 OFFCURVE",
"589 752 OFFCURVE",
"589 750 CURVE",
"588 750 OFFCURVE",
"589 749 OFFCURVE",
"589 749 CURVE",
"590 749 LINE",
"592 750 OFFCURVE",
"592 752 OFFCURVE",
"592 753 CURVE"
);
},
{
closed = 1;
nodes = (
"63 686 LINE",
"62 681 OFFCURVE",
"61 677 OFFCURVE",
"62 672 CURVE",
"70 695 OFFCURVE",
"77 719 OFFCURVE",
"84 742 CURVE"
);
},
{
closed = 1;
nodes = (
"173 732 LINE",
"173 726 LINE",
"173 726 OFFCURVE",
"174 725 OFFCURVE",
"175 725 CURVE",
"175 726 OFFCURVE",
"177 726 OFFCURVE",
"175 728 CURVE",
"175 729 OFFCURVE",
"175 730 OFFCURVE",
"174 732 CURVE"
);
},
{
closed = 1;
nodes = (
"581 715 LINE",
"578 714 OFFCURVE",
"576 709 OFFCURVE",
"579 707 CURVE SMOOTH",
"581 705 OFFCURVE",
"583 704 OFFCURVE",
"585 707 CURVE",
"592 709 LINE",
"586 702 OFFCURVE",
"585 694 OFFCURVE",
"586 684 CURVE",
"590 686 OFFCURVE",
"592 688 OFFCURVE",
"592 693 CURVE",
"593 698 OFFCURVE",
"592 704 OFFCURVE",
"593 711 CURVE",
"593 712 LINE SMOOTH",
"593 715 OFFCURVE",
"592 716 OFFCURVE",
"592 719 CURVE"
);
},
{
closed = 1;
nodes = (
"459 707 LINE",
"454 704 OFFCURVE",
"454 704 OFFCURVE",
"459 695 CURVE",
"464 700 OFFCURVE",
"467 702 OFFCURVE",
"470 708 CURVE",
"470 708 OFFCURVE",
"470 709 OFFCURVE",
"468 709 CURVE",
"468 711 OFFCURVE",
"467 711 OFFCURVE",
"467 711 CURVE"
);
},
{
closed = 1;
nodes = (
"464 676 OFFCURVE",
"463 677 OFFCURVE",
"463 676 CURVE",
"459 672 LINE",
"461 672 OFFCURVE",
"463 673 OFFCURVE",
"464 673 CURVE",
"466 674 OFFCURVE",
"466 676 OFFCURVE",
"466 677 CURVE"
);
},
{
closed = 1;
nodes = (
"61 665 LINE",
"63 672 LINE",
"62 672 LINE"
);
},
{
closed = 1;
nodes = (
"61 665 LINE",
"56 655 OFFCURVE",
"52 645 OFFCURVE",
"49 635 CURVE",
"48 632 OFFCURVE",
"49 630 OFFCURVE",
"49 625 CURVE"
);
},
{
closed = 1;
nodes = (
"104 628 LINE SMOOTH",
"101 625 OFFCURVE",
"101 621 OFFCURVE",
"103 617 CURVE",
"105 617 LINE",
"108 621 OFFCURVE",
"108 625 OFFCURVE",
"107 628 CURVE",
"107 628 OFFCURVE",
"105 628 OFFCURVE",
"105 630 CURVE"
);
},
{
closed = 1;
nodes = (
"48 623 OFFCURVE",
"47 618 OFFCURVE",
"45 614 CURVE SMOOTH",
"44 610 OFFCURVE",
"44 606 OFFCURVE",
"42 603 CURVE",
"47 610 OFFCURVE",
"49 617 OFFCURVE",
"51 627 CURVE"
);
},
{
closed = 1;
nodes = (
"581 545 LINE SMOOTH",
"579 540 OFFCURVE",
"581 537 OFFCURVE",
"588 529 CURVE",
"588 548 LINE SMOOTH",
"588 554 OFFCURVE",
"586 559 OFFCURVE",
"585 565 CURVE"
);
},
{
closed = 1;
nodes = (
"103 550 LINE",
"104 548 OFFCURVE",
"104 545 OFFCURVE",
"105 545 CURVE",
"111 543 OFFCURVE",
"117 545 OFFCURVE",
"122 548 CURVE",
"117 551 OFFCURVE",
"111 554 OFFCURVE",
"105 552 CURVE"
);
},
{
closed = 1;
nodes = (
"31 550 LINE",
"31 547 LINE",
"33 548 LINE",
"33 550 OFFCURVE",
"33 551 OFFCURVE",
"34 552 CURVE"
);
},
{
closed = 1;
nodes = (
"126 552 LINE",
"125 551 OFFCURVE",
"124 550 OFFCURVE",
"122 550 CURVE",
"124 548 OFFCURVE",
"125 548 OFFCURVE",
"128 548 CURVE",
"129 550 OFFCURVE",
"131 551 OFFCURVE",
"129 552 CURVE"
);
},
{
closed = 1;
nodes = (
"26 524 OFFCURVE",
"24 522 OFFCURVE",
"26 519 CURVE",
"28 520 OFFCURVE",
"28 523 OFFCURVE",
"28 526 CURVE"
);
},
{
closed = 1;
nodes = (
"585 510 OFFCURVE",
"585 509 OFFCURVE",
"585 508 CURVE SMOOTH",
"585 505 OFFCURVE",
"583 502 OFFCURVE",
"586 501 CURVE",
"588 503 OFFCURVE",
"588 505 OFFCURVE",
"588 508 CURVE",
"588 508 OFFCURVE",
"588 509 OFFCURVE",
"586 509 CURVE"
);
},
{
closed = 1;
nodes = (
"17 492 OFFCURVE",
"16 481 OFFCURVE",
"14 470 CURVE",
"6 422 OFFCURVE",
"4 397 OFFCURVE",
"6 383 CURVE",
"11 402 OFFCURVE",
"21 471 OFFCURVE",
"24 505 CURVE"
);
},
{
closed = 1;
nodes = (
"309 495 OFFCURVE",
"310 495 OFFCURVE",
"310 494 CURVE",
"318 438 OFFCURVE",
"333 383 OFFCURVE",
"341 327 CURVE",
"317 323 OFFCURVE",
"293 325 OFFCURVE",
"271 325 CURVE SMOOTH",
"268 325 OFFCURVE",
"267 327 OFFCURVE",
"264 328 CURVE",
"267 344 OFFCURVE",
"269 358 OFFCURVE",
"274 372 CURVE",
"279 395 OFFCURVE",
"285 419 OFFCURVE",
"292 443 CURVE",
"293 446 OFFCURVE",
"293 450 OFFCURVE",
"295 454 CURVE",
"300 466 OFFCURVE",
"303 478 OFFCURVE",
"304 492 CURVE",
"304 494 OFFCURVE",
"306 495 OFFCURVE",
"307 496 CURVE"
);
},
{
closed = 1;
nodes = (
"3 367 OFFCURVE",
"3 366 CURVE",
"4 365 LINE",
"4 366 OFFCURVE",
"4 367 OFFCURVE",
"6 367 CURVE",
"6 369 OFFCURVE",
"4 369 OFFCURVE",
"4 369 CURVE"
);
},
{
closed = 1;
nodes = (
"0 341 LINE",
"2 344 OFFCURVE",
"3 346 OFFCURVE",
"0 349 CURVE"
);
},
{
closed = 1;
nodes = (
"0 334 OFFCURVE",
"-4 328 OFFCURVE",
"-1 321 CURVE",
"-1 324 OFFCURVE",
"0 327 OFFCURVE",
"2 330 CURVE",
"2 334 OFFCURVE",
"3 337 OFFCURVE",
"0 341 CURVE"
);
},
{
closed = 1;
nodes = (
"-1 321 LINE",
"-3 320 OFFCURVE",
"-3 317 OFFCURVE",
"-4 314 CURVE",
"-3 313 LINE",
"-1 313 OFFCURVE",
"-1 313 OFFCURVE",
"-1 314 CURVE SMOOTH"
);
},
{
closed = 1;
nodes = (
"-8 286 OFFCURVE",
"-10 283 OFFCURVE",
"-10 281 CURVE",
"-8 283 OFFCURVE",
"-5 286 OFFCURVE",
"-8 292 CURVE"
);
},
{
closed = 1;
nodes = (
"-10 275 OFFCURVE",
"-11 269 OFFCURVE",
"-11 265 CURVE",
"-8 269 OFFCURVE",
"-5 275 OFFCURVE",
"-10 281 CURVE"
);
},
{
closed = 1;
nodes = (
"-17 244 OFFCURVE",
"-17 222 OFFCURVE",
"-19 201 CURVE",
"-19 198 OFFCURVE",
"-18 196 OFFCURVE",
"-17 191 CURVE",
"-11 215 OFFCURVE",
"-11 237 OFFCURVE",
"-8 259 CURVE",
"-8 261 OFFCURVE",
"-10 262 OFFCURVE",
"-11 265 CURVE"
);
},
{
closed = 1;
nodes = (
"-19 102 LINE",
"-24 97 OFFCURVE",
"-22 94 OFFCURVE",
"-22 93 CURVE"
);
},
{
closed = 1;
nodes = (
"-24 79 OFFCURVE",
"-24 66 OFFCURVE",
"-25 52 CURVE",
"-25 49 OFFCURVE",
"-25 45 OFFCURVE",
"-22 44 CURVE",
"-18 56 OFFCURVE",
"-19 70 OFFCURVE",
"-19 83 CURVE SMOOTH",
"-19 87 OFFCURVE",
"-22 90 OFFCURVE",
"-22 93 CURVE"
);
},
{
closed = 1;
nodes = (
"-26 34 OFFCURVE",
"-25 25 OFFCURVE",
"-22 11 CURVE",
"-21 24 OFFCURVE",
"-19 32 OFFCURVE",
"-21 39 CURVE",
"-21 41 OFFCURVE",
"-22 42 OFFCURVE",
"-22 44 CURVE"
);
}
);
width = 626;
},
{
associatedMasterId = "82E980F0-013F-4801-8ED7-9905E88076B0";
layerId = "626D775A-2479-4BA5-A458-1D069E2A2E2E";
width = 600;
}
);
unicode = 0041;
},
{
glyphname = B;
lastChange = "2017-01-19 14:09:07 +0000";
layers = (
{
layerId = "82E980F0-013F-4801-8ED7-9905E88076B0";
name = Regular;
paths = (
{
closed = 1;
nodes = (
"90 735 LINE SMOOTH",
"70 734 OFFCURVE",
"49 731 OFFCURVE",
"30 728 CURVE SMOOTH",
"19 727 OFFCURVE",
"16 724 OFFCURVE",
"16 713 CURVE SMOOTH",
"16 691 OFFCURVE",
"19 669 OFFCURVE",
"20 647 CURVE SMOOTH",
"22 616 OFFCURVE",
"23 614 OFFCURVE",
"54 616 CURVE",
"56 616 LINE",
"66 615 OFFCURVE",
"69 612 OFFCURVE",
"70 603 CURVE",
"70 598 OFFCURVE",
"72 593 OFFCURVE",
"72 587 CURVE",
"80 467 LINE",
"92 303 LINE",
"102 163 LINE SMOOTH",
"105 126 OFFCURVE",
"103 128 OFFCURVE",
"72 124 CURVE SMOOTH",
"62 123 OFFCURVE",
"59 120 OFFCURVE",
"59 110 CURVE",
"62 47 LINE",
"62 38 OFFCURVE",
"63 30 OFFCURVE",
"65 23 CURVE SMOOTH",
"66 15 OFFCURVE",
"70 11 OFFCURVE",
"80 11 CURVE SMOOTH",
"95 11 LINE",
"283 26 LINE",
"352 55 OFFCURVE",
"427 69 OFFCURVE",
"500 66 CURVE",
"517 76 OFFCURVE",
"529 90 OFFCURVE",
"539 106 CURVE",
"540 133 OFFCURVE",
"543 157 OFFCURVE",
"544 184 CURVE SMOOTH",
"546 233 OFFCURVE",
"546 285 OFFCURVE",
"543 334 CURVE",
"538 345 OFFCURVE",
"529 355 OFFCURVE",
"520 365 CURVE",
"502 381 OFFCURVE",
"481 395 OFFCURVE",
"456 401 CURVE",
"453 401 OFFCURVE",
"450 401 OFFCURVE",
"449 402 CURVE SMOOTH",
"441 410 LINE",
"441 410 OFFCURVE",
"445 415 OFFCURVE",
"446 417 CURVE",
"463 426 LINE",
"493 444 OFFCURVE",
"514 470 OFFCURVE",
"524 504 CURVE",
"535 553 OFFCURVE",
"532 600 OFFCURVE",
"517 647 CURVE SMOOTH",
"500 701 OFFCURVE",
"463 733 OFFCURVE",
"409 745 CURVE SMOOTH",
"383 752 OFFCURVE",
"356 753 OFFCURVE",
"330 752 CURVE SMOOTH"
);
},
{
closed = 1;
nodes = (
"312 629 OFFCURVE",
"315 628 OFFCURVE",
"316 626 CURVE",
"329 619 OFFCURVE",
"337 610 OFFCURVE",
"340 598 CURVE",
"350 565 OFFCURVE",
"354 533 OFFCURVE",
"350 500 CURVE SMOOTH",
"347 470 OFFCURVE",
"329 453 OFFCURVE",
"300 448 CURVE",
"272 445 LINE",
"265 445 OFFCURVE",
"261 449 OFFCURVE",
"261 456 CURVE",
"258 482 OFFCURVE",
"257 509 OFFCURVE",
"254 535 CURVE",
"249 618 LINE",
"249 623 OFFCURVE",
"251 629 OFFCURVE",
"257 630 CURVE SMOOTH",
"275 634 OFFCURVE",
"293 634 OFFCURVE",
"309 630 CURVE"
);
},
{
closed = 1;
nodes = (
"300 343 OFFCURVE",
"325 345 OFFCURVE",
"348 330 CURVE",
"363 322 OFFCURVE",
"370 305 OFFCURVE",
"374 289 CURVE",
"380 261 OFFCURVE",
"383 233 OFFCURVE",
"381 204 CURVE SMOOTH",
"380 168 OFFCURVE",
"352 145 OFFCURVE",
"320 142 CURVE SMOOTH",
"294 141 LINE",
"286 141 OFFCURVE",
"283 145 OFFCURVE",
"282 152 CURVE",
"280 166 OFFCURVE",
"280 178 OFFCURVE",
"279 191 CURVE",
"271 305 LINE",
"269 314 OFFCURVE",
"269 321 OFFCURVE",
"271 329 CURVE",
"271 332 OFFCURVE",
"273 336 OFFCURVE",
"275 336 CURVE"
);
}
);
width = 565;
},
{
associatedMasterId = "82E980F0-013F-4801-8ED7-9905E88076B0";
layerId = "626D775A-2479-4BA5-A458-1D069E2A2E2E";
width = 600;
}
);
unicode = 0042;
},
{
glyphname = C;
lastChange = "2017-01-19 15:28:53 +0000";
layers = (
{
layerId = "82E980F0-013F-4801-8ED7-9905E88076B0";
name = Regular;
paths = (
{
closed = 1;
nodes = (
"264 704 OFFCURVE",
"236 702 OFFCURVE",
"208 698 CURVE",
"160 686 OFFCURVE",
"122 661 OFFCURVE",
"95 619 CURVE SMOOTH",
"80 597 OFFCURVE",
"64 571 OFFCURVE",
"56 547 CURVE",
"48 517 OFFCURVE",
"42 488 OFFCURVE",
"38 457 CURVE",
"34 430 OFFCURVE",
"29 400 OFFCURVE",
"26 372 CURVE",
"26 366 LINE SMOOTH",
"26 344 OFFCURVE",
"27 323 OFFCURVE",
"27 300 CURVE SMOOTH",
"27 287 OFFCURVE",
"26 275 OFFCURVE",
"27 262 CURVE",
"27 247 OFFCURVE",
"35 233 OFFCURVE",
"35 217 CURVE",
"37 175 OFFCURVE",
"51 138 OFFCURVE",
"72 103 CURVE",
"74 102 OFFCURVE",
"75 98 OFFCURVE",
"79 97 CURVE",
"112 66 LINE",
"114 65 OFFCURVE",
"117 63 OFFCURVE",
"120 62 CURVE",
"149 49 OFFCURVE",
"176 39 OFFCURVE",
"207 36 CURVE",
"229 33 OFFCURVE",
"253 31 OFFCURVE",
"276 31 CURVE",
"300 29 OFFCURVE",
"325 33 OFFCURVE",
"348 41 CURVE SMOOTH",
"362 45 OFFCURVE",
"375 52 OFFCURVE",
"385 63 CURVE",
"407 84 OFFCURVE",
"415 111 OFFCURVE",
"423 140 CURVE SMOOTH",
"428 158 OFFCURVE",
"429 175 OFFCURVE",
"431 193 CURVE",
"433 201 OFFCURVE",
"433 209 OFFCURVE",
"433 217 CURVE",
"429 219 OFFCURVE",
"428 220 OFFCURVE",
"425 220 CURVE SMOOTH",
"399 220 OFFCURVE",
"377 225 OFFCURVE",
"349 223 CURVE",
"348 220 OFFCURVE",
"348 217 OFFCURVE",
"348 214 CURVE",
"346 203 OFFCURVE",
"346 191 OFFCURVE",
"345 180 CURVE SMOOTH",
"341 161 OFFCURVE",
"338 143 OFFCURVE",
"332 126 CURVE",
"320 100 OFFCURVE",
"298 84 OFFCURVE",
"271 84 CURVE SMOOTH",
"266 84 OFFCURVE",
"260 84 OFFCURVE",
"253 86 CURVE",
"231 89 OFFCURVE",
"215 100 OFFCURVE",
"207 121 CURVE",
"202 132 OFFCURVE",
"197 143 OFFCURVE",
"195 156 CURVE",
"191 185 OFFCURVE",
"191 215 OFFCURVE",
"191 244 CURVE SMOOTH",
"191 271 OFFCURVE",
"187 297 OFFCURVE",
"189 323 CURVE SMOOTH",
"191 345 OFFCURVE",
"189 366 OFFCURVE",
"191 388 CURVE SMOOTH",
"192 412 OFFCURVE",
"199 438 OFFCURVE",
"200 464 CURVE SMOOTH",
"202 491 OFFCURVE",
"205 517 OFFCURVE",
"210 544 CURVE",
"212 557 OFFCURVE",
"215 569 OFFCURVE",
"220 582 CURVE",
"224 597 OFFCURVE",
"236 610 OFFCURVE",
"244 622 CURVE",
"252 632 OFFCURVE",
"260 638 OFFCURVE",
"271 642 CURVE",
"285 645 OFFCURVE",
"300 646 OFFCURVE",
"314 642 CURVE",
"328 638 OFFCURVE",
"341 630 OFFCURVE",
"348 616 CURVE SMOOTH",
"353 605 OFFCURVE",
"353 595 OFFCURVE",
"354 584 CURVE",
"356 566 OFFCURVE",
"362 549 OFFCURVE",
"362 529 CURVE SMOOTH",
"362 489 LINE",
"364 481 OFFCURVE",
"365 478 OFFCURVE",
"373 478 CURVE",
"389 477 OFFCURVE",
"405 477 OFFCURVE",
"423 475 CURVE SMOOTH",
"444 473 OFFCURVE",
"444 469 OFFCURVE",
"445 496 CURVE",
"445 512 LINE SMOOTH",
"445 521 OFFCURVE",
"441 529 OFFCURVE",
"441 539 CURVE SMOOTH",
"441 555 OFFCURVE",
"444 573 OFFCURVE",
"444 589 CURVE",
"445 594 OFFCURVE",
"442 598 OFFCURVE",
"444 603 CURVE",
"447 621 OFFCURVE",
"450 638 OFFCURVE",
"452 656 CURVE",
"447 659 OFFCURVE",
"444 662 OFFCURVE",
"441 666 CURVE",
"423 675 OFFCURVE",
"405 683 OFFCURVE",
"385 690 CURVE SMOOTH",
"356 698 OFFCURVE",
"324 701 OFFCURVE",
"293 702 CURVE SMOOTH"
);
},
{
closed = 1;
nodes = (
"236 427 OFFCURVE",
"234 425 OFFCURVE",
"234 425 CURVE",
"231 420 OFFCURVE",
"228 417 OFFCURVE",
"224 411 CURVE SMOOTH",
"218 398 OFFCURVE",
"215 385 OFFCURVE",
"212 371 CURVE",
"208 350 OFFCURVE",
"208 329 OFFCURVE",
"210 308 CURVE",
"210 300 OFFCURVE",
"212 291 OFFCURVE",
"212 281 CURVE SMOOTH",
"212 278 OFFCURVE",
"213 273 OFFCURVE",
"216 270 CURVE",
"216 271 OFFCURVE",
"218 271 OFFCURVE",
"218 273 CURVE",
"220 276 OFFCURVE",
"221 281 OFFCURVE",
"221 284 CURVE",
"228 326 OFFCURVE",
"234 368 OFFCURVE",
"239 409 CURVE",
"239 424 LINE SMOOTH",
"239 425 OFFCURVE",
"237 425 OFFCURVE",
"237 425 CURVE"
);
}
);
width = 472;
},
{
associatedMasterId = "82E980F0-013F-4801-8ED7-9905E88076B0";
layerId = "626D775A-2479-4BA5-A458-1D069E2A2E2E";
width = 600;
}
);
unicode = 0043;
},
{
glyphname = D;
lastChange = "2017-01-19 14:09:18 +0000";
layers = (
{
layerId = "82E980F0-013F-4801-8ED7-9905E88076B0";
name = Regular;
paths = (
{
closed = 1;
nodes = (
"23 768 OFFCURVE",
"20 765 OFFCURVE",
"19 747 CURVE",
"19 744 OFFCURVE",
"20 741 OFFCURVE",
"19 738 CURVE",
"18 710 OFFCURVE",
"20 705 OFFCURVE",
"48 703 CURVE",
"81 699 OFFCURVE",
"102 693 OFFCURVE",
"103 641 CURVE SMOOTH",
"104 595 OFFCURVE",
"104 548 OFFCURVE",
"104 502 CURVE SMOOTH",
"106 434 OFFCURVE",
"104 366 OFFCURVE",
"104 299 CURVE SMOOTH",
"104 259 OFFCURVE",
"106 220 OFFCURVE",
"106 181 CURVE SMOOTH",
"106 169 OFFCURVE",
"103 157 OFFCURVE",
"102 147 CURVE SMOOTH",
"99 127 OFFCURVE",
"87 115 OFFCURVE",
"68 113 CURVE SMOOTH",
"58 111 OFFCURVE",
"49 110 OFFCURVE",
"39 107 CURVE",
"26 104 OFFCURVE",
"23 101 OFFCURVE",
"23 88 CURVE SMOOTH",
"23 50 OFFCURVE",
"22 47 OFFCURVE",
"61 47 CURVE SMOOTH",
"129 49 OFFCURVE",
"196 50 OFFCURVE",
"262 50 CURVE",
"301 49 OFFCURVE",
"339 53 OFFCURVE",
"377 58 CURVE SMOOTH",
"419 63 OFFCURVE",
"458 78 OFFCURVE",
"492 101 CURVE SMOOTH",
"543 137 OFFCURVE",
"581 185 OFFCURVE",
"604 243 CURVE SMOOTH",
"624 293 OFFCURVE",
"634 347 OFFCURVE",
"634 401 CURVE SMOOTH",
"636 500 OFFCURVE",
"614 593 OFFCURVE",
"543 668 CURVE SMOOTH",
"537 674 OFFCURVE",
"540 680 OFFCURVE",
"542 689 CURVE",
"508 693 OFFCURVE",
"478 696 OFFCURVE",
"447 702 CURVE SMOOTH",
"352 718 OFFCURVE",
"255 735 OFFCURVE",
"158 751 CURVE SMOOTH",
"120 757 OFFCURVE",
"81 761 OFFCURVE",
"42 765 CURVE"
);
},
{
closed = 1;
nodes = (
"348 722 OFFCURVE",
"433 681 OFFCURVE",
"474 597 CURVE SMOOTH",
"495 551 OFFCURVE",
"505 503 OFFCURVE",
"508 453 CURVE SMOOTH",
"514 388 OFFCURVE",
"511 322 OFFCURVE",
"491 260 CURVE",
"485 240 OFFCURVE",
"475 221 OFFCURVE",
"466 202 CURVE",
"453 178 OFFCURVE",
"434 159 OFFCURVE",
"411 143 CURVE SMOOTH",
"368 111 OFFCURVE",
"319 105 OFFCURVE",
"267 111 CURVE",
"239 115 OFFCURVE",
"226 128 OFFCURVE",
"223 157 CURVE SMOOTH",
"220 186 OFFCURVE",
"220 215 OFFCURVE",
"220 246 CURVE SMOOTH",
"220 354 LINE SMOOTH",
"220 435 OFFCURVE",
"219 515 OFFCURVE",
"217 596 CURVE",
"217 628 LINE SMOOTH",
"217 641 OFFCURVE",
"219 655 OFFCURVE",
"222 670 CURVE SMOOTH",
"225 687 OFFCURVE",
"236 699 OFFCURVE",
"254 702 CURVE"
);
}
);
width = 654;
},
{
associatedMasterId = "82E980F0-013F-4801-8ED7-9905E88076B0";
layerId = "626D775A-2479-4BA5-A458-1D069E2A2E2E";
width = 600;
}
);
unicode = 0044;
},
{
glyphname = E;
lastChange = "2017-01-19 14:09:21 +0000";
layers = (
{
layerId = "82E980F0-013F-4801-8ED7-9905E88076B0";
name = Regular;
paths = (
{
closed = 1;
nodes = (
"173 730 OFFCURVE",
"107 727 OFFCURVE",
"42 720 CURVE",
"37 719 OFFCURVE",
"31 720 OFFCURVE",
"26 716 CURVE",
"27 716 OFFCURVE",
"27 714 OFFCURVE",
"28 714 CURVE SMOOTH",
"51 714 LINE",
"157 721 LINE SMOOTH",
"180 723 OFFCURVE",
"201 723 OFFCURVE",
"223 724 CURVE",
"242 724 OFFCURVE",
"258 723 OFFCURVE",
"277 724 CURVE SMOOTH",
"292 726 OFFCURVE",
"306 723 OFFCURVE",
"322 723 CURVE",
"407 719 LINE",
"417 720 LINE",
"417 720 OFFCURVE",
"418 721 OFFCURVE",
"418 723 CURVE",
"417 724 LINE",
"414 724 OFFCURVE",
"411 726 OFFCURVE",
"409 726 CURVE SMOOTH",
"360 727 LINE",
"348 728 OFFCURVE",
"338 728 OFFCURVE",
"329 728 CURVE SMOOTH",
"280 730 LINE SMOOTH",
"265 730 OFFCURVE",
"251 731 OFFCURVE",
"237 731 CURVE SMOOTH"
);
},
{
closed = 1;
nodes = (
"52 700 LINE",
"34 699 LINE",
"31 698 OFFCURVE",
"30 696 OFFCURVE",
"28 692 CURVE",
"28 688 LINE",
"27 657 OFFCURVE",
"26 626 OFFCURVE",
"26 596 CURVE SMOOTH",
"27 549 OFFCURVE",
"26 502 OFFCURVE",
"24 456 CURVE SMOOTH",
"24 452 OFFCURVE",
"24 448 OFFCURVE",
"23 445 CURVE",
"19 435 OFFCURVE",
"20 425 OFFCURVE",
"21 415 CURVE",
"21 413 LINE",
"23 382 OFFCURVE",
"24 352 OFFCURVE",
"23 323 CURVE",
"23 298 OFFCURVE",
"21 274 OFFCURVE",
"21 249 CURVE",
"20 225 OFFCURVE",
"19 202 OFFCURVE",
"20 178 CURVE",
"20 153 OFFCURVE",
"20 126 OFFCURVE",
"19 101 CURVE SMOOTH",
"17 80 OFFCURVE",
"16 61 OFFCURVE",
"19 41 CURVE",
"19 28 LINE SMOOTH",
"19 21 OFFCURVE",
"21 18 OFFCURVE",
"27 18 CURVE",
"52 17 LINE",
"120 17 LINE",
"249 14 LINE SMOOTH",
"285 14 OFFCURVE",
"322 13 OFFCURVE",
"358 11 CURVE",
"379 11 LINE SMOOTH",
"392 11 OFFCURVE",
"393 14 OFFCURVE",
"396 25 CURVE",
"396 35 LINE SMOOTH",
"396 41 OFFCURVE",
"395 48 OFFCURVE",
"395 53 CURVE SMOOTH",
"395 76 OFFCURVE",
"395 97 OFFCURVE",
"396 119 CURVE",
"396 160 LINE SMOOTH",
"396 169 OFFCURVE",
"393 171 OFFCURVE",
"385 171 CURVE SMOOTH",
"343 171 LINE",
"198 176 LINE",
"184 177 LINE",
"180 184 OFFCURVE",
"180 190 OFFCURVE",
"180 194 CURVE SMOOTH",
"180 202 OFFCURVE",
"180 211 OFFCURVE",
"181 219 CURVE",
"183 270 LINE SMOOTH",
"183 275 OFFCURVE",
"184 278 OFFCURVE",
"191 278 CURVE SMOOTH",
"211 278 OFFCURVE",
"230 277 OFFCURVE",
"250 277 CURVE SMOOTH",
"362 277 LINE SMOOTH",
"386 277 OFFCURVE",
"386 272 OFFCURVE",
"388 300 CURVE",
"388 333 OFFCURVE",
"385 364 OFFCURVE",
"390 396 CURVE",
"390 400 LINE",
"388 425 LINE",
"388 430 OFFCURVE",
"385 432 OFFCURVE",
"381 432 CURVE",
"369 434 OFFCURVE",
"357 434 OFFCURVE",
"345 434 CURVE SMOOTH",
"201 437 LINE SMOOTH",
"183 437 OFFCURVE",
"184 437 OFFCURVE",
"184 455 CURVE",
"183 479 OFFCURVE",
"184 501 OFFCURVE",
"184 525 CURVE",
"186 531 LINE",
"187 533 OFFCURVE",
"188 535 OFFCURVE",
"191 535 CURVE SMOOTH",
"200 535 LINE SMOOTH",
"223 535 OFFCURVE",
"247 535 OFFCURVE",
"271 533 CURVE",
"381 532 LINE SMOOTH",
"399 532 OFFCURVE",
"400 533 OFFCURVE",
"402 552 CURVE",
"402 592 LINE",
"403 667 LINE SMOOTH",
"403 674 OFFCURVE",
"402 681 OFFCURVE",
"402 688 CURVE SMOOTH",
"402 691 OFFCURVE",
"399 692 OFFCURVE",
"397 693 CURVE",
"395 695 OFFCURVE",
"393 695 OFFCURVE",
"390 695 CURVE SMOOTH",
"327 695 LINE",
"294 696 OFFCURVE",
"260 696 OFFCURVE",
"226 696 CURVE SMOOTH",
"146 698 LINE",
"125 699 OFFCURVE",
"104 699 OFFCURVE",
"84 699 CURVE"
);
},
{
closed = 1;
nodes = (
"209 264 OFFCURVE",
"208 261 OFFCURVE",
"209 261 CURVE",
"212 260 LINE",
"212 261 OFFCURVE",
"214 261 OFFCURVE",
"214 263 CURVE",
"214 263 OFFCURVE",
"212 264 OFFCURVE",
"211 264 CURVE SMOOTH"
);
}
);
width = 438;
},
{
associatedMasterId = "82E980F0-013F-4801-8ED7-9905E88076B0";
layerId = "626D775A-2479-4BA5-A458-1D069E2A2E2E";
width = 600;
}
);
unicode = 0045;
},
{
glyphname = F;
lastChange = "2017-01-19 14:06:03 +0000";
layers = (
{
layerId = "82E980F0-013F-4801-8ED7-9905E88076B0";
name = Regular;
paths = (
{
closed = 1;
nodes = (
"219 762 OFFCURVE",
"181 761 OFFCURVE",
"145 748 CURVE SMOOTH",
"107 735 OFFCURVE",
"80 710 OFFCURVE",
"67 672 CURVE SMOOTH",
"59 651 OFFCURVE",
"56 628 OFFCURVE",
"55 604 CURVE",
"55 596 OFFCURVE",
"56 588 OFFCURVE",
"52 581 CURVE",
"48 573 OFFCURVE",
"37 579 OFFCURVE",
"29 576 CURVE",
"27 576 OFFCURVE",
"26 573 OFFCURVE",
"23 572 CURVE",
"22 545 OFFCURVE",
"22 518 OFFCURVE",
"21 489 CURVE",
"21 488 OFFCURVE",
"21 485 OFFCURVE",
"22 484 CURVE",
"23 481 OFFCURVE",
"26 478 OFFCURVE",
"29 477 CURVE",
"36 473 OFFCURVE",
"46 477 OFFCURVE",
"49 469 CURVE",
"52 462 OFFCURVE",
"50 454 OFFCURVE",
"52 446 CURVE",
"52 427 LINE SMOOTH",
"49 157 OFFCURVE",
"48 51 OFFCURVE",
"46 -14 CURVE SMOOTH",
"46 -22 OFFCURVE",
"49 -32 OFFCURVE",
"42 -37 CURVE",
"38 -40 OFFCURVE",
"29 -39 OFFCURVE",
"23 -41 CURVE",
"21 -41 OFFCURVE",
"17 -44 OFFCURVE",
"15 -47 CURVE",
"15 -60 LINE",
"17 -63 OFFCURVE",
"21 -66 OFFCURVE",
"23 -65 CURVE",
"36 -58 LINE",
"117 -9 LINE",
"137 2 LINE",
"158 14 LINE",
"154 7 OFFCURVE",
"148 2 OFFCURVE",
"141 -3 CURVE",
"72 -54 LINE",
"97 -46 LINE",
"178 1 OFFCURVE",
"272 49 OFFCURVE",
"331 123 CURVE",
"299 101 OFFCURVE",
"266 81 OFFCURVE",
"235 60 CURVE SMOOTH",
"227 55 OFFCURVE",
"219 51 OFFCURVE",
"212 47 CURVE",
"208 45 OFFCURVE",
"204 48 OFFCURVE",
"204 52 CURVE SMOOTH",
"204 58 OFFCURVE",
"202 64 OFFCURVE",
"202 70 CURVE SMOOTH",
"204 423 LINE SMOOTH",
"204 435 OFFCURVE",
"205 447 OFFCURVE",
"205 459 CURVE",
"207 467 OFFCURVE",
"209 469 OFFCURVE",
"217 470 CURVE",
"227 470 OFFCURVE",
"238 469 OFFCURVE",
"247 470 CURVE",
"259 470 OFFCURVE",
"264 471 OFFCURVE",
"264 485 CURVE",
"265 511 OFFCURVE",
"265 537 OFFCURVE",
"265 564 CURVE SMOOTH",
"265 568 OFFCURVE",
"262 572 OFFCURVE",
"257 572 CURVE SMOOTH",
"246 572 OFFCURVE",
"234 572 OFFCURVE",
"223 573 CURVE SMOOTH",
"211 575 OFFCURVE",
"208 577 OFFCURVE",
"208 590 CURVE SMOOTH",
"208 595 OFFCURVE",
"208 600 OFFCURVE",
"209 606 CURVE",
"213 629 OFFCURVE",
"220 636 OFFCURVE",
"245 641 CURVE",
"247 642 OFFCURVE",
"250 642 OFFCURVE",
"253 642 CURVE",
"265 645 OFFCURVE",
"268 648 OFFCURVE",
"268 660 CURVE",
"269 689 OFFCURVE",
"269 718 OFFCURVE",
"270 747 CURVE",
"270 756 OFFCURVE",
"266 759 OFFCURVE",
"257 759 CURVE"
);
}
);
width = 253;
},
{
associatedMasterId = "82E980F0-013F-4801-8ED7-9905E88076B0";
layerId = "626D775A-2479-4BA5-A458-1D069E2A2E2E";
width = 600;
}
);
unicode = 0046;
},
{
glyphname = G;
lastChange = "2017-01-19 14:09:42 +0000";
layers = (
{
layerId = "82E980F0-013F-4801-8ED7-9905E88076B0";
name = Regular;
paths = (
{
closed = 1;
nodes = (
"239 693 OFFCURVE",
"215 689 OFFCURVE",
"193 683 CURVE SMOOTH",
"168 674 OFFCURVE",
"148 661 OFFCURVE",
"129 642 CURVE SMOOTH",
"115 629 OFFCURVE",
"104 613 OFFCURVE",
"94 596 CURVE",
"72 563 OFFCURVE",
"58 526 OFFCURVE",
"48 487 CURVE SMOOTH",
"38 450 OFFCURVE",
"29 412 OFFCURVE",
"26 374 CURVE SMOOTH",
"23 345 OFFCURVE",
"21 315 OFFCURVE",
"19 294 CURVE",
"19 255 OFFCURVE",
"21 227 OFFCURVE",
"26 198 CURVE",
"29 173 OFFCURVE",
"38 147 OFFCURVE",
"51 122 CURVE SMOOTH",
"58 109 OFFCURVE",
"68 95 OFFCURVE",
"80 83 CURVE SMOOTH",
"100 63 OFFCURVE",
"127 51 OFFCURVE",
"156 44 CURVE SMOOTH",
"186 38 OFFCURVE",
"217 34 OFFCURVE",
"249 36 CURVE SMOOTH",
"276 38 OFFCURVE",
"301 39 OFFCURVE",
"328 36 CURVE",
"333 36 OFFCURVE",
"337 38 OFFCURVE",
"337 43 CURVE",
"342 78 LINE",
"362 255 LINE",
"364 266 OFFCURVE",
"365 276 OFFCURVE",
"370 286 CURVE",
"374 294 OFFCURVE",
"379 299 OFFCURVE",
"387 299 CURVE",
"401 301 OFFCURVE",
"401 301 OFFCURVE",
"402 313 CURVE",
"402 318 LINE",
"406 342 OFFCURVE",
"408 340 OFFCURVE",
"381 343 CURVE",
"355 345 OFFCURVE",
"330 348 OFFCURVE",
"303 350 CURVE SMOOTH",
"281 352 OFFCURVE",
"259 355 OFFCURVE",
"237 357 CURVE",
"227 357 LINE SMOOTH",
"222 357 OFFCURVE",
"218 355 OFFCURVE",
"218 350 CURVE",
"217 343 OFFCURVE",
"215 336 OFFCURVE",
"215 330 CURVE",
"213 318 OFFCURVE",
"213 316 OFFCURVE",
"227 315 CURVE SMOOTH",
"239 313 OFFCURVE",
"245 304 OFFCURVE",
"245 294 CURVE",
"247 288 OFFCURVE",
"247 281 OFFCURVE",
"245 272 CURVE",
"245 261 OFFCURVE",
"244 247 OFFCURVE",
"242 235 CURVE SMOOTH",
"239 215 OFFCURVE",
"237 193 OFFCURVE",
"235 173 CURVE",
"232 149 OFFCURVE",
"229 127 OFFCURVE",
"227 105 CURVE",
"225 100 OFFCURVE",
"225 95 OFFCURVE",
"224 90 CURVE",
"224 87 OFFCURVE",
"222 85 OFFCURVE",
"217 85 CURVE",
"200 83 OFFCURVE",
"186 88 OFFCURVE",
"176 104 CURVE",
"171 112 OFFCURVE",
"168 120 OFFCURVE",
"166 131 CURVE SMOOTH",
"163 147 OFFCURVE",
"161 163 OFFCURVE",
"161 179 CURVE SMOOTH",
"161 215 OFFCURVE",
"163 250 OFFCURVE",
"168 288 CURVE",
"171 325 OFFCURVE",
"176 362 OFFCURVE",
"180 399 CURVE",
"186 450 OFFCURVE",
"198 502 OFFCURVE",
"215 553 CURVE SMOOTH",
"220 569 OFFCURVE",
"227 588 OFFCURVE",
"237 605 CURVE SMOOTH",
"242 613 OFFCURVE",
"247 620 OFFCURVE",
"254 627 CURVE",
"259 634 OFFCURVE",
"264 639 OFFCURVE",
"272 642 CURVE",
"283 644 OFFCURVE",
"291 642 OFFCURVE",
"298 635 CURVE",
"305 623 LINE",
"306 617 OFFCURVE",
"308 612 OFFCURVE",
"308 607 CURVE",
"313 573 LINE",
"318 526 LINE",
"318 515 OFFCURVE",
"320 505 OFFCURVE",
"320 495 CURVE",
"321 492 OFFCURVE",
"321 488 OFFCURVE",
"325 483 CURVE",
"326 482 OFFCURVE",
"328 478 OFFCURVE",
"332 477 CURVE SMOOTH",
"342 472 OFFCURVE",
"352 470 OFFCURVE",
"362 470 CURVE",
"365 473 LINE",
"367 477 OFFCURVE",
"367 480 OFFCURVE",
"367 483 CURVE",
"369 497 OFFCURVE",
"369 510 OFFCURVE",
"370 526 CURVE",
"372 564 OFFCURVE",
"374 603 OFFCURVE",
"377 642 CURVE",
"377 664 LINE",
"375 666 OFFCURVE",
"374 667 OFFCURVE",
"372 667 CURVE",
"370 669 OFFCURVE",
"365 669 OFFCURVE",
"362 669 CURVE",
"352 671 OFFCURVE",
"342 672 OFFCURVE",
"332 676 CURVE SMOOTH",
"310 683 OFFCURVE",
"286 688 OFFCURVE",
"262 689 CURVE"
);
}
);
width = 414;
},
{
associatedMasterId = "82E980F0-013F-4801-8ED7-9905E88076B0";
layerId = "626D775A-2479-4BA5-A458-1D069E2A2E2E";
width = 600;
}
);
unicode = 0047;
},
{
glyphname = H;
lastChange = "2017-01-19 14:09:50 +0000";
layers = (
{
layerId = "82E980F0-013F-4801-8ED7-9905E88076B0";
name = Regular;
paths = (
{
closed = 1;
nodes = (
"121 765 OFFCURVE",
"115 761 OFFCURVE",
"114 751 CURVE SMOOTH",
"110 721 OFFCURVE",
"106 691 OFFCURVE",
"101 662 CURVE SMOOTH",
"93 609 OFFCURVE",
"85 554 OFFCURVE",
"75 502 CURVE SMOOTH",
"66 453 OFFCURVE",
"57 404 OFFCURVE",
"54 353 CURVE SMOOTH",
"51 308 OFFCURVE",
"47 264 OFFCURVE",
"42 218 CURVE SMOOTH",
"23 76 LINE",
"21 60 OFFCURVE",
"19 44 OFFCURVE",
"17 28 CURVE SMOOTH",
"14 12 OFFCURVE",
"18 -4 OFFCURVE",
"14 -20 CURVE SMOOTH",
"13 -25 OFFCURVE",
"18 -31 OFFCURVE",
"23 -33 CURVE",
"29 -35 OFFCURVE",
"33 -37 OFFCURVE",
"38 -37 CURVE",
"70 -39 OFFCURVE",
"102 -41 OFFCURVE",
"134 -41 CURVE SMOOTH",
"202 -43 OFFCURVE",
"270 -41 OFFCURVE",
"338 -39 CURVE SMOOTH",
"375 -37 OFFCURVE",
"412 -37 OFFCURVE",
"452 -31 CURVE",
"452 -24 OFFCURVE",
"454 -17 OFFCURVE",
"455 -12 CURVE",
"456 15 OFFCURVE",
"459 41 OFFCURVE",
"460 69 CURVE SMOOTH",
"463 104 OFFCURVE",
"466 139 OFFCURVE",
"467 173 CURVE",
"467 226 OFFCURVE",
"468 278 OFFCURVE",
"472 330 CURVE SMOOTH",
"476 381 OFFCURVE",
"479 432 OFFCURVE",
"484 482 CURVE SMOOTH",
"492 546 OFFCURVE",
"500 610 OFFCURVE",
"510 673 CURVE",
"510 679 OFFCURVE",
"511 685 OFFCURVE",
"511 691 CURVE",
"514 711 OFFCURVE",
"510 717 OFFCURVE",
"491 721 CURVE",
"467 725 LINE",
"359 737 OFFCURVE",
"253 750 OFFCURVE",
"145 763 CURVE",
"141 763 OFFCURVE",
"135 765 OFFCURVE",
"130 765 CURVE SMOOTH"
);
},
{
closed = 1;
nodes = (
"155 721 OFFCURVE",
"173 719 OFFCURVE",
"190 717 CURVE",
"242 719 OFFCURVE",
"238 715 OFFCURVE",
"233 670 CURVE SMOOTH",
"230 643 OFFCURVE",
"230 618 OFFCURVE",
"227 591 CURVE",
"227 579 OFFCURVE",
"226 566 OFFCURVE",
"226 553 CURVE",
"218 445 LINE",
"218 433 LINE SMOOTH",
"218 413 OFFCURVE",
"222 409 OFFCURVE",
"242 406 CURVE SMOOTH",
"259 404 OFFCURVE",
"278 404 OFFCURVE",
"295 405 CURVE",
"300 405 OFFCURVE",
"304 409 OFFCURVE",
"306 414 CURVE",
"310 434 LINE",
"318 573 LINE SMOOTH",
"320 617 OFFCURVE",
"324 662 OFFCURVE",
"327 709 CURVE",
"332 709 OFFCURVE",
"338 711 OFFCURVE",
"342 710 CURVE",
"360 709 OFFCURVE",
"378 706 OFFCURVE",
"396 705 CURVE",
"408 703 OFFCURVE",
"420 703 OFFCURVE",
"432 702 CURVE",
"438 701 OFFCURVE",
"443 697 OFFCURVE",
"443 690 CURVE SMOOTH",
"443 685 LINE",
"439 645 OFFCURVE",
"439 605 OFFCURVE",
"434 565 CURVE SMOOTH",
"431 543 OFFCURVE",
"431 522 OFFCURVE",
"430 502 CURVE SMOOTH",
"427 446 OFFCURVE",
"424 392 OFFCURVE",
"420 337 CURVE SMOOTH",
"418 286 OFFCURVE",
"415 237 OFFCURVE",
"411 187 CURVE SMOOTH",
"403 71 LINE",
"403 65 OFFCURVE",
"402 60 OFFCURVE",
"400 56 CURVE",
"399 48 OFFCURVE",
"394 44 OFFCURVE",
"386 43 CURVE",
"380 43 LINE",
"288 47 LINE",
"288 53 OFFCURVE",
"286 57 OFFCURVE",
"286 63 CURVE",
"290 127 OFFCURVE",
"292 191 OFFCURVE",
"299 254 CURVE SMOOTH",
"300 270 OFFCURVE",
"300 286 OFFCURVE",
"300 302 CURVE",
"302 310 OFFCURVE",
"296 316 OFFCURVE",
"290 317 CURVE SMOOTH",
"283 318 OFFCURVE",
"278 321 OFFCURVE",
"271 321 CURVE",
"256 322 OFFCURVE",
"242 322 OFFCURVE",
"227 322 CURVE SMOOTH",
"218 322 OFFCURVE",
"213 317 OFFCURVE",
"210 309 CURVE",
"210 305 OFFCURVE",
"210 301 OFFCURVE",
"209 297 CURVE",
"207 269 OFFCURVE",
"205 241 OFFCURVE",
"203 213 CURVE SMOOTH",
"201 175 OFFCURVE",
"199 137 OFFCURVE",
"195 99 CURVE SMOOTH",
"191 47 OFFCURVE",
"201 59 OFFCURVE",
"150 57 CURVE",
"130 56 OFFCURVE",
"109 59 OFFCURVE",
"87 60 CURVE",
"82 60 OFFCURVE",
"78 65 OFFCURVE",
"78 71 CURVE",
"79 83 OFFCURVE",
"81 96 OFFCURVE",
"81 109 CURVE",
"89 193 LINE SMOOTH",
"90 208 OFFCURVE",
"91 224 OFFCURVE",
"91 240 CURVE",
"99 362 LINE",
"103 446 LINE",
"119 695 LINE",
"121 703 OFFCURVE",
"121 711 OFFCURVE",
"122 721 CURVE",
"127 721 OFFCURVE",
"133 723 OFFCURVE",
"137 722 CURVE"
);
},
{
closed = 1;
nodes = (
"197 484 LINE",
"195 482 OFFCURVE",
"194 482 OFFCURVE",
"194 482 CURVE",
"194 481 OFFCURVE",
"195 481 OFFCURVE",
"195 480 CURVE",
"198 482 LINE"
);
},
{
closed = 1;
nodes = (
"198 -81 LINE",
"198 -80 OFFCURVE",
"197 -81 OFFCURVE",
"197 -81 CURVE SMOOTH",
"197 -81 OFFCURVE",
"198 -81 OFFCURVE",
"198 -83 CURVE",
"199 -83 OFFCURVE",
"199 -81 OFFCURVE",
"201 -81 CURVE"
);
}
);
width = 532;
},
{
associatedMasterId = "82E980F0-013F-4801-8ED7-9905E88076B0";
layerId = "626D775A-2479-4BA5-A458-1D069E2A2E2E";
width = 600;
}
);
unicode = 0048;
},
{
glyphname = I;
lastChange = "2017-01-19 14:10:19 +0000";
layers = (
{
layerId = "82E980F0-013F-4801-8ED7-9905E88076B0";
name = Regular;
paths = (
{
closed = 1;
nodes = (
"34 758 OFFCURVE",
"32 756 OFFCURVE",
"31 752 CURVE",
"29 746 OFFCURVE",
"28 740 OFFCURVE",
"31 734 CURVE",
"31 727 LINE",
"27 616 LINE",
"23 481 LINE",
"20 366 LINE",
"16 293 LINE",
"16 277 OFFCURVE",
"15 260 OFFCURVE",
"15 241 CURVE",
"13 215 OFFCURVE",
"13 189 OFFCURVE",
"12 164 CURVE SMOOTH",
"8 75 LINE",
"8 29 LINE SMOOTH",
"8 25 OFFCURVE",
"9 22 OFFCURVE",
"12 22 CURVE SMOOTH",
"17 22 LINE SMOOTH",
"28 22 OFFCURVE",
"39 22 OFFCURVE",
"51 21 CURVE",
"131 18 LINE",
"140 18 LINE SMOOTH",
"144 18 OFFCURVE",
"147 21 OFFCURVE",
"147 23 CURVE SMOOTH",
"147 34 LINE",
"151 150 LINE",
"154 225 LINE",
"158 347 LINE",
"162 451 LINE",
"166 553 LINE",
"166 600 OFFCURVE",
"167 647 OFFCURVE",
"170 696 CURVE",
"170 708 OFFCURVE",
"171 720 OFFCURVE",
"171 732 CURVE SMOOTH",
"171 747 LINE SMOOTH",
"171 751 OFFCURVE",
"170 752 OFFCURVE",
"166 754 CURVE",
"159 754 LINE SMOOTH",
"138 754 OFFCURVE",
"116 754 OFFCURVE",
"112 755 CURVE",
"94 755 OFFCURVE",
"74 756 OFFCURVE",
"55 756 CURVE SMOOTH",
"50 756 OFFCURVE",
"43 758 OFFCURVE",
"36 758 CURVE SMOOTH"
);
},
{
closed = 1;
nodes = (
"-96 0 LINE",
"-97 2 OFFCURVE",
"-99 0 OFFCURVE",
"-100 0 CURVE",
"-99 -1 OFFCURVE",
"-99 -2 OFFCURVE",
"-97 -2 CURVE",
"-50 -13 LINE SMOOTH",
"-26 -18 OFFCURVE",
"-3 -23 OFFCURVE",
"23 -20 CURVE",
"23 -20 OFFCURVE",
"25 -20 OFFCURVE",
"28 -21 CURVE SMOOTH",
"31 -23 OFFCURVE",
"35 -23 OFFCURVE",
"39 -23 CURVE SMOOTH",
"47 -23 OFFCURVE",
"54 -23 OFFCURVE",
"63 -21 CURVE",
"65 -21 OFFCURVE",
"66 -20 OFFCURVE",
"67 -18 CURVE",
"69 -18 OFFCURVE",
"69 -17 OFFCURVE",
"69 -16 CURVE",
"66 -12 OFFCURVE",
"65 -10 OFFCURVE",
"59 -10 CURVE",
"56 -9 OFFCURVE",
"52 -9 OFFCURVE",
"50 -9 CURVE",
"-19 -5 LINE SMOOTH",
"-39 -4 OFFCURVE",
"-60 -2 OFFCURVE",
"-80 0 CURVE"
);
}
);
width = 181;
},
{
associatedMasterId = "82E980F0-013F-4801-8ED7-9905E88076B0";
layerId = "626D775A-2479-4BA5-A458-1D069E2A2E2E";
width = 600;
}
);
unicode = 0049;
},
{
glyphname = J;
lastChange = "2017-01-19 14:10:05 +0000";
layers = (
{
layerId = "82E980F0-013F-4801-8ED7-9905E88076B0";
name = Regular;
paths = (
{
closed = 1;
nodes = (
"246 732 OFFCURVE",
"233 726 OFFCURVE",
"222 719 CURVE",
"213 722 OFFCURVE",
"212 712 OFFCURVE",
"207 709 CURVE",
"201 709 OFFCURVE",
"194 710 OFFCURVE",
"188 709 CURVE",
"184 709 OFFCURVE",
"180 709 OFFCURVE",
"175 706 CURVE",
"157 696 OFFCURVE",
"154 693 OFFCURVE",
"155 668 CURVE",
"155 658 OFFCURVE",
"157 648 OFFCURVE",
"159 638 CURVE",
"178 590 OFFCURVE",
"223 573 OFFCURVE",
"262 600 CURVE SMOOTH",
"290 619 OFFCURVE",
"297 660 OFFCURVE",
"285 693 CURVE",
"278 710 OFFCURVE",
"267 723 OFFCURVE",
"258 739 CURVE"
);
},
{
closed = 1;
nodes = (
"125 519 OFFCURVE",
"110 516 OFFCURVE",
"97 515 CURVE",
"90 515 OFFCURVE",
"87 509 OFFCURVE",
"87 500 CURVE SMOOTH",
"87 492 OFFCURVE",
"90 487 OFFCURVE",
"96 486 CURVE",
"110 482 OFFCURVE",
"123 477 OFFCURVE",
"136 472 CURVE",
"144 469 OFFCURVE",
"151 466 OFFCURVE",
"155 459 CURVE",
"162 444 OFFCURVE",
"170 430 OFFCURVE",
"170 412 CURVE SMOOTH",
"170 237 LINE SMOOTH",
"170 173 OFFCURVE",
"168 108 OFFCURVE",
"167 45 CURVE SMOOTH",
"165 10 OFFCURVE",
"162 -24 OFFCURVE",
"152 -55 CURVE SMOOTH",
"149 -66 OFFCURVE",
"145 -76 OFFCURVE",
"136 -83 CURVE",
"132 -86 OFFCURVE",
"128 -89 OFFCURVE",
"120 -87 CURVE",
"117 -86 OFFCURVE",
"116 -80 OFFCURVE",
"117 -71 CURVE",
"120 -60 OFFCURVE",
"122 -48 OFFCURVE",
"123 -38 CURVE",
"123 -25 OFFCURVE",
"123 -13 OFFCURVE",
"122 0 CURVE",
"116 29 OFFCURVE",
"86 53 OFFCURVE",
"58 49 CURVE",
"57 49 OFFCURVE",
"55 49 OFFCURVE",
"54 47 CURVE",
"35 40 OFFCURVE",
"22 29 OFFCURVE",
"15 8 CURVE SMOOTH",
"5 -18 OFFCURVE",
"9 -44 OFFCURVE",
"19 -70 CURVE",
"31 -93 LINE",
"18 -92 OFFCURVE",
"9 -90 OFFCURVE",
"2 -90 CURVE",
"-3 -89 OFFCURVE",
"-6 -89 OFFCURVE",
"-10 -89 CURVE SMOOTH",
"-10 -89 OFFCURVE",
"-11 -90 OFFCURVE",
"-11 -92 CURVE SMOOTH",
"-11 -93 OFFCURVE",
"-11 -96 OFFCURVE",
"-10 -96 CURVE",
"-3 -97 OFFCURVE",
"6 -100 OFFCURVE",
"15 -102 CURVE",
"57 -106 OFFCURVE",
"99 -110 OFFCURVE",
"141 -116 CURVE SMOOTH",
"154 -118 OFFCURVE",
"167 -115 OFFCURVE",
"178 -107 CURVE SMOOTH",
"204 -92 OFFCURVE",
"230 -73 OFFCURVE",
"246 -42 CURVE SMOOTH",
"262 -11 OFFCURVE",
"275 20 OFFCURVE",
"280 58 CURVE SMOOTH",
"284 110 OFFCURVE",
"287 163 OFFCURVE",
"285 215 CURVE",
"284 230 OFFCURVE",
"285 244 OFFCURVE",
"285 259 CURVE",
"287 270 OFFCURVE",
"288 282 OFFCURVE",
"288 292 CURVE",
"285 341 OFFCURVE",
"287 389 OFFCURVE",
"288 437 CURVE SMOOTH",
"288 489 LINE SMOOTH",
"288 495 OFFCURVE",
"288 499 OFFCURVE",
"287 505 CURVE SMOOTH",
"285 511 OFFCURVE",
"280 518 OFFCURVE",
"274 518 CURVE SMOOTH",
"262 518 LINE SMOOTH",
"222 518 OFFCURVE",
"180 519 OFFCURVE",
"138 519 CURVE SMOOTH"
);
},
{
closed = 1;
nodes = (
"391 36 LINE",
"384 37 OFFCURVE",
"378 33 OFFCURVE",
"377 26 CURVE",
"379 24 OFFCURVE",
"382 21 OFFCURVE",
"384 21 CURVE",
"388 23 OFFCURVE",
"391 27 OFFCURVE",
"395 30 CURVE"
);
}
);
width = 405;
},
{
associatedMasterId = "82E980F0-013F-4801-8ED7-9905E88076B0";
layerId = "626D775A-2479-4BA5-A458-1D069E2A2E2E";
width = 600;
}
);
unicode = 004A;
},
{
glyphname = K;
lastChange = "2017-01-26 09:04:27 +0000";
layers = (
{
layerId = "82E980F0-013F-4801-8ED7-9905E88076B0";
name = Regular;
paths = (
{
closed = 1;
nodes = (
"68 747 LINE SMOOTH",
"21 745 OFFCURVE",
"-26 744 OFFCURVE",
"-74 741 CURVE",
"-78 741 OFFCURVE",
"-83 741 OFFCURVE",
"-87 740 CURVE",
"-93 740 OFFCURVE",
"-97 736 OFFCURVE",
"-98 730 CURVE",
"-100 728 OFFCURVE",
"-100 724 OFFCURVE",
"-100 719 CURVE SMOOTH",
"-100 694 OFFCURVE",
"-98 669 OFFCURVE",
"-98 644 CURVE SMOOTH",
"-98 635 OFFCURVE",
"-94 629 OFFCURVE",
"-85 627 CURVE",
"-74 625 OFFCURVE",
"-70 617 OFFCURVE",
"-70 607 CURVE SMOOTH",
"-70 594 OFFCURVE",
"-68 580 OFFCURVE",
"-68 565 CURVE SMOOTH",
"-67 484 OFFCURVE",
"-64 404 OFFCURVE",
"-63 323 CURVE SMOOTH",
"-61 270 OFFCURVE",
"-59 217 OFFCURVE",
"-57 163 CURVE SMOOTH",
"-57 146 LINE SMOOTH",
"-57 135 OFFCURVE",
"-61 126 OFFCURVE",
"-74 124 CURVE SMOOTH",
"-81 122 OFFCURVE",
"-82 116 OFFCURVE",
"-83 110 CURVE",
"-85 103 OFFCURVE",
"-85 96 OFFCURVE",
"-85 90 CURVE SMOOTH",
"-85 73 OFFCURVE",
"-85 57 OFFCURVE",
"-83 42 CURVE",
"-83 9 OFFCURVE",
"-78 10 OFFCURVE",
"-53 10 CURVE SMOOTH",
"-10 10 OFFCURVE",
"36 12 OFFCURVE",
"79 13 CURVE SMOOTH",
"85 13 OFFCURVE",
"92 13 OFFCURVE",
"97 14 CURVE",
"105 16 OFFCURVE",
"109 20 OFFCURVE",
"109 28 CURVE SMOOTH",
"109 68 LINE",
"105 191 LINE",
"105 193 OFFCURVE",
"107 199 OFFCURVE",
"109 200 CURVE",
"113 203 OFFCURVE",
"115 198 OFFCURVE",
"116 193 CURVE",
"122 181 OFFCURVE",
"126 169 OFFCURVE",
"130 157 CURVE SMOOTH",
"145 116 OFFCURVE",
"160 75 OFFCURVE",
"174 32 CURVE",
"178 21 OFFCURVE",
"184 16 OFFCURVE",
"195 17 CURVE",
"227 17 OFFCURVE",
"258 17 OFFCURVE",
"288 19 CURVE",
"321 19 LINE",
"333 20 OFFCURVE",
"337 24 OFFCURVE",
"337 36 CURVE SMOOTH",
"337 61 OFFCURVE",
"336 86 OFFCURVE",
"336 110 CURVE SMOOTH",
"336 124 OFFCURVE",
"333 135 OFFCURVE",
"317 136 CURVE",
"313 137 OFFCURVE",
"309 142 OFFCURVE",
"307 146 CURVE",
"303 150 OFFCURVE",
"302 155 OFFCURVE",
"301 159 CURVE SMOOTH",
"256 284 LINE",
"239 331 LINE",
"239 337 OFFCURVE",
"238 342 OFFCURVE",
"240 346 CURVE",
"254 372 OFFCURVE",
"268 398 OFFCURVE",
"284 424 CURVE",
"290 434 OFFCURVE",
"299 437 OFFCURVE",
"310 437 CURVE SMOOTH",
"316 437 OFFCURVE",
"320 434 OFFCURVE",
"320 428 CURVE",
"321 424 OFFCURVE",
"321 420 OFFCURVE",
"321 416 CURVE SMOOTH",
"321 394 LINE",
"328 456 OFFCURVE",
"344 515 OFFCURVE",
"357 575 CURVE",
"337 572 OFFCURVE",
"343 568 OFFCURVE",
"335 538 CURVE",
"333 531 OFFCURVE",
"333 523 OFFCURVE",
"332 515 CURVE",
"331 509 OFFCURVE",
"328 504 OFFCURVE",
"327 498 CURVE",
"322 498 LINE",
"321 506 OFFCURVE",
"321 515 OFFCURVE",
"321 523 CURVE",
"320 553 OFFCURVE",
"320 556 OFFCURVE",
"286 554 CURVE SMOOTH",
"180 550 LINE",
"175 550 LINE",
"163 549 OFFCURVE",
"159 545 OFFCURVE",
"159 534 CURVE SMOOTH",
"159 505 OFFCURVE",
"159 478 OFFCURVE",
"160 449 CURVE",
"160 442 OFFCURVE",
"164 437 OFFCURVE",
"171 434 CURVE",
"179 428 OFFCURVE",
"180 422 OFFCURVE",
"178 413 CURVE SMOOTH",
"175 405 OFFCURVE",
"172 398 OFFCURVE",
"168 392 CURVE",
"152 357 OFFCURVE",
"134 325 OFFCURVE",
"118 292 CURVE SMOOTH",
"116 289 OFFCURVE",
"115 286 OFFCURVE",
"112 285 CURVE",
"111 284 OFFCURVE",
"109 282 OFFCURVE",
"107 284 CURVE",
"105 284 OFFCURVE",
"105 286 OFFCURVE",
"104 288 CURVE",
"104 293 LINE",
"101 346 OFFCURVE",
"100 400 OFFCURVE",
"98 452 CURVE SMOOTH",
"96 527 OFFCURVE",
"94 601 OFFCURVE",
"93 674 CURVE",
"92 692 OFFCURVE",
"93 710 OFFCURVE",
"92 728 CURVE",
"92 743 OFFCURVE",
"87 745 OFFCURVE",
"74 747 CURVE"
);
}
);
width = 387;
},
{
associatedMasterId = "82E980F0-013F-4801-8ED7-9905E88076B0";
layerId = "626D775A-2479-4BA5-A458-1D069E2A2E2E";
width = 600;
}
);
unicode = 004B;
},
{
glyphname = L;
lastChange = "2017-01-19 14:10:48 +0000";
layers = (
{
layerId = "82E980F0-013F-4801-8ED7-9905E88076B0";
name = Regular;
paths = (
{
closed = 1;
nodes = (
"53 748 OFFCURVE",
"47 748 OFFCURVE",
"39 747 CURVE",
"37 747 OFFCURVE",
"36 745 OFFCURVE",
"35 744 CURVE",
"32 740 OFFCURVE",
"33 731 OFFCURVE",
"39 729 CURVE",
"43 728 OFFCURVE",
"47 727 OFFCURVE",
"51 727 CURVE",
"72 721 OFFCURVE",
"84 707 OFFCURVE",
"87 684 CURVE",
"88 676 OFFCURVE",
"88 668 OFFCURVE",
"88 660 CURVE",
"87 633 OFFCURVE",
"85 608 OFFCURVE",
"85 582 CURVE",
"83 550 OFFCURVE",
"81 518 OFFCURVE",
"80 487 CURVE SMOOTH",
"79 446 OFFCURVE",
"76 406 OFFCURVE",
"75 365 CURVE SMOOTH",
"73 334 OFFCURVE",
"71 303 OFFCURVE",
"69 273 CURVE SMOOTH",
"65 198 LINE",
"61 112 LINE",
"61 105 OFFCURVE",
"61 97 OFFCURVE",
"59 89 CURVE SMOOTH",
"52 68 OFFCURVE",
"40 53 OFFCURVE",
"16 51 CURVE",
"12 51 OFFCURVE",
"8 51 OFFCURVE",
"4 49 CURVE",
"-1 47 OFFCURVE",
"-1 43 OFFCURVE",
"-1 39 CURVE SMOOTH",
"-1 35 OFFCURVE",
"0 32 OFFCURVE",
"4 31 CURVE",
"14 29 OFFCURVE",
"23 29 OFFCURVE",
"31 28 CURVE",
"65 27 OFFCURVE",
"100 27 OFFCURVE",
"135 24 CURVE",
"171 23 OFFCURVE",
"205 19 OFFCURVE",
"241 17 CURVE SMOOTH",
"290 15 OFFCURVE",
"340 13 OFFCURVE",
"390 11 CURVE",
"397 11 OFFCURVE",
"405 9 OFFCURVE",
"413 9 CURVE SMOOTH",
"419 9 OFFCURVE",
"422 12 OFFCURVE",
"422 19 CURVE",
"423 27 OFFCURVE",
"423 35 OFFCURVE",
"423 41 CURVE",
"427 85 OFFCURVE",
"430 129 OFFCURVE",
"434 173 CURVE",
"437 221 OFFCURVE",
"439 269 OFFCURVE",
"447 317 CURVE",
"447 322 OFFCURVE",
"447 327 OFFCURVE",
"446 333 CURVE",
"446 335 OFFCURVE",
"443 338 OFFCURVE",
"441 338 CURVE SMOOTH",
"438 338 OFFCURVE",
"435 337 OFFCURVE",
"434 335 CURVE SMOOTH",
"431 333 OFFCURVE",
"430 329 OFFCURVE",
"430 325 CURVE",
"425 279 OFFCURVE",
"414 237 OFFCURVE",
"402 193 CURVE SMOOTH",
"393 162 OFFCURVE",
"381 132 OFFCURVE",
"366 104 CURVE",
"358 87 OFFCURVE",
"348 73 OFFCURVE",
"334 60 CURVE",
"322 49 OFFCURVE",
"309 43 OFFCURVE",
"293 40 CURVE SMOOTH",
"277 37 OFFCURVE",
"261 39 OFFCURVE",
"245 41 CURVE",
"234 44 OFFCURVE",
"226 49 OFFCURVE",
"221 60 CURVE SMOOTH",
"214 73 OFFCURVE",
"212 88 OFFCURVE",
"212 104 CURVE",
"216 176 LINE SMOOTH",
"218 238 OFFCURVE",
"222 302 OFFCURVE",
"226 365 CURVE SMOOTH",
"234 536 LINE",
"238 639 LINE",
"238 651 OFFCURVE",
"240 663 OFFCURVE",
"242 673 CURVE SMOOTH",
"249 701 OFFCURVE",
"262 717 OFFCURVE",
"290 715 CURVE",
"294 715 OFFCURVE",
"298 715 OFFCURVE",
"302 716 CURVE",
"305 717 OFFCURVE",
"308 720 OFFCURVE",
"309 723 CURVE",
"312 729 OFFCURVE",
"308 735 OFFCURVE",
"301 736 CURVE",
"296 737 OFFCURVE",
"290 737 OFFCURVE",
"285 737 CURVE",
"261 739 OFFCURVE",
"237 739 OFFCURVE",
"214 739 CURVE",
"163 741 OFFCURVE",
"112 745 OFFCURVE",
"60 748 CURVE"
);
},
{
closed = 1;
nodes = (
"2 594 LINE",
"2 595 OFFCURVE",
"4 596 OFFCURVE",
"2 598 CURVE"
);
},
{
closed = 1;
nodes = (
"2 582 LINE",
"4 586 OFFCURVE",
"4 590 OFFCURVE",
"2 594 CURVE"
);
},
{
closed = 1;
nodes = (
"-2 563 LINE",
"-10 470 LINE",
"-12 466 OFFCURVE",
"-12 460 OFFCURVE",
"-12 456 CURVE SMOOTH",
"-12 452 OFFCURVE",
"-13 447 OFFCURVE",
"-9 444 CURVE",
"-8 446 LINE",
"0 488 OFFCURVE",
"3 532 OFFCURVE",
"4 576 CURVE SMOOTH",
"4 578 OFFCURVE",
"2 579 OFFCURVE",
"2 582 CURVE"
);
},
{
closed = 1;
nodes = (
"-13 410 OFFCURVE",
"-14 410 OFFCURVE",
"-14 410 CURVE",
"-16 409 OFFCURVE",
"-14 407 OFFCURVE",
"-14 406 CURVE",
"-14 407 OFFCURVE",
"-13 409 OFFCURVE",
"-13 409 CURVE",
"-12 410 OFFCURVE",
"-13 410 OFFCURVE",
"-13 411 CURVE"
);
},
{
closed = 1;
nodes = (
"-14 386 OFFCURVE",
"-16 386 OFFCURVE",
"-16 386 CURVE",
"-16 379 OFFCURVE",
"-17 373 OFFCURVE",
"-18 366 CURVE",
"-18 355 OFFCURVE",
"-21 346 OFFCURVE",
"-17 335 CURVE",
"-12 351 OFFCURVE",
"-10 371 OFFCURVE",
"-14 387 CURVE"
);
},
{
closed = 1;
nodes = (
"-18 329 OFFCURVE",
"-21 321 OFFCURVE",
"-20 311 CURVE",
"-18 281 OFFCURVE",
"-20 249 OFFCURVE",
"-20 217 CURVE SMOOTH",
"-20 208 OFFCURVE",
"-21 200 OFFCURVE",
"-17 188 CURVE",
"-16 193 OFFCURVE",
"-14 196 OFFCURVE",
"-14 198 CURVE",
"-13 214 OFFCURVE",
"-12 230 OFFCURVE",
"-12 246 CURVE",
"-13 275 OFFCURVE",
"-14 303 OFFCURVE",
"-14 333 CURVE SMOOTH",
"-14 334 OFFCURVE",
"-16 334 OFFCURVE",
"-16 335 CURVE"
);
}
);
width = 447;
},
{
associatedMasterId = "82E980F0-013F-4801-8ED7-9905E88076B0";
layerId = "626D775A-2479-4BA5-A458-1D069E2A2E2E";
width = 600;
}
);
unicode = 004C;
},
{
glyphname = M;
lastChange = "2017-01-19 14:11:01 +0000";
layers = (
{
layerId = "82E980F0-013F-4801-8ED7-9905E88076B0";
name = Regular;
paths = (
{
closed = 1;
nodes = (
"649 624 OFFCURVE",
"642 627 OFFCURVE",
"635 633 CURVE",
"633 636 OFFCURVE",
"630 636 OFFCURVE",
"626 638 CURVE",
"626 643 OFFCURVE",
"624 647 OFFCURVE",
"624 652 CURVE",
"626 670 OFFCURVE",
"626 688 OFFCURVE",
"628 706 CURVE",
"628 740 LINE SMOOTH",
"628 745 OFFCURVE",
"624 747 OFFCURVE",
"619 747 CURVE SMOOTH",
"610 747 LINE",
"592 749 OFFCURVE",
"572 749 OFFCURVE",
"555 749 CURVE SMOOTH",
"524 749 OFFCURVE",
"497 751 OFFCURVE",
"467 751 CURVE SMOOTH",
"422 751 LINE SMOOTH",
"415 751 OFFCURVE",
"413 749 OFFCURVE",
"410 740 CURVE",
"406 726 OFFCURVE",
"402 710 OFFCURVE",
"401 694 CURVE",
"397 674 OFFCURVE",
"392 658 OFFCURVE",
"386 642 CURVE",
"384 631 OFFCURVE",
"379 626 OFFCURVE",
"368 622 CURVE",
"367 620 LINE",
"370 620 OFFCURVE",
"370 620 OFFCURVE",
"374 618 CURVE SMOOTH",
"377 617 OFFCURVE",
"381 615 OFFCURVE",
"379 609 CURVE",
"379 602 LINE",
"367 552 LINE",
"365 547 OFFCURVE",
"359 540 OFFCURVE",
"359 532 CURVE",
"356 515 LINE",
"356 511 OFFCURVE",
"354 507 OFFCURVE",
"354 504 CURVE",
"352 500 OFFCURVE",
"350 495 OFFCURVE",
"352 489 CURVE",
"347 488 OFFCURVE",
"345 482 OFFCURVE",
"345 475 CURVE SMOOTH",
"345 454 OFFCURVE",
"340 430 OFFCURVE",
"333 409 CURVE",
"331 407 LINE",
"329 404 OFFCURVE",
"325 405 OFFCURVE",
"324 407 CURVE",
"324 409 OFFCURVE",
"324 409 OFFCURVE",
"322 409 CURVE",
"313 445 LINE",
"309 466 LINE",
"309 470 OFFCURVE",
"313 473 OFFCURVE",
"311 479 CURVE",
"306 493 LINE",
"302 509 LINE",
"291 559 LINE",
"290 570 OFFCURVE",
"286 583 OFFCURVE",
"286 595 CURVE",
"282 604 OFFCURVE",
"281 615 OFFCURVE",
"282 622 CURVE",
"284 626 OFFCURVE",
"282 629 OFFCURVE",
"281 631 CURVE",
"275 638 OFFCURVE",
"275 647 OFFCURVE",
"273 654 CURVE",
"270 672 OFFCURVE",
"266 686 OFFCURVE",
"265 704 CURVE",
"256 742 LINE",
"254 751 OFFCURVE",
"250 753 OFFCURVE",
"245 753 CURVE SMOOTH",
"207 753 LINE SMOOTH",
"155 754 OFFCURVE",
"102 756 OFFCURVE",
"48 756 CURVE SMOOTH",
"34 756 OFFCURVE",
"32 753 OFFCURVE",
"30 740 CURVE",
"30 736 OFFCURVE",
"32 735 OFFCURVE",
"32 733 CURVE SMOOTH",
"32 661 LINE SMOOTH",
"32 652 OFFCURVE",
"30 643 OFFCURVE",
"30 634 CURVE SMOOTH",
"30 602 OFFCURVE",
"32 570 OFFCURVE",
"30 536 CURVE SMOOTH",
"28 495 OFFCURVE",
"30 454 OFFCURVE",
"28 413 CURVE",
"28 380 OFFCURVE",
"28 350 OFFCURVE",
"25 319 CURVE",
"25 307 LINE SMOOTH",
"25 289 OFFCURVE",
"26 273 OFFCURVE",
"26 257 CURVE",
"25 244 OFFCURVE",
"25 232 OFFCURVE",
"26 217 CURVE",
"26 200 OFFCURVE",
"26 183 OFFCURVE",
"25 166 CURVE",
"25 157 OFFCURVE",
"23 148 OFFCURVE",
"23 137 CURVE SMOOTH",
"23 60 LINE SMOOTH",
"23 58 OFFCURVE",
"21 56 OFFCURVE",
"23 55 CURVE",
"23 53 OFFCURVE",
"25 49 OFFCURVE",
"26 49 CURVE",
"28 47 OFFCURVE",
"34 47 OFFCURVE",
"35 47 CURVE SMOOTH",
"87 47 LINE SMOOTH",
"103 47 OFFCURVE",
"123 46 OFFCURVE",
"139 46 CURVE SMOOTH",
"170 46 LINE SMOOTH",
"173 46 OFFCURVE",
"175 49 OFFCURVE",
"175 53 CURVE",
"177 56 OFFCURVE",
"177 58 OFFCURVE",
"177 64 CURVE SMOOTH",
"177 87 OFFCURVE",
"179 112 OFFCURVE",
"179 137 CURVE SMOOTH",
"179 160 LINE SMOOTH",
"179 178 OFFCURVE",
"180 200 OFFCURVE",
"180 217 CURVE SMOOTH",
"180 244 OFFCURVE",
"179 268 OFFCURVE",
"180 294 CURVE",
"180 380 LINE SMOOTH",
"180 382 OFFCURVE",
"182 384 OFFCURVE",
"184 387 CURVE",
"188 373 OFFCURVE",
"191 366 OFFCURVE",
"191 355 CURVE",
"197 334 OFFCURVE",
"198 316 OFFCURVE",
"202 294 CURVE SMOOTH",
"213 235 LINE",
"220 201 LINE SMOOTH",
"225 173 OFFCURVE",
"231 148 OFFCURVE",
"238 117 CURVE SMOOTH",
"250 58 LINE",
"250 53 LINE",
"252 47 OFFCURVE",
"252 47 OFFCURVE",
"256 46 CURVE",
"261 44 OFFCURVE",
"265 44 OFFCURVE",
"270 44 CURVE SMOOTH",
"304 44 LINE SMOOTH",
"318 44 OFFCURVE",
"334 42 OFFCURVE",
"350 42 CURVE SMOOTH",
"363 42 OFFCURVE",
"377 42 OFFCURVE",
"392 44 CURVE",
"392 47 OFFCURVE",
"395 53 OFFCURVE",
"395 55 CURVE",
"401 76 OFFCURVE",
"402 98 OFFCURVE",
"408 117 CURVE",
"427 205 LINE",
"433 234 OFFCURVE",
"438 264 OFFCURVE",
"445 294 CURVE SMOOTH",
"465 379 LINE",
"467 371 OFFCURVE",
"467 364 OFFCURVE",
"467 357 CURVE SMOOTH",
"467 257 LINE",
"463 124 LINE SMOOTH",
"463 103 OFFCURVE",
"465 78 OFFCURVE",
"461 58 CURVE",
"460 55 OFFCURVE",
"461 53 OFFCURVE",
"461 51 CURVE SMOOTH",
"461 46 OFFCURVE",
"465 42 OFFCURVE",
"470 42 CURVE SMOOTH",
"486 42 LINE",
"512 40 OFFCURVE",
"535 40 OFFCURVE",
"560 40 CURVE SMOOTH",
"562 40 OFFCURVE",
"567 40 OFFCURVE",
"571 38 CURVE",
"576 33 OFFCURVE",
"581 33 OFFCURVE",
"590 33 CURVE",
"597 35 OFFCURVE",
"605 35 OFFCURVE",
"612 35 CURVE",
"623 37 LINE",
"619 42 OFFCURVE",
"615 47 OFFCURVE",
"617 53 CURVE",
"617 64 LINE",
"617 158 LINE SMOOTH",
"617 185 OFFCURVE",
"619 216 OFFCURVE",
"619 242 CURVE",
"621 285 OFFCURVE",
"621 330 OFFCURVE",
"623 373 CURVE",
"623 380 OFFCURVE",
"623 389 OFFCURVE",
"628 395 CURVE",
"628 402 OFFCURVE",
"623 409 OFFCURVE",
"623 418 CURVE SMOOTH",
"623 430 OFFCURVE",
"621 443 OFFCURVE",
"623 457 CURVE SMOOTH",
"624 473 OFFCURVE",
"623 488 OFFCURVE",
"624 506 CURVE",
"626 516 OFFCURVE",
"623 525 OFFCURVE",
"626 536 CURVE",
"628 538 OFFCURVE",
"626 541 OFFCURVE",
"624 545 CURVE",
"623 561 OFFCURVE",
"624 575 OFFCURVE",
"624 593 CURVE SMOOTH",
"624 599 OFFCURVE",
"628 602 OFFCURVE",
"635 604 CURVE",
"649 602 LINE",
"658 606 LINE",
"665 609 OFFCURVE",
"664 620 OFFCURVE",
"655 620 CURVE"
);
},
{
closed = 1;
nodes = (
"329 626 OFFCURVE",
"329 627 CURVE SMOOTH",
"329 629 OFFCURVE",
"327 631 OFFCURVE",
"325 631 CURVE SMOOTH",
"324 631 OFFCURVE",
"318 629 OFFCURVE",
"316 631 CURVE",
"308 631 LINE",
"308 629 LINE",
"313 626 LINE",
"318 620 OFFCURVE",
"320 620 OFFCURVE",
"327 626 CURVE"
);
},
{
closed = 1;
nodes = (
"350 627 LINE",
"349 627 OFFCURVE",
"349 629 OFFCURVE",
"349 629 CURVE SMOOTH",
"349 629 OFFCURVE",
"347 627 OFFCURVE",
"345 627 CURVE",
"349 626 LINE"
);
},
{
closed = 1;
nodes = (
"324 511 LINE",
"324 511 OFFCURVE",
"322 511 OFFCURVE",
"320 513 CURVE",
"320 509 OFFCURVE",
"322 509 OFFCURVE",
"322 507 CURVE"
);
},
{
closed = 1;
nodes = (
"324 507 LINE",
"327 504 LINE",
"327 506 OFFCURVE",
"329 506 OFFCURVE",
"329 506 CURVE"
);
},
{
closed = 1;
nodes = (
"202 26 LINE",
"166 29 OFFCURVE",
"134 31 OFFCURVE",
"100 35 CURVE",
"91 35 OFFCURVE",
"80 37 OFFCURVE",
"69 38 CURVE",
"53 40 OFFCURVE",
"39 40 OFFCURVE",
"23 44 CURVE",
"10 44 LINE SMOOTH",
"9 44 OFFCURVE",
"7 42 OFFCURVE",
"7 42 CURVE",
"9 40 OFFCURVE",
"10 38 OFFCURVE",
"12 38 CURVE",
"28 35 LINE",
"82 29 LINE SMOOTH",
"134 26 OFFCURVE",
"184 21 OFFCURVE",
"234 19 CURVE",
"248 19 LINE SMOOTH",
"254 19 OFFCURVE",
"259 17 OFFCURVE",
"265 21 CURVE",
"263 21 OFFCURVE",
"261 22 OFFCURVE",
"259 22 CURVE"
);
},
{
closed = 1;
nodes = (
"544 31 OFFCURVE",
"547 29 OFFCURVE",
"549 33 CURVE",
"547 33 OFFCURVE",
"544 35 OFFCURVE",
"540 31 CURVE"
);
},
{
closed = 1;
nodes = (
"555 31 LINE",
"555 33 LINE",
"549 33 LINE"
);
},
{
closed = 1;
nodes = (
"531 31 OFFCURVE",
"535 29 OFFCURVE",
"538 31 CURVE",
"535 33 OFFCURVE",
"531 33 OFFCURVE",
"528 31 CURVE"
);
},
{
closed = 1;
nodes = (
"452 26 OFFCURVE",
"465 24 OFFCURVE",
"481 29 CURVE",
"469 29 OFFCURVE",
"458 29 OFFCURVE",
"447 31 CURVE",
"444 31 OFFCURVE",
"440 29 OFFCURVE",
"438 26 CURVE"
);
},
{
closed = 1;
nodes = (
"488 31 OFFCURVE",
"483 31 OFFCURVE",
"481 29 CURVE",
"485 28 OFFCURVE",
"488 26 OFFCURVE",
"492 31 CURVE"
);
},
{
closed = 1;
nodes = (
"501 31 OFFCURVE",
"497 31 OFFCURVE",
"492 31 CURVE",
"497 29 OFFCURVE",
"501 28 OFFCURVE",
"503 29 CURVE"
);
},
{
closed = 1;
nodes = (
"286 26 LINE",
"279 24 OFFCURVE",
"272 24 OFFCURVE",
"265 21 CURVE",
"275 19 LINE",
"374 22 LINE",
"377 22 OFFCURVE",
"383 22 OFFCURVE",
"386 26 CURVE",
"367 28 OFFCURVE",
"349 26 OFFCURVE",
"327 26 CURVE SMOOTH"
);
},
{
closed = 1;
nodes = (
"21 -22 LINE",
"23 -21 LINE",
"21 -21 LINE SMOOTH",
"19 -21 OFFCURVE",
"18 -19 OFFCURVE",
"14 -19 CURVE"
);
},
{
closed = 1;
nodes = (
"18 -24 OFFCURVE",
"12 -22 OFFCURVE",
"0 -26 CURVE",
"5 -35 OFFCURVE",
"12 -35 OFFCURVE",
"19 -35 CURVE SMOOTH",
"21 -35 OFFCURVE",
"23 -31 OFFCURVE",
"21 -31 CURVE"
);
},
{
closed = 1;
nodes = (
"66 -33 LINE",
"66 -35 LINE",
"68 -37 OFFCURVE",
"68 -37 OFFCURVE",
"69 -37 CURVE SMOOTH",
"75 -37 LINE SMOOTH",
"77 -37 OFFCURVE",
"75 -35 OFFCURVE",
"71 -33 CURVE"
);
}
);
width = 663;
},
{
associatedMasterId = "82E980F0-013F-4801-8ED7-9905E88076B0";
layerId = "626D775A-2479-4BA5-A458-1D069E2A2E2E";
width = 600;
}
);
unicode = 004D;
},
{
glyphname = N;
lastChange = "2017-01-19 14:11:36 +0000";
layers = (
{
layerId = "82E980F0-013F-4801-8ED7-9905E88076B0";
name = Regular;
paths = (
{
closed = 1;
nodes = (
"-12 714 LINE SMOOTH",
"-17 714 OFFCURVE",
"-21 712 OFFCURVE",
"-22 707 CURVE SMOOTH",
"-24 701 OFFCURVE",
"-22 696 OFFCURVE",
"-17 692 CURVE",
"-8 691 LINE",
"6 680 OFFCURVE",
"20 666 OFFCURVE",
"34 650 CURVE",
"38 643 OFFCURVE",
"41 637 OFFCURVE",
"40 627 CURVE",
"41 616 LINE",
"40 529 LINE SMOOTH",
"40 518 OFFCURVE",
"41 508 OFFCURVE",
"41 497 CURVE SMOOTH",
"40 408 LINE SMOOTH",
"40 368 OFFCURVE",
"41 328 OFFCURVE",
"41 289 CURVE SMOOTH",
"41 254 OFFCURVE",
"40 222 OFFCURVE",
"38 186 CURVE",
"38 160 OFFCURVE",
"38 131 OFFCURVE",
"36 105 CURVE",
"34 91 OFFCURVE",
"31 73 OFFCURVE",
"27 59 CURVE",
"20 41 OFFCURVE",
"6 25 OFFCURVE",
"-14 20 CURVE",
"-24 16 LINE",
"-28 14 OFFCURVE",
"-30 11 OFFCURVE",
"-30 7 CURVE SMOOTH",
"-30 2 OFFCURVE",
"-28 0 OFFCURVE",
"-22 -2 CURVE",
"1 -3 LINE",
"20 -3 OFFCURVE",
"41 -3 OFFCURVE",
"61 -5 CURVE",
"109 -5 LINE SMOOTH",
"112 -5 OFFCURVE",
"116 -5 OFFCURVE",
"121 -2 CURVE",
"123 -2 OFFCURVE",
"127 4 OFFCURVE",
"127 9 CURVE",
"125 11 OFFCURVE",
"123 14 OFFCURVE",
"123 16 CURVE",
"105 20 LINE SMOOTH",
"89 23 OFFCURVE",
"80 32 OFFCURVE",
"73 48 CURVE",
"70 55 OFFCURVE",
"68 66 OFFCURVE",
"65 76 CURVE",
"63 96 OFFCURVE",
"63 115 OFFCURVE",
"61 131 CURVE",
"59 162 OFFCURVE",
"61 188 OFFCURVE",
"61 215 CURVE SMOOTH",
"61 410 LINE",
"63 572 LINE",
"63 593 LINE",
"65 593 OFFCURVE",
"65 595 OFFCURVE",
"66 595 CURVE SMOOTH",
"68 595 OFFCURVE",
"70 595 OFFCURVE",
"70 593 CURVE",
"73 588 LINE",
"98 538 LINE SMOOTH",
"134 462 OFFCURVE",
"175 400 OFFCURVE",
"210 328 CURVE SMOOTH",
"238 272 LINE",
"267 202 LINE",
"263 202 LINE",
"263 199 OFFCURVE",
"265 197 OFFCURVE",
"269 195 CURVE",
"278 176 OFFCURVE",
"285 156 OFFCURVE",
"295 139 CURVE",
"352 18 LINE",
"365 -7 LINE",
"366 -12 OFFCURVE",
"368 -12 OFFCURVE",
"372 -14 CURVE",
"405 -14 LINE SMOOTH",
"407 -14 OFFCURVE",
"411 -11 OFFCURVE",
"411 -7 CURVE",
"412 -3 OFFCURVE",
"411 0 OFFCURVE",
"411 2 CURVE SMOOTH",
"412 170 LINE SMOOTH",
"412 226 OFFCURVE",
"407 277 OFFCURVE",
"407 330 CURVE SMOOTH",
"409 398 OFFCURVE",
"414 465 OFFCURVE",
"412 534 CURVE",
"412 563 OFFCURVE",
"414 591 OFFCURVE",
"418 620 CURVE SMOOTH",
"420 637 OFFCURVE",
"427 653 OFFCURVE",
"436 668 CURVE",
"439 675 OFFCURVE",
"446 680 OFFCURVE",
"455 684 CURVE",
"460 685 OFFCURVE",
"467 685 OFFCURVE",
"473 689 CURVE",
"476 691 OFFCURVE",
"480 691 OFFCURVE",
"480 694 CURVE",
"482 703 OFFCURVE",
"478 707 OFFCURVE",
"469 708 CURVE",
"436 708 LINE",
"405 710 OFFCURVE",
"372 712 OFFCURVE",
"340 710 CURVE",
"331 712 LINE",
"325 710 OFFCURVE",
"324 705 OFFCURVE",
"324 700 CURVE",
"325 694 OFFCURVE",
"327 691 OFFCURVE",
"333 691 CURVE",
"341 687 LINE",
"363 684 OFFCURVE",
"372 673 OFFCURVE",
"382 653 CURVE",
"388 634 OFFCURVE",
"391 616 OFFCURVE",
"391 597 CURVE SMOOTH",
"393 513 LINE SMOOTH",
"395 478 OFFCURVE",
"389 442 OFFCURVE",
"389 405 CURVE SMOOTH",
"389 378 OFFCURVE",
"395 353 OFFCURVE",
"395 327 CURVE",
"391 307 LINE",
"391 307 OFFCURVE",
"389 305 OFFCURVE",
"388 305 CURVE SMOOTH",
"388 305 OFFCURVE",
"386 305 OFFCURVE",
"386 307 CURVE",
"381 316 LINE",
"357 364 OFFCURVE",
"338 414 OFFCURVE",
"313 460 CURVE",
"283 527 OFFCURVE",
"244 591 OFFCURVE",
"212 657 CURVE SMOOTH",
"191 700 LINE",
"187 708 OFFCURVE",
"182 712 OFFCURVE",
"175 712 CURVE SMOOTH",
"50 712 LINE"
);
},
{
closed = 1;
nodes = (
"-10 620 OFFCURVE",
"-21 607 OFFCURVE",
"-37 602 CURVE",
"-40 600 OFFCURVE",
"-40 593 OFFCURVE",
"-40 591 CURVE SMOOTH",
"-40 584 OFFCURVE",
"-35 581 OFFCURVE",
"-30 575 CURVE SMOOTH",
"-28 573 OFFCURVE",
"-19 575 OFFCURVE",
"-17 577 CURVE",
"-8 588 OFFCURVE",
"1 600 OFFCURVE",
"8 613 CURVE"
);
},
{
closed = 1;
nodes = (
"352 616 OFFCURVE",
"350 614 OFFCURVE",
"350 613 CURVE",
"347 602 OFFCURVE",
"350 595 OFFCURVE",
"359 589 CURVE",
"363 588 OFFCURVE",
"366 588 OFFCURVE",
"368 589 CURVE",
"372 591 OFFCURVE",
"372 597 OFFCURVE",
"372 602 CURVE",
"368 609 OFFCURVE",
"363 616 OFFCURVE",
"354 616 CURVE SMOOTH"
);
},
{
closed = 1;
nodes = (
"437 529 OFFCURVE",
"437 527 CURVE",
"446 518 OFFCURVE",
"452 513 OFFCURVE",
"462 506 CURVE",
"469 502 OFFCURVE",
"480 515 OFFCURVE",
"480 522 CURVE",
"476 526 OFFCURVE",
"475 531 OFFCURVE",
"471 533 CURVE",
"462 534 OFFCURVE",
"452 534 OFFCURVE",
"441 536 CURVE"
);
},
{
closed = 1;
nodes = (
"294 252 OFFCURVE",
"297 250 OFFCURVE",
"297 249 CURVE",
"290 247 LINE",
"285 249 LINE",
"285 252 OFFCURVE",
"286 257 OFFCURVE",
"292 252 CURVE"
);
},
{
closed = 1;
nodes = (
"79 170 LINE",
"68 163 LINE",
"73 156 LINE",
"80 163 LINE"
);
},
{
closed = 1;
nodes = (
"217 170 OFFCURVE",
"215 169 OFFCURVE",
"221 151 CURVE",
"274 162 LINE",
"253 170 OFFCURVE",
"240 170 OFFCURVE",
"228 170 CURVE SMOOTH"
);
},
{
closed = 1;
nodes = (
"221 151 LINE",
"208 144 LINE",
"221 149 LINE"
);
},
{
closed = 1;
nodes = (
"123 119 OFFCURVE",
"120 119 OFFCURVE",
"121 117 CURVE",
"120 117 OFFCURVE",
"121 114 OFFCURVE",
"123 112 CURVE",
"123 114 OFFCURVE",
"125 115 OFFCURVE",
"125 117 CURVE",
"125 117 OFFCURVE",
"123 117 OFFCURVE",
"123 119 CURVE"
);
}
);
width = 481;
},
{
associatedMasterId = "82E980F0-013F-4801-8ED7-9905E88076B0";
layerId = "626D775A-2479-4BA5-A458-1D069E2A2E2E";
width = 600;
}
);
unicode = 004E;
},
{
glyphname = O;
lastChange = "2017-01-19 14:12:18 +0000";
layers = (
{
layerId = "82E980F0-013F-4801-8ED7-9905E88076B0";
name = Regular;
paths = (
{
closed = 1;
nodes = (
"1 782 OFFCURVE",
"0 782 OFFCURVE",
"0 782 CURVE",
"0 781 OFFCURVE",
"1 779 OFFCURVE",
"1 777 CURVE",
"1 777 OFFCURVE",
"3 778 OFFCURVE",
"4 778 CURVE",
"3 779 OFFCURVE",
"3 782 OFFCURVE",
"1 784 CURVE"
);
},
{
closed = 1;
nodes = (
"104 723 OFFCURVE",
"92 723 OFFCURVE",
"82 722 CURVE SMOOTH",
"72 721 OFFCURVE",
"68 714 OFFCURVE",
"71 705 CURVE",
"76 693 OFFCURVE",
"79 681 OFFCURVE",
"75 667 CURVE SMOOTH",
"73 664 OFFCURVE",
"75 658 OFFCURVE",
"75 654 CURVE",
"79 597 OFFCURVE",
"75 540 OFFCURVE",
"75 484 CURVE SMOOTH",
"75 460 OFFCURVE",
"71 456 OFFCURVE",
"48 453 CURVE",
"46 453 OFFCURVE",
"43 451 OFFCURVE",
"42 451 CURVE",
"36 443 OFFCURVE",
"30 435 OFFCURVE",
"27 429 CURVE",
"24 422 OFFCURVE",
"20 417 OFFCURVE",
"20 412 CURVE",
"17 393 OFFCURVE",
"13 376 OFFCURVE",
"12 360 CURVE",
"1 276 OFFCURVE",
"1 191 OFFCURVE",
"6 109 CURVE SMOOTH",
"7 71 OFFCURVE",
"9 35 OFFCURVE",
"9 -2 CURVE",
"22 -9 OFFCURVE",
"36 -17 OFFCURVE",
"53 -17 CURVE SMOOTH",
"104 -17 OFFCURVE",
"156 -19 OFFCURVE",
"207 -19 CURVE SMOOTH",
"252 -19 OFFCURVE",
"295 -21 OFFCURVE",
"338 -28 CURVE SMOOTH",
"345 -29 OFFCURVE",
"353 -29 OFFCURVE",
"361 -29 CURVE SMOOTH",
"370 -29 OFFCURVE",
"377 -24 OFFCURVE",
"377 -12 CURVE",
"378 12 OFFCURVE",
"380 38 OFFCURVE",
"381 63 CURVE",
"381 75 OFFCURVE",
"384 88 OFFCURVE",
"385 100 CURVE SMOOTH",
"392 171 LINE SMOOTH",
"394 194 OFFCURVE",
"400 218 OFFCURVE",
"400 238 CURVE",
"403 271 OFFCURVE",
"405 304 OFFCURVE",
"407 336 CURVE SMOOTH",
"409 358 OFFCURVE",
"413 379 OFFCURVE",
"410 400 CURVE",
"410 401 LINE",
"410 399 OFFCURVE",
"410 396 OFFCURVE",
"409 393 CURVE SMOOTH",
"407 392 OFFCURVE",
"405 391 OFFCURVE",
"403 389 CURVE",
"403 392 OFFCURVE",
"403 393 OFFCURVE",
"401 396 CURVE",
"401 399 OFFCURVE",
"403 401 OFFCURVE",
"403 402 CURVE",
"403 411 OFFCURVE",
"403 418 OFFCURVE",
"403 427 CURVE",
"403 425 LINE",
"403 431 OFFCURVE",
"400 435 OFFCURVE",
"400 440 CURVE SMOOTH",
"400 561 LINE",
"407 559 OFFCURVE",
"410 555 OFFCURVE",
"414 552 CURVE",
"414 608 LINE SMOOTH",
"414 627 OFFCURVE",
"414 645 OFFCURVE",
"413 665 CURVE",
"413 677 OFFCURVE",
"406 685 OFFCURVE",
"393 689 CURVE SMOOTH",
"376 694 OFFCURVE",
"358 701 OFFCURVE",
"338 700 CURVE",
"329 699 OFFCURVE",
"318 700 OFFCURVE",
"309 701 CURVE SMOOTH",
"160 719 LINE",
"145 721 OFFCURVE",
"129 723 OFFCURVE",
"115 723 CURVE"
);
},
{
closed = 1;
nodes = (
"301 683 OFFCURVE",
"333 649 OFFCURVE",
"353 595 CURVE SMOOTH",
"360 579 OFFCURVE",
"361 563 OFFCURVE",
"363 548 CURVE SMOOTH",
"369 501 OFFCURVE",
"367 457 OFFCURVE",
"363 412 CURVE SMOOTH",
"357 350 OFFCURVE",
"350 290 OFFCURVE",
"335 230 CURVE SMOOTH",
"328 196 OFFCURVE",
"315 165 OFFCURVE",
"298 135 CURVE SMOOTH",
"264 75 OFFCURVE",
"197 61 OFFCURVE",
"141 90 CURVE SMOOTH",
"116 100 OFFCURVE",
"100 122 OFFCURVE",
"89 147 CURVE SMOOTH",
"79 172 OFFCURVE",
"73 202 OFFCURVE",
"71 230 CURVE SMOOTH",
"68 276 OFFCURVE",
"68 322 OFFCURVE",
"75 365 CURVE SMOOTH",
"79 391 OFFCURVE",
"80 415 OFFCURVE",
"82 441 CURVE SMOOTH",
"86 478 OFFCURVE",
"95 514 OFFCURVE",
"107 552 CURVE",
"112 575 OFFCURVE",
"121 595 OFFCURVE",
"134 615 CURVE SMOOTH",
"143 633 OFFCURVE",
"156 648 OFFCURVE",
"170 660 CURVE SMOOTH",
"188 674 OFFCURVE",
"210 684 OFFCURVE",
"236 683 CURVE"
);
},
{
closed = 1;
nodes = (
"26 595 OFFCURVE",
"23 592 OFFCURVE",
"23 592 CURVE",
"22 588 OFFCURVE",
"20 585 OFFCURVE",
"19 581 CURVE",
"27 589 LINE SMOOTH",
"29 592 OFFCURVE",
"29 593 OFFCURVE",
"26 593 CURVE"
);
},
{
closed = 1;
nodes = (
"233 568 OFFCURVE",
"225 565 OFFCURVE",
"223 557 CURVE",
"213 532 LINE",
"209 516 OFFCURVE",
"206 494 OFFCURVE",
"203 473 CURVE",
"196 418 OFFCURVE",
"188 363 OFFCURVE",
"183 309 CURVE SMOOTH",
"180 280 OFFCURVE",
"179 251 OFFCURVE",
"177 222 CURVE",
"176 215 OFFCURVE",
"179 205 OFFCURVE",
"181 198 CURVE",
"187 185 OFFCURVE",
"200 183 OFFCURVE",
"209 191 CURVE SMOOTH",
"219 199 OFFCURVE",
"223 209 OFFCURVE",
"224 221 CURVE",
"228 247 OFFCURVE",
"233 271 OFFCURVE",
"235 294 CURVE SMOOTH",
"243 363 OFFCURVE",
"252 431 OFFCURVE",
"259 499 CURVE",
"261 514 OFFCURVE",
"259 533 OFFCURVE",
"257 550 CURVE",
"257 559 OFFCURVE",
"250 566 OFFCURVE",
"242 568 CURVE SMOOTH"
);
},
{
closed = 1;
nodes = (
"224 424 OFFCURVE",
"225 424 OFFCURVE",
"225 421 CURVE",
"225 418 OFFCURVE",
"225 417 OFFCURVE",
"226 416 CURVE",
"225 417 OFFCURVE",
"225 418 OFFCURVE",
"224 420 CURVE",
"223 420 OFFCURVE",
"223 421 OFFCURVE",
"223 421 CURVE"
);
},
{
closed = 1;
nodes = (
"232 407 LINE",
"233 405 OFFCURVE",
"232 402 OFFCURVE",
"230 402 CURVE",
"226 405 LINE",
"226 409 OFFCURVE",
"226 411 OFFCURVE",
"228 414 CURVE"
);
},
{
closed = 1;
nodes = (
"245 256 OFFCURVE",
"245 256 OFFCURVE",
"252 248 CURVE",
"252 256 OFFCURVE",
"250 268 OFFCURVE",
"250 279 CURVE"
);
}
);
width = 424;
},
{
associatedMasterId = "82E980F0-013F-4801-8ED7-9905E88076B0";
layerId = "626D775A-2479-4BA5-A458-1D069E2A2E2E";
width = 600;
}
);
unicode = 004F;
},
{
glyphname = P;
lastChange = "2017-01-19 14:12:45 +0000";
layers = (
{
layerId = "82E980F0-013F-4801-8ED7-9905E88076B0";
name = Regular;
paths = (
{
closed = 1;
nodes = (
"140 711 OFFCURVE",
"121 712 OFFCURVE",
"101 712 CURVE",
"82 711 OFFCURVE",
"64 712 OFFCURVE",
"45 711 CURVE",
"35 711 OFFCURVE",
"32 706 OFFCURVE",
"30 696 CURVE",
"29 671 OFFCURVE",
"27 648 OFFCURVE",
"27 624 CURVE SMOOTH",
"19 356 LINE SMOOTH",
"17 304 OFFCURVE",
"16 254 OFFCURVE",
"16 203 CURVE SMOOTH",
"16 116 LINE",
"11 41 LINE SMOOTH",
"10 21 OFFCURVE",
"11 19 OFFCURVE",
"32 18 CURVE",
"345 8 LINE SMOOTH",
"358 8 OFFCURVE",
"374 6 OFFCURVE",
"387 6 CURVE SMOOTH",
"399 6 OFFCURVE",
"402 9 OFFCURVE",
"403 21 CURVE",
"403 55 OFFCURVE",
"405 88 OFFCURVE",
"405 122 CURVE SMOOTH",
"405 128 OFFCURVE",
"403 134 OFFCURVE",
"397 138 CURVE",
"392 144 LINE",
"381 153 OFFCURVE",
"380 154 OFFCURVE",
"384 168 CURVE",
"393 185 OFFCURVE",
"402 204 OFFCURVE",
"409 222 CURVE",
"414 250 LINE",
"417 265 OFFCURVE",
"417 282 OFFCURVE",
"418 298 CURVE SMOOTH",
"419 310 OFFCURVE",
"417 322 OFFCURVE",
"411 334 CURVE SMOOTH",
"406 342 OFFCURVE",
"402 353 OFFCURVE",
"402 364 CURVE",
"393 411 OFFCURVE",
"396 457 OFFCURVE",
"425 497 CURVE",
"430 504 OFFCURVE",
"431 510 OFFCURVE",
"433 516 CURVE",
"437 570 OFFCURVE",
"440 624 OFFCURVE",
"443 679 CURVE SMOOTH",
"444 698 OFFCURVE",
"439 705 OFFCURVE",
"421 706 CURVE",
"409 709 OFFCURVE",
"396 709 OFFCURVE",
"384 711 CURVE",
"356 711 OFFCURVE",
"330 708 OFFCURVE",
"303 709 CURVE SMOOTH",
"255 712 OFFCURVE",
"209 714 OFFCURVE",
"161 712 CURVE"
);
},
{
closed = 1;
nodes = (
"149 695 OFFCURVE",
"190 693 OFFCURVE",
"232 690 CURVE",
"246 690 OFFCURVE",
"261 687 OFFCURVE",
"274 686 CURVE",
"292 680 OFFCURVE",
"309 673 OFFCURVE",
"324 662 CURVE",
"337 652 OFFCURVE",
"349 640 OFFCURVE",
"356 624 CURVE",
"375 592 OFFCURVE",
"384 557 OFFCURVE",
"384 519 CURVE",
"386 485 OFFCURVE",
"384 450 OFFCURVE",
"375 416 CURVE",
"370 385 OFFCURVE",
"356 357 OFFCURVE",
"336 335 CURVE SMOOTH",
"317 316 OFFCURVE",
"295 303 OFFCURVE",
"268 300 CURVE",
"249 295 OFFCURVE",
"232 295 OFFCURVE",
"212 294 CURVE",
"201 292 OFFCURVE",
"199 292 OFFCURVE",
"198 279 CURVE",
"193 188 LINE",
"193 172 OFFCURVE",
"192 156 OFFCURVE",
"192 141 CURVE SMOOTH",
"192 137 OFFCURVE",
"190 132 OFFCURVE",
"190 128 CURVE",
"189 124 OFFCURVE",
"186 119 OFFCURVE",
"182 119 CURVE SMOOTH",
"173 119 OFFCURVE",
"165 118 OFFCURVE",
"157 119 CURVE",
"127 119 OFFCURVE",
"98 121 OFFCURVE",
"69 122 CURVE",
"55 124 OFFCURVE",
"52 126 OFFCURVE",
"52 140 CURVE SMOOTH",
"52 176 OFFCURVE",
"52 215 OFFCURVE",
"54 251 CURVE SMOOTH",
"55 301 OFFCURVE",
"58 348 OFFCURVE",
"61 397 CURVE",
"63 466 OFFCURVE",
"64 535 OFFCURVE",
"67 604 CURVE SMOOTH",
"71 682 LINE",
"71 693 OFFCURVE",
"74 696 OFFCURVE",
"88 696 CURVE",
"93 698 OFFCURVE",
"99 696 OFFCURVE",
"108 696 CURVE"
);
},
{
closed = 1;
nodes = (
"211 558 OFFCURVE",
"204 552 OFFCURVE",
"204 539 CURVE",
"199 442 LINE",
"199 439 OFFCURVE",
"199 438 OFFCURVE",
"201 436 CURVE",
"201 430 OFFCURVE",
"205 426 OFFCURVE",
"211 426 CURVE SMOOTH",
"230 426 OFFCURVE",
"240 435 OFFCURVE",
"246 458 CURVE",
"249 476 OFFCURVE",
"251 497 OFFCURVE",
"248 519 CURVE",
"248 524 OFFCURVE",
"246 530 OFFCURVE",
"245 536 CURVE",
"242 545 OFFCURVE",
"234 551 OFFCURVE",
"226 554 CURVE SMOOTH"
);
},
{
closed = 1;
nodes = (
"17 -31 LINE",
"7 -32 OFFCURVE",
"5 -35 OFFCURVE",
"4 -45 CURVE SMOOTH",
"2 -54 OFFCURVE",
"1 -64 OFFCURVE",
"1 -75 CURVE",
"0 -83 OFFCURVE",
"0 -91 OFFCURVE",
"0 -98 CURVE SMOOTH",
"0 -105 OFFCURVE",
"4 -110 OFFCURVE",
"11 -111 CURVE",
"24 -111 LINE",
"66 -116 OFFCURVE",
"108 -120 OFFCURVE",
"148 -122 CURVE SMOOTH",
"311 -130 LINE",
"336 -130 OFFCURVE",
"358 -132 OFFCURVE",
"383 -133 CURVE",
"402 -133 OFFCURVE",
"402 -132 OFFCURVE",
"402 -111 CURVE SMOOTH",
"402 -72 LINE SMOOTH",
"402 -45 OFFCURVE",
"402 -44 OFFCURVE",
"375 -44 CURVE",
"274 -39 LINE SMOOTH",
"193 -38 OFFCURVE",
"113 -34 OFFCURVE",
"32 -31 CURVE"
);
}
);
width = 443;
},
{
associatedMasterId = "82E980F0-013F-4801-8ED7-9905E88076B0";
layerId = "626D775A-2479-4BA5-A458-1D069E2A2E2E";
width = 600;
}
);
unicode = 0050;
},
{
glyphname = Q;
lastChange = "2017-01-19 14:13:17 +0000";
layers = (
{
layerId = "82E980F0-013F-4801-8ED7-9905E88076B0";
name = Regular;
paths = (
{
closed = 1;
nodes = (
"569 764 LINE",
"560 737 OFFCURVE",
"565 710 OFFCURVE",
"569 683 CURVE"
);
},
{
closed = 1;
nodes = (
"40 653 OFFCURVE",
"6 579 OFFCURVE",
"-6 491 CURVE SMOOTH",
"-10 458 OFFCURVE",
"-10 423 OFFCURVE",
"-9 389 CURVE SMOOTH",
"-4 296 OFFCURVE",
"21 211 OFFCURVE",
"81 136 CURVE SMOOTH",
"133 71 OFFCURVE",
"202 39 OFFCURVE",
"285 42 CURVE",
"296 42 OFFCURVE",
"308 45 OFFCURVE",
"318 48 CURVE",
"350 54 OFFCURVE",
"350 54 OFFCURVE",
"359 26 CURVE",
"359 21 OFFCURVE",
"360 17 OFFCURVE",
"362 14 CURVE SMOOTH",
"368 2 OFFCURVE",
"372 -11 OFFCURVE",
"379 -22 CURVE SMOOTH",
"405 -59 OFFCURVE",
"445 -73 OFFCURVE",
"489 -59 CURVE SMOOTH",
"538 -43 OFFCURVE",
"568 18 OFFCURVE",
"571 53 CURVE SMOOTH",
"572 69 OFFCURVE",
"559 75 OFFCURVE",
"547 81 CURVE",
"538 87 OFFCURVE",
"532 80 OFFCURVE",
"526 74 CURVE",
"523 69 OFFCURVE",
"518 66 OFFCURVE",
"514 63 CURVE",
"496 48 OFFCURVE",
"475 48 OFFCURVE",
"459 65 CURVE SMOOTH",
"451 72 OFFCURVE",
"445 81 OFFCURVE",
"439 89 CURVE SMOOTH",
"433 96 OFFCURVE",
"435 104 OFFCURVE",
"439 111 CURVE",
"442 116 OFFCURVE",
"447 120 OFFCURVE",
"450 123 CURVE",
"492 172 OFFCURVE",
"515 229 OFFCURVE",
"526 293 CURVE SMOOTH",
"538 364 OFFCURVE",
"536 432 OFFCURVE",
"521 502 CURVE",
"514 528 OFFCURVE",
"508 552 OFFCURVE",
"499 576 CURVE SMOOTH",
"480 628 OFFCURVE",
"445 670 OFFCURVE",
"403 704 CURVE SMOOTH",
"312 780 OFFCURVE",
"191 776 OFFCURVE",
"111 710 CURVE SMOOTH"
);
},
{
closed = 1;
nodes = (
"326 647 OFFCURVE",
"335 628 OFFCURVE",
"341 606 CURVE",
"354 546 OFFCURVE",
"365 486 OFFCURVE",
"368 425 CURVE",
"372 378 OFFCURVE",
"374 332 OFFCURVE",
"375 286 CURVE",
"376 269 OFFCURVE",
"375 252 OFFCURVE",
"371 229 CURVE",
"363 240 OFFCURVE",
"359 244 OFFCURVE",
"356 250 CURVE",
"344 263 OFFCURVE",
"332 275 OFFCURVE",
"315 284 CURVE",
"276 308 OFFCURVE",
"218 301 OFFCURVE",
"190 256 CURVE",
"185 250 OFFCURVE",
"181 244 OFFCURVE",
"175 234 CURVE",
"172 246 OFFCURVE",
"169 253 OFFCURVE",
"167 260 CURVE",
"157 350 OFFCURVE",
"146 441 OFFCURVE",
"151 532 CURVE SMOOTH",
"152 558 OFFCURVE",
"155 583 OFFCURVE",
"157 609 CURVE",
"160 628 OFFCURVE",
"166 644 OFFCURVE",
"175 661 CURVE SMOOTH",
"205 718 OFFCURVE",
"287 713 OFFCURVE",
"314 668 CURVE SMOOTH"
);
},
{
closed = 1;
nodes = (
"569 653 OFFCURVE",
"568 652 OFFCURVE",
"568 652 CURVE",
"566 649 OFFCURVE",
"566 646 OFFCURVE",
"566 644 CURVE",
"568 628 OFFCURVE",
"568 612 OFFCURVE",
"568 597 CURVE SMOOTH",
"568 595 OFFCURVE",
"569 595 OFFCURVE",
"569 594 CURVE",
"569 594 OFFCURVE",
"569 595 OFFCURVE",
"572 595 CURVE",
"571 615 OFFCURVE",
"571 634 OFFCURVE",
"571 653 CURVE"
);
},
{
closed = 1;
nodes = (
"572 564 LINE",
"571 564 LINE",
"571 559 OFFCURVE",
"569 555 OFFCURVE",
"569 549 CURVE",
"572 549 LINE"
);
},
{
closed = 1;
nodes = (
"572 514 OFFCURVE",
"571 513 OFFCURVE",
"571 510 CURVE",
"575 431 LINE SMOOTH",
"577 398 OFFCURVE",
"578 364 OFFCURVE",
"581 329 CURVE",
"581 325 OFFCURVE",
"583 322 OFFCURVE",
"584 317 CURVE",
"584 352 LINE SMOOTH",
"584 392 OFFCURVE",
"583 432 OFFCURVE",
"581 471 CURVE",
"580 486 OFFCURVE",
"578 502 OFFCURVE",
"572 519 CURVE"
);
},
{
closed = 1;
nodes = (
"584 313 OFFCURVE",
"583 308 OFFCURVE",
"583 304 CURVE SMOOTH",
"583 292 LINE",
"586 299 OFFCURVE",
"587 308 OFFCURVE",
"584 317 CURVE"
);
},
{
closed = 1;
nodes = (
"586 266 OFFCURVE",
"584 265 OFFCURVE",
"584 263 CURVE SMOOTH",
"584 254 LINE",
"587 254 LINE",
"587 263 LINE SMOOTH",
"587 265 OFFCURVE",
"587 266 OFFCURVE",
"586 268 CURVE"
);
},
{
closed = 1;
nodes = (
"296 226 OFFCURVE",
"303 220 OFFCURVE",
"309 210 CURVE",
"314 204 OFFCURVE",
"317 199 OFFCURVE",
"318 193 CURVE",
"323 183 OFFCURVE",
"326 172 OFFCURVE",
"327 166 CURVE",
"330 157 OFFCURVE",
"330 154 OFFCURVE",
"332 151 CURVE",
"336 125 OFFCURVE",
"332 116 OFFCURVE",
"305 105 CURVE SMOOTH",
"288 99 OFFCURVE",
"273 96 OFFCURVE",
"255 101 CURVE",
"239 104 OFFCURVE",
"226 113 OFFCURVE",
"218 129 CURVE",
"206 151 OFFCURVE",
"203 175 OFFCURVE",
"211 201 CURVE SMOOTH",
"221 234 OFFCURVE",
"254 247 OFFCURVE",
"285 232 CURVE"
);
},
{
closed = 1;
nodes = (
"584 210 OFFCURVE",
"586 193 OFFCURVE",
"592 178 CURVE",
"593 193 OFFCURVE",
"590 210 OFFCURVE",
"587 231 CURVE"
);
},
{
closed = 1;
nodes = (
"590 163 OFFCURVE",
"590 148 OFFCURVE",
"590 133 CURVE SMOOTH",
"590 111 OFFCURVE",
"592 89 OFFCURVE",
"593 65 CURVE SMOOTH",
"595 47 OFFCURVE",
"596 27 OFFCURVE",
"599 8 CURVE",
"599 5 OFFCURVE",
"601 2 OFFCURVE",
"602 -2 CURVE",
"604 2 OFFCURVE",
"605 4 OFFCURVE",
"605 6 CURVE",
"599 48 LINE",
"599 75 OFFCURVE",
"598 102 OFFCURVE",
"598 130 CURVE",
"596 145 OFFCURVE",
"598 162 OFFCURVE",
"592 178 CURVE"
);
}
);
width = 595;
},
{
associatedMasterId = "82E980F0-013F-4801-8ED7-9905E88076B0";
layerId = "626D775A-2479-4BA5-A458-1D069E2A2E2E";
width = 600;
}
);
unicode = 0051;
},
{
glyphname = R;
lastChange = "2017-01-19 14:14:11 +0000";
layers = (
{
layerId = "82E980F0-013F-4801-8ED7-9905E88076B0";
name = Regular;
paths = (
{
closed = 1;
nodes = (
"-3 751 OFFCURVE",
"0 750 OFFCURVE",
"0 721 CURVE SMOOTH",
"0 716 OFFCURVE",
"0 711 OFFCURVE",
"2 706 CURVE",
"3 704 OFFCURVE",
"5 700 OFFCURVE",
"8 698 CURVE",
"27 693 LINE",
"42 687 OFFCURVE",
"55 676 OFFCURVE",
"64 661 CURVE",
"74 641 OFFCURVE",
"79 621 OFFCURVE",
"81 600 CURVE",
"81 579 OFFCURVE",
"82 558 OFFCURVE",
"82 537 CURVE SMOOTH",
"92 116 LINE SMOOTH",
"92 106 OFFCURVE",
"92 96 OFFCURVE",
"90 85 CURVE",
"90 79 OFFCURVE",
"87 75 OFFCURVE",
"81 75 CURVE",
"67 74 OFFCURVE",
"52 72 OFFCURVE",
"39 72 CURVE",
"26 70 OFFCURVE",
"24 67 OFFCURVE",
"22 54 CURVE",
"19 9 OFFCURVE",
"14 16 OFFCURVE",
"59 14 CURVE SMOOTH",
"137 11 OFFCURVE",
"216 9 OFFCURVE",
"294 9 CURVE",
"339 7 OFFCURVE",
"333 4 OFFCURVE",
"335 49 CURVE",
"335 52 LINE SMOOTH",
"335 59 OFFCURVE",
"333 62 OFFCURVE",
"325 62 CURVE",
"317 64 OFFCURVE",
"309 64 OFFCURVE",
"301 66 CURVE",
"293 66 OFFCURVE",
"286 67 OFFCURVE",
"277 67 CURVE",
"261 70 OFFCURVE",
"251 80 OFFCURVE",
"248 98 CURVE",
"243 133 LINE",
"243 170 OFFCURVE",
"241 211 OFFCURVE",
"240 249 CURVE",
"240 326 LINE SMOOTH",
"240 338 OFFCURVE",
"243 341 OFFCURVE",
"256 341 CURVE SMOOTH",
"279 341 OFFCURVE",
"303 336 OFFCURVE",
"324 324 CURVE SMOOTH",
"331 321 OFFCURVE",
"339 314 OFFCURVE",
"346 307 CURVE SMOOTH",
"364 289 OFFCURVE",
"378 267 OFFCURVE",
"383 241 CURVE",
"389 214 OFFCURVE",
"393 186 OFFCURVE",
"399 157 CURVE SMOOTH",
"404 133 OFFCURVE",
"411 106 OFFCURVE",
"419 80 CURVE SMOOTH",
"430 49 OFFCURVE",
"451 24 OFFCURVE",
"483 12 CURVE SMOOTH",
"521 -2 OFFCURVE",
"561 -2 OFFCURVE",
"601 1 CURVE",
"606 1 OFFCURVE",
"611 4 OFFCURVE",
"611 11 CURVE",
"613 22 OFFCURVE",
"613 34 OFFCURVE",
"613 46 CURVE SMOOTH",
"613 51 OFFCURVE",
"611 54 OFFCURVE",
"606 56 CURVE",
"602 57 OFFCURVE",
"599 57 OFFCURVE",
"596 59 CURVE",
"581 62 OFFCURVE",
"571 72 OFFCURVE",
"566 85 CURVE",
"561 107 LINE",
"551 164 LINE SMOOTH",
"546 196 OFFCURVE",
"539 226 OFFCURVE",
"526 256 CURVE",
"509 297 OFFCURVE",
"483 329 OFFCURVE",
"444 349 CURVE SMOOTH",
"406 368 LINE",
"404 370 OFFCURVE",
"402 371 OFFCURVE",
"402 374 CURVE",
"402 374 OFFCURVE",
"404 378 OFFCURVE",
"406 378 CURVE",
"430 387 LINE",
"457 397 OFFCURVE",
"481 411 OFFCURVE",
"504 431 CURVE SMOOTH",
"523 446 OFFCURVE",
"538 466 OFFCURVE",
"549 489 CURVE SMOOTH",
"578 545 OFFCURVE",
"568 634 OFFCURVE",
"501 682 CURVE SMOOTH",
"489 690 OFFCURVE",
"476 698 OFFCURVE",
"464 704 CURVE",
"438 716 OFFCURVE",
"411 724 OFFCURVE",
"383 730 CURVE",
"348 738 OFFCURVE",
"311 741 OFFCURVE",
"275 743 CURVE SMOOTH",
"192 746 OFFCURVE",
"111 748 OFFCURVE",
"29 751 CURVE"
);
},
{
closed = 1;
nodes = (
"262 690 LINE",
"289 688 OFFCURVE",
"314 679 OFFCURVE",
"338 666 CURVE",
"370 650 OFFCURVE",
"393 624 OFFCURVE",
"401 587 CURVE SMOOTH",
"409 555 OFFCURVE",
"409 521 OFFCURVE",
"399 487 CURVE",
"393 469 OFFCURVE",
"381 450 OFFCURVE",
"361 434 CURVE",
"354 431 OFFCURVE",
"343 423 OFFCURVE",
"329 418 CURVE",
"306 408 OFFCURVE",
"279 404 OFFCURVE",
"253 404 CURVE SMOOTH",
"241 404 OFFCURVE",
"237 408 OFFCURVE",
"237 421 CURVE",
"235 426 OFFCURVE",
"235 431 OFFCURVE",
"235 437 CURVE",
"230 671 LINE",
"230 679 LINE SMOOTH",
"230 687 OFFCURVE",
"235 690 OFFCURVE",
"243 690 CURVE SMOOTH"
);
}
);
width = 623;
},
{
associatedMasterId = "82E980F0-013F-4801-8ED7-9905E88076B0";
layerId = "626D775A-2479-4BA5-A458-1D069E2A2E2E";
width = 600;
}
);
unicode = 0052;
},
{
glyphname = S;
lastChange = "2017-01-19 14:14:45 +0000";
layers = (
{
layerId = "82E980F0-013F-4801-8ED7-9905E88076B0";
name = Regular;
paths = (
{
closed = 1;
nodes = (
"304 743 OFFCURVE",
"280 742 OFFCURVE",
"255 742 CURVE SMOOTH",
"235 740 OFFCURVE",
"215 738 OFFCURVE",
"194 733 CURVE SMOOTH",
"177 731 OFFCURVE",
"157 724 OFFCURVE",
"139 720 CURVE",
"138 720 OFFCURVE",
"136 718 OFFCURVE",
"135 718 CURVE",
"125 711 OFFCURVE",
"116 706 OFFCURVE",
"106 699 CURVE",
"88 688 OFFCURVE",
"76 673 OFFCURVE",
"63 659 CURVE SMOOTH",
"56 649 OFFCURVE",
"49 639 OFFCURVE",
"45 630 CURVE",
"41 621 OFFCURVE",
"37 613 OFFCURVE",
"36 605 CURVE",
"31 597 OFFCURVE",
"27 586 OFFCURVE",
"27 576 CURVE SMOOTH",
"27 545 OFFCURVE",
"27 514 OFFCURVE",
"33 483 CURVE SMOOTH",
"37 452 OFFCURVE",
"47 421 OFFCURVE",
"67 395 CURVE SMOOTH",
"78 380 OFFCURVE",
"92 367 OFFCURVE",
"109 356 CURVE SMOOTH",
"141 335 OFFCURVE",
"177 323 OFFCURVE",
"212 311 CURVE SMOOTH",
"265 293 LINE",
"272 290 OFFCURVE",
"277 287 OFFCURVE",
"283 283 CURVE SMOOTH",
"295 273 OFFCURVE",
"305 264 OFFCURVE",
"316 254 CURVE",
"326 246 OFFCURVE",
"331 235 OFFCURVE",
"335 224 CURVE",
"337 214 OFFCURVE",
"340 204 OFFCURVE",
"341 193 CURVE",
"346 167 OFFCURVE",
"346 142 OFFCURVE",
"337 117 CURVE SMOOTH",
"330 95 OFFCURVE",
"316 80 OFFCURVE",
"294 72 CURVE SMOOTH",
"275 66 OFFCURVE",
"255 66 OFFCURVE",
"236 70 CURVE SMOOTH",
"230 70 OFFCURVE",
"223 73 OFFCURVE",
"218 76 CURVE",
"204 84 OFFCURVE",
"192 95 OFFCURVE",
"183 109 CURVE",
"175 123 OFFCURVE",
"165 138 OFFCURVE",
"163 156 CURVE",
"149 226 LINE",
"145 244 LINE",
"143 246 OFFCURVE",
"141 247 OFFCURVE",
"139 248 CURVE SMOOTH",
"136 250 OFFCURVE",
"132 248 OFFCURVE",
"130 248 CURVE",
"109 246 OFFCURVE",
"89 246 OFFCURVE",
"70 243 CURVE",
"69 243 OFFCURVE",
"67 243 OFFCURVE",
"67 242 CURVE",
"65 242 OFFCURVE",
"63 239 OFFCURVE",
"63 236 CURVE SMOOTH",
"63 233 OFFCURVE",
"65 230 OFFCURVE",
"65 228 CURVE",
"72 166 LINE",
"78 91 LINE",
"81 72 OFFCURVE",
"83 54 OFFCURVE",
"84 36 CURVE",
"84 29 OFFCURVE",
"85 22 OFFCURVE",
"87 16 CURVE",
"88 8 OFFCURVE",
"91 5 OFFCURVE",
"99 7 CURVE",
"105 8 OFFCURVE",
"110 8 OFFCURVE",
"116 8 CURVE",
"143 12 OFFCURVE",
"171 16 OFFCURVE",
"200 15 CURVE",
"204 15 OFFCURVE",
"210 14 OFFCURVE",
"214 14 CURVE",
"222 15 OFFCURVE",
"232 14 OFFCURVE",
"240 16 CURVE",
"255 18 OFFCURVE",
"272 22 OFFCURVE",
"288 26 CURVE",
"359 38 LINE",
"409 45 LINE",
"414 47 OFFCURVE",
"420 49 OFFCURVE",
"425 52 CURVE SMOOTH",
"442 66 OFFCURVE",
"460 80 OFFCURVE",
"471 98 CURVE",
"485 116 OFFCURVE",
"494 135 OFFCURVE",
"494 159 CURVE SMOOTH",
"494 172 OFFCURVE",
"494 186 OFFCURVE",
"496 200 CURVE",
"497 226 OFFCURVE",
"497 254 OFFCURVE",
"497 280 CURVE SMOOTH",
"497 308 OFFCURVE",
"489 331 OFFCURVE",
"471 352 CURVE",
"461 366 OFFCURVE",
"450 377 OFFCURVE",
"439 389 CURVE SMOOTH",
"435 392 OFFCURVE",
"429 396 OFFCURVE",
"425 400 CURVE",
"403 411 LINE",
"391 417 OFFCURVE",
"380 423 OFFCURVE",
"367 428 CURVE SMOOTH",
"352 434 OFFCURVE",
"337 440 OFFCURVE",
"319 445 CURVE",
"313 447 OFFCURVE",
"308 452 OFFCURVE",
"305 457 CURVE",
"290 454 OFFCURVE",
"277 460 OFFCURVE",
"265 465 CURVE SMOOTH",
"261 468 OFFCURVE",
"255 470 OFFCURVE",
"251 472 CURVE SMOOTH",
"235 481 OFFCURVE",
"222 492 OFFCURVE",
"210 504 CURVE",
"203 512 OFFCURVE",
"199 522 OFFCURVE",
"192 530 CURVE",
"185 543 OFFCURVE",
"182 555 OFFCURVE",
"181 569 CURVE SMOOTH",
"179 586 OFFCURVE",
"181 602 OFFCURVE",
"182 617 CURVE",
"188 644 OFFCURVE",
"203 663 OFFCURVE",
"226 675 CURVE SMOOTH",
"241 682 OFFCURVE",
"257 685 OFFCURVE",
"275 685 CURVE SMOOTH",
"290 685 OFFCURVE",
"304 680 OFFCURVE",
"315 668 CURVE",
"329 657 OFFCURVE",
"340 641 OFFCURVE",
"346 623 CURVE",
"355 602 OFFCURVE",
"360 579 OFFCURVE",
"364 557 CURVE SMOOTH",
"366 550 OFFCURVE",
"367 544 OFFCURVE",
"369 536 CURVE",
"373 534 OFFCURVE",
"374 534 OFFCURVE",
"375 534 CURVE",
"392 534 OFFCURVE",
"410 534 OFFCURVE",
"428 536 CURVE",
"431 536 OFFCURVE",
"434 537 OFFCURVE",
"438 539 CURVE",
"443 541 OFFCURVE",
"447 545 OFFCURVE",
"446 552 CURVE SMOOTH",
"445 559 OFFCURVE",
"442 566 OFFCURVE",
"442 573 CURVE",
"439 588 OFFCURVE",
"438 604 OFFCURVE",
"436 617 CURVE",
"434 633 OFFCURVE",
"429 648 OFFCURVE",
"432 660 CURVE",
"439 677 OFFCURVE",
"427 689 OFFCURVE",
"429 704 CURVE",
"429 713 LINE SMOOTH",
"429 714 OFFCURVE",
"429 717 OFFCURVE",
"428 720 CURVE",
"428 722 OFFCURVE",
"425 725 OFFCURVE",
"421 728 CURVE",
"420 728 OFFCURVE",
"418 729 OFFCURVE",
"418 729 CURVE",
"403 733 OFFCURVE",
"388 733 OFFCURVE",
"375 742 CURVE",
"373 742 LINE",
"358 740 OFFCURVE",
"342 743 OFFCURVE",
"327 743 CURVE SMOOTH"
);
},
{
closed = 1;
nodes = (
"474 668 OFFCURVE",
"474 667 OFFCURVE",
"475 666 CURVE",
"475 664 OFFCURVE",
"478 664 OFFCURVE",
"479 664 CURVE SMOOTH",
"480 664 OFFCURVE",
"480 668 OFFCURVE",
"479 668 CURVE SMOOTH",
"478 670 OFFCURVE",
"475 670 OFFCURVE",
"472 671 CURVE"
);
},
{
closed = 1;
nodes = (
"-14 642 OFFCURVE",
"-16 642 CURVE",
"-17 641 LINE",
"-18 634 OFFCURVE",
"-20 627 OFFCURVE",
"-18 617 CURVE",
"-17 617 LINE",
"-16 617 OFFCURVE",
"-14 617 OFFCURVE",
"-14 617 CURVE",
"-13 626 OFFCURVE",
"-11 634 OFFCURVE",
"-14 642 CURVE"
);
},
{
closed = 1;
nodes = (
"486 631 OFFCURVE",
"485 633 OFFCURVE",
"483 631 CURVE",
"482 631 OFFCURVE",
"482 628 OFFCURVE",
"485 627 CURVE",
"489 627 LINE",
"489 628 OFFCURVE",
"487 630 OFFCURVE",
"487 631 CURVE"
);
},
{
closed = 1;
nodes = (
"-79 523 OFFCURVE",
"-80 522 OFFCURVE",
"-80 522 CURVE",
"-79 521 OFFCURVE",
"-78 522 OFFCURVE",
"-76 522 CURVE",
"-78 522 OFFCURVE",
"-78 523 OFFCURVE",
"-78 523 CURVE SMOOTH"
);
},
{
closed = 1;
nodes = (
"-17 512 LINE",
"-17 505 LINE",
"-16 507 OFFCURVE",
"-14 508 OFFCURVE",
"-14 510 CURVE"
);
},
{
closed = 1;
nodes = (
"-17 504 OFFCURVE",
"-17 503 OFFCURVE",
"-17 501 CURVE SMOOTH",
"-17 500 OFFCURVE",
"-17 500 OFFCURVE",
"-16 499 CURVE",
"-16 500 OFFCURVE",
"-14 501 OFFCURVE",
"-14 501 CURVE",
"-14 504 OFFCURVE",
"-16 504 OFFCURVE",
"-16 505 CURVE"
);
},
{
closed = 1;
nodes = (
"-14 468 OFFCURVE",
"-14 467 OFFCURVE",
"-14 467 CURVE",
"-16 465 LINE",
"-13 453 LINE",
"-9 456 OFFCURVE",
"-10 463 OFFCURVE",
"-14 467 CURVE"
);
},
{
closed = 1;
nodes = (
"-10 427 OFFCURVE",
"-11 425 OFFCURVE",
"-11 425 CURVE",
"-11 420 OFFCURVE",
"-10 414 OFFCURVE",
"-10 410 CURVE",
"-6 413 OFFCURVE",
"-4 418 OFFCURVE",
"-6 424 CURVE",
"-6 425 OFFCURVE",
"-9 427 OFFCURVE",
"-10 428 CURVE"
);
},
{
closed = 1;
nodes = (
"-10 403 OFFCURVE",
"-9 398 OFFCURVE",
"-9 392 CURVE SMOOTH",
"-9 391 OFFCURVE",
"-6 391 OFFCURVE",
"-6 389 CURVE",
"-4 402 OFFCURVE",
"-4 402 OFFCURVE",
"-10 410 CURVE"
);
},
{
closed = 1;
nodes = (
"-4 358 OFFCURVE",
"-3 352 OFFCURVE",
"5 341 CURVE",
"8 355 OFFCURVE",
"1 364 OFFCURVE",
"-4 374 CURVE"
);
},
{
closed = 1;
nodes = (
"11 300 LINE",
"13 294 LINE",
"13 294 OFFCURVE",
"15 293 OFFCURVE",
"15 291 CURVE",
"18 295 OFFCURVE",
"18 298 OFFCURVE",
"16 302 CURVE",
"16 308 OFFCURVE",
"13 315 OFFCURVE",
"7 322 CURVE"
);
},
{
closed = 1;
nodes = (
"16 283 LINE",
"16 283 OFFCURVE",
"18 284 OFFCURVE",
"18 286 CURVE",
"16 287 OFFCURVE",
"16 289 OFFCURVE",
"16 291 CURVE"
);
},
{
closed = 1;
nodes = (
"26 172 OFFCURVE",
"30 150 OFFCURVE",
"36 130 CURVE",
"37 125 OFFCURVE",
"38 123 OFFCURVE",
"40 121 CURVE",
"40 137 OFFCURVE",
"38 153 OFFCURVE",
"37 170 CURVE SMOOTH",
"36 177 OFFCURVE",
"34 184 OFFCURVE",
"31 192 CURVE",
"30 193 OFFCURVE",
"29 193 OFFCURVE",
"26 195 CURVE"
);
},
{
closed = 1;
nodes = (
"37 117 OFFCURVE",
"37 113 OFFCURVE",
"37 109 CURVE SMOOTH",
"37 105 OFFCURVE",
"38 101 OFFCURVE",
"38 98 CURVE",
"44 102 OFFCURVE",
"44 108 OFFCURVE",
"42 113 CURVE",
"41 116 OFFCURVE",
"40 119 OFFCURVE",
"40 121 CURVE"
);
},
{
closed = 1;
nodes = (
"42 83 LINE",
"45 83 LINE",
"45 85 OFFCURVE",
"47 88 OFFCURVE",
"47 91 CURVE SMOOTH",
"47 96 OFFCURVE",
"42 98 OFFCURVE",
"38 98 CURVE"
);
}
);
width = 497;
},
{
associatedMasterId = "82E980F0-013F-4801-8ED7-9905E88076B0";
layerId = "626D775A-2479-4BA5-A458-1D069E2A2E2E";
width = 600;
}
);
unicode = 0053;
},
{
glyphname = T;
lastChange = "2017-01-19 14:15:13 +0000";
layers = (
{
layerId = "82E980F0-013F-4801-8ED7-9905E88076B0";
name = Regular;
paths = (
{
closed = 1;
nodes = (
"326 764 LINE",
"237 760 LINE SMOOTH",
"187 759 OFFCURVE",
"139 757 OFFCURVE",
"89 757 CURVE SMOOTH",
"64 757 LINE",
"53 756 OFFCURVE",
"38 756 OFFCURVE",
"24 757 CURVE",
"20 757 LINE",
"17 756 OFFCURVE",
"15 755 OFFCURVE",
"15 752 CURVE SMOOTH",
"15 695 LINE",
"16 667 LINE",
"16 658 OFFCURVE",
"16 648 OFFCURVE",
"17 637 CURVE SMOOTH",
"19 624 OFFCURVE",
"17 624 OFFCURVE",
"29 624 CURVE SMOOTH",
"41 624 LINE",
"58 625 OFFCURVE",
"76 625 OFFCURVE",
"94 625 CURVE",
"97 627 OFFCURVE",
"101 625 OFFCURVE",
"103 625 CURVE SMOOTH",
"105 625 OFFCURVE",
"106 624 OFFCURVE",
"107 621 CURVE",
"107 616 OFFCURVE",
"107 614 OFFCURVE",
"109 608 CURVE",
"109 567 OFFCURVE",
"110 526 OFFCURVE",
"111 486 CURVE SMOOTH",
"113 455 OFFCURVE",
"113 424 OFFCURVE",
"114 395 CURVE",
"114 360 OFFCURVE",
"115 326 OFFCURVE",
"117 290 CURVE SMOOTH",
"118 260 OFFCURVE",
"118 229 OFFCURVE",
"119 198 CURVE",
"119 162 OFFCURVE",
"120 126 OFFCURVE",
"122 88 CURVE SMOOTH",
"122 48 LINE SMOOTH",
"122 43 OFFCURVE",
"123 41 OFFCURVE",
"130 41 CURVE SMOOTH",
"171 41 LINE",
"203 43 OFFCURVE",
"234 43 OFFCURVE",
"265 44 CURVE",
"273 44 LINE",
"275 45 OFFCURVE",
"277 47 OFFCURVE",
"277 48 CURVE SMOOTH",
"277 100 LINE",
"276 126 OFFCURVE",
"275 150 OFFCURVE",
"275 176 CURVE",
"273 198 OFFCURVE",
"273 222 OFFCURVE",
"272 244 CURVE",
"272 273 OFFCURVE",
"271 300 OFFCURVE",
"271 327 CURVE SMOOTH",
"271 350 LINE",
"267 442 LINE",
"267 488 LINE",
"265 514 OFFCURVE",
"265 538 OFFCURVE",
"264 564 CURVE",
"264 581 OFFCURVE",
"263 599 OFFCURVE",
"263 616 CURVE SMOOTH",
"263 627 LINE SMOOTH",
"263 628 OFFCURVE",
"264 629 OFFCURVE",
"267 631 CURVE",
"273 631 LINE",
"296 632 OFFCURVE",
"316 632 OFFCURVE",
"339 633 CURVE",
"348 633 LINE SMOOTH",
"350 633 OFFCURVE",
"352 636 OFFCURVE",
"352 638 CURVE SMOOTH",
"352 649 LINE",
"350 678 OFFCURVE",
"350 709 OFFCURVE",
"349 739 CURVE",
"349 759 LINE SMOOTH",
"349 761 OFFCURVE",
"348 764 OFFCURVE",
"345 764 CURVE SMOOTH"
);
},
{
closed = 1;
nodes = (
"345 586 LINE",
"353 594 OFFCURVE",
"349 603 OFFCURVE",
"349 612 CURVE"
);
},
{
closed = 1;
nodes = (
"365 533 LINE",
"366 529 LINE",
"367 531 LINE"
);
},
{
closed = 1;
nodes = (
"369 508 LINE",
"367 506 OFFCURVE",
"366 506 OFFCURVE",
"366 505 CURVE SMOOTH",
"366 504 OFFCURVE",
"366 503 OFFCURVE",
"367 503 CURVE SMOOTH",
"370 503 LINE"
);
},
{
closed = 1;
nodes = (
"373 453 OFFCURVE",
"370 438 OFFCURVE",
"384 431 CURVE",
"380 444 OFFCURVE",
"383 457 OFFCURVE",
"367 471 CURVE"
);
},
{
closed = 1;
nodes = (
"384 423 OFFCURVE",
"379 418 OFFCURVE",
"386 407 CURVE",
"384 418 OFFCURVE",
"384 423 OFFCURVE",
"384 429 CURVE"
);
},
{
closed = 1;
nodes = (
"380 364 OFFCURVE",
"377 356 OFFCURVE",
"383 347 CURVE",
"386 351 OFFCURVE",
"387 355 OFFCURVE",
"387 359 CURVE",
"388 363 OFFCURVE",
"391 368 OFFCURVE",
"384 372 CURVE"
);
},
{
closed = 1;
nodes = (
"379 295 OFFCURVE",
"375 278 OFFCURVE",
"377 260 CURVE SMOOTH",
"379 223 OFFCURVE",
"374 185 OFFCURVE",
"370 148 CURVE",
"370 147 OFFCURVE",
"373 146 OFFCURVE",
"373 143 CURVE",
"387 220 OFFCURVE",
"390 260 OFFCURVE",
"386 320 CURVE"
);
},
{
closed = 1;
nodes = (
"-28 309 OFFCURVE",
"-30 308 CURVE",
"-28 307 OFFCURVE",
"-27 304 OFFCURVE",
"-25 303 CURVE",
"-21 303 LINE",
"-22 305 OFFCURVE",
"-22 308 OFFCURVE",
"-25 310 CURVE"
);
},
{
closed = 1;
nodes = (
"370 90 OFFCURVE",
"366 74 OFFCURVE",
"365 57 CURVE",
"365 41 OFFCURVE",
"353 26 OFFCURVE",
"361 7 CURVE",
"370 18 OFFCURVE",
"366 31 OFFCURVE",
"367 41 CURVE",
"370 53 OFFCURVE",
"371 65 OFFCURVE",
"373 78 CURVE SMOOTH",
"374 88 OFFCURVE",
"378 96 OFFCURVE",
"373 109 CURVE"
);
},
{
closed = 1;
nodes = (
"109 66 LINE",
"110 65 OFFCURVE",
"110 64 OFFCURVE",
"110 64 CURVE",
"117 66 LINE",
"117 67 OFFCURVE",
"115 69 OFFCURVE",
"115 69 CURVE"
);
}
);
width = 339;
},
{
associatedMasterId = "82E980F0-013F-4801-8ED7-9905E88076B0";
layerId = "626D775A-2479-4BA5-A458-1D069E2A2E2E";
width = 600;
}
);
unicode = 0054;
},
{
glyphname = U;
lastChange = "2017-01-19 14:15:45 +0000";
layers = (
{
layerId = "82E980F0-013F-4801-8ED7-9905E88076B0";
name = Regular;
paths = (
{
closed = 1;
nodes = (
"121 783 OFFCURVE",
"119 783 OFFCURVE",
"115 780 CURVE",
"100 767 LINE",
"103 764 OFFCURVE",
"110 765 OFFCURVE",
"107 758 CURVE",
"107 758 OFFCURVE",
"109 757 OFFCURVE",
"110 757 CURVE",
"114 758 OFFCURVE",
"127 773 OFFCURVE",
"129 777 CURVE",
"129 778 OFFCURVE",
"128 782 OFFCURVE",
"125 782 CURVE"
);
},
{
closed = 1;
nodes = (
"176 778 OFFCURVE",
"173 776 OFFCURVE",
"170 776 CURVE SMOOTH",
"166 776 OFFCURVE",
"164 778 OFFCURVE",
"161 777 CURVE SMOOTH",
"161 777 OFFCURVE",
"161 775 OFFCURVE",
"159 774 CURVE",
"162 772 OFFCURVE",
"166 768 OFFCURVE",
"171 769 CURVE",
"174 769 OFFCURVE",
"178 772 OFFCURVE",
"180 778 CURVE"
);
},
{
closed = 1;
nodes = (
"94 768 LINE",
"93 768 OFFCURVE",
"94 767 OFFCURVE",
"92 765 CURVE",
"96 765 OFFCURVE",
"98 765 OFFCURVE",
"100 767 CURVE"
);
},
{
closed = 1;
nodes = (
"60 754 OFFCURVE",
"57 752 OFFCURVE",
"53 752 CURVE",
"42 750 OFFCURVE",
"33 751 OFFCURVE",
"22 752 CURVE",
"5 752 OFFCURVE",
"3 752 OFFCURVE",
"2 735 CURVE",
"0 720 OFFCURVE",
"-1 706 OFFCURVE",
"-1 691 CURVE SMOOTH",
"-2 668 OFFCURVE",
"-2 645 OFFCURVE",
"-3 622 CURVE",
"-3 619 OFFCURVE",
"-3 616 OFFCURVE",
"-1 612 CURVE",
"29 610 LINE",
"34 609 OFFCURVE",
"36 606 OFFCURVE",
"36 602 CURVE SMOOTH",
"36 599 OFFCURVE",
"35 596 OFFCURVE",
"35 595 CURVE",
"34 554 OFFCURVE",
"32 513 OFFCURVE",
"32 473 CURVE SMOOTH",
"31 457 OFFCURVE",
"31 442 OFFCURVE",
"29 425 CURVE SMOOTH",
"27 406 OFFCURVE",
"27 386 OFFCURVE",
"28 365 CURVE SMOOTH",
"29 354 LINE",
"24 311 OFFCURVE",
"23 266 OFFCURVE",
"25 221 CURVE SMOOTH",
"26 201 OFFCURVE",
"30 182 OFFCURVE",
"37 163 CURVE SMOOTH",
"42 147 OFFCURVE",
"48 131 OFFCURVE",
"60 116 CURVE SMOOTH",
"77 94 OFFCURVE",
"99 74 OFFCURVE",
"127 64 CURVE",
"153 52 OFFCURVE",
"181 45 OFFCURVE",
"208 41 CURVE SMOOTH",
"216 40 OFFCURVE",
"223 39 OFFCURVE",
"230 35 CURVE",
"236 32 OFFCURVE",
"241 32 OFFCURVE",
"246 32 CURVE",
"270 36 OFFCURVE",
"270 36 OFFCURVE",
"295 30 CURVE",
"295 29 OFFCURVE",
"298 30 OFFCURVE",
"298 31 CURVE",
"304 36 OFFCURVE",
"310 35 OFFCURVE",
"317 35 CURVE SMOOTH",
"339 37 OFFCURVE",
"361 41 OFFCURVE",
"383 46 CURVE",
"403 50 OFFCURVE",
"420 57 OFFCURVE",
"439 67 CURVE SMOOTH",
"469 81 OFFCURVE",
"490 105 OFFCURVE",
"504 135 CURVE",
"515 155 OFFCURVE",
"521 177 OFFCURVE",
"524 200 CURVE SMOOTH",
"527 226 OFFCURVE",
"529 253 OFFCURVE",
"530 280 CURVE SMOOTH",
"530 316 OFFCURVE",
"534 352 OFFCURVE",
"537 389 CURVE",
"537 390 OFFCURVE",
"540 390 OFFCURVE",
"541 391 CURVE",
"539 395 OFFCURVE",
"536 399 OFFCURVE",
"537 405 CURVE",
"536 421 LINE",
"537 432 OFFCURVE",
"537 443 OFFCURVE",
"537 454 CURVE",
"537 461 OFFCURVE",
"537 468 OFFCURVE",
"537 474 CURVE",
"539 491 OFFCURVE",
"541 509 OFFCURVE",
"541 527 CURVE SMOOTH",
"543 542 OFFCURVE",
"542 557 OFFCURVE",
"542 572 CURVE",
"543 577 OFFCURVE",
"542 584 OFFCURVE",
"546 590 CURVE",
"553 590 OFFCURVE",
"560 592 OFFCURVE",
"567 589 CURVE",
"574 585 OFFCURVE",
"583 592 OFFCURVE",
"585 598 CURVE",
"586 603 OFFCURVE",
"585 607 OFFCURVE",
"585 611 CURVE",
"588 711 LINE SMOOTH",
"588 730 OFFCURVE",
"588 730 OFFCURVE",
"567 732 CURVE",
"544 733 OFFCURVE",
"522 734 OFFCURVE",
"499 735 CURVE SMOOTH",
"480 735 OFFCURVE",
"459 737 OFFCURVE",
"440 737 CURVE SMOOTH",
"415 736 OFFCURVE",
"391 738 OFFCURVE",
"367 740 CURVE SMOOTH",
"326 742 LINE",
"322 742 OFFCURVE",
"318 738 OFFCURVE",
"318 734 CURVE",
"318 725 OFFCURVE",
"316 715 OFFCURVE",
"317 706 CURVE",
"316 643 LINE",
"317 633 OFFCURVE",
"316 625 OFFCURVE",
"317 616 CURVE SMOOTH",
"317 613 OFFCURVE",
"318 609 OFFCURVE",
"320 606 CURVE",
"326 606 OFFCURVE",
"332 603 OFFCURVE",
"339 603 CURVE SMOOTH",
"363 605 OFFCURVE",
"359 601 OFFCURVE",
"359 580 CURVE",
"360 573 LINE",
"356 505 LINE",
"353 414 LINE",
"351 405 OFFCURVE",
"348 399 OFFCURVE",
"344 391 CURVE",
"341 388 OFFCURVE",
"337 391 OFFCURVE",
"337 385 CURVE",
"349 377 OFFCURVE",
"351 374 OFFCURVE",
"350 359 CURVE",
"350 356 LINE",
"350 332 OFFCURVE",
"349 308 OFFCURVE",
"348 285 CURVE",
"348 264 OFFCURVE",
"347 245 OFFCURVE",
"343 226 CURVE",
"338 207 OFFCURVE",
"316 188 OFFCURVE",
"299 186 CURVE",
"275 184 LINE SMOOTH",
"272 184 OFFCURVE",
"267 185 OFFCURVE",
"266 188 CURVE",
"263 195 OFFCURVE",
"259 195 OFFCURVE",
"253 191 CURVE",
"248 191 LINE",
"247 195 LINE",
"249 199 OFFCURVE",
"251 205 OFFCURVE",
"258 206 CURVE",
"259 209 LINE",
"256 211 LINE",
"243 210 LINE SMOOTH",
"240 210 OFFCURVE",
"237 209 OFFCURVE",
"233 208 CURVE",
"228 207 OFFCURVE",
"224 209 OFFCURVE",
"221 215 CURVE",
"221 216 OFFCURVE",
"220 219 OFFCURVE",
"218 222 CURVE",
"216 231 OFFCURVE",
"215 239 OFFCURVE",
"214 248 CURVE",
"210 280 OFFCURVE",
"213 313 OFFCURVE",
"214 344 CURVE",
"214 352 OFFCURVE",
"214 360 OFFCURVE",
"216 369 CURVE",
"217 374 OFFCURVE",
"221 379 OFFCURVE",
"220 386 CURVE SMOOTH",
"220 392 OFFCURVE",
"218 398 OFFCURVE",
"217 404 CURVE",
"219 447 LINE",
"219 457 OFFCURVE",
"218 468 OFFCURVE",
"218 477 CURVE",
"218 503 OFFCURVE",
"220 529 OFFCURVE",
"221 555 CURVE SMOOTH",
"222 570 OFFCURVE",
"223 584 OFFCURVE",
"224 599 CURVE",
"224 604 OFFCURVE",
"228 608 OFFCURVE",
"234 608 CURVE",
"243 606 OFFCURVE",
"251 607 OFFCURVE",
"260 606 CURVE",
"266 607 OFFCURVE",
"269 610 OFFCURVE",
"270 616 CURVE",
"271 638 OFFCURVE",
"272 661 OFFCURVE",
"273 683 CURVE",
"275 685 OFFCURVE",
"275 687 OFFCURVE",
"275 689 CURVE",
"272 700 OFFCURVE",
"274 712 OFFCURVE",
"274 723 CURVE",
"273 738 LINE SMOOTH",
"273 739 OFFCURVE",
"270 742 OFFCURVE",
"268 743 CURVE",
"262 743 LINE",
"176 746 LINE",
"121 747 LINE",
"112 747 OFFCURVE",
"103 748 OFFCURVE",
"96 750 CURVE",
"92 750 OFFCURVE",
"88 752 OFFCURVE",
"86 754 CURVE",
"79 759 OFFCURVE",
"71 759 OFFCURVE",
"64 755 CURVE"
);
},
{
closed = 1;
nodes = (
"302 707 LINE",
"301 707 OFFCURVE",
"297 706 OFFCURVE",
"297 705 CURVE",
"294 702 OFFCURVE",
"293 698 OFFCURVE",
"291 695 CURVE",
"292 692 OFFCURVE",
"294 691 OFFCURVE",
"294 690 CURVE SMOOTH",
"294 688 OFFCURVE",
"295 687 OFFCURVE",
"296 687 CURVE SMOOTH",
"298 687 OFFCURVE",
"299 688 OFFCURVE",
"301 690 CURVE",
"301 695 OFFCURVE",
"304 699 OFFCURVE",
"305 704 CURVE"
);
},
{
closed = 1;
nodes = (
"283 679 OFFCURVE",
"280 676 OFFCURVE",
"281 672 CURVE",
"282 672 OFFCURVE",
"282 670 OFFCURVE",
"284 671 CURVE SMOOTH",
"288 671 OFFCURVE",
"289 673 OFFCURVE",
"288 675 CURVE SMOOTH",
"288 676 OFFCURVE",
"286 679 OFFCURVE",
"286 679 CURVE SMOOTH"
);
},
{
closed = 1;
nodes = (
"318 388 OFFCURVE",
"316 386 OFFCURVE",
"310 382 CURVE",
"321 378 LINE",
"325 378 OFFCURVE",
"327 380 OFFCURVE",
"325 384 CURVE",
"325 387 OFFCURVE",
"324 390 OFFCURVE",
"324 394 CURVE"
);
},
{
closed = 1;
nodes = (
"277 384 OFFCURVE",
"272 382 OFFCURVE",
"264 383 CURVE",
"264 383 OFFCURVE",
"264 381 OFFCURVE",
"263 380 CURVE",
"277 378 OFFCURVE",
"277 378 OFFCURVE",
"292 383 CURVE",
"288 389 OFFCURVE",
"287 391 OFFCURVE",
"283 388 CURVE"
);
},
{
closed = 1;
nodes = (
"294 382 LINE",
"296 379 LINE",
"296 378 OFFCURVE",
"297 378 OFFCURVE",
"297 378 CURVE",
"299 378 OFFCURVE",
"299 379 OFFCURVE",
"299 379 CURVE SMOOTH",
"299 379 OFFCURVE",
"299 381 OFFCURVE",
"296 382 CURVE"
);
},
{
closed = 1;
nodes = (
"541 391 LINE",
"546 392 OFFCURVE",
"551 387 OFFCURVE",
"554 392 CURVE"
);
},
{
closed = 1;
nodes = (
"6 321 LINE",
"6 319 OFFCURVE",
"7 319 OFFCURVE",
"7 318 CURVE",
"8 318 OFFCURVE",
"10 319 OFFCURVE",
"10 319 CURVE",
"10 321 OFFCURVE",
"8 322 OFFCURVE",
"8 324 CURVE"
);
},
{
closed = 1;
nodes = (
"-11 318 LINE",
"-12 318 OFFCURVE",
"-14 317 OFFCURVE",
"-14 317 CURVE",
"-15 316 OFFCURVE",
"-15 313 OFFCURVE",
"-15 312 CURVE",
"-14 309 LINE",
"-11 309 OFFCURVE",
"-8 310 OFFCURVE",
"-7 312 CURVE",
"-8 316 LINE"
);
},
{
closed = 1;
nodes = (
"74 45 OFFCURVE",
"73 45 OFFCURVE",
"71 43 CURVE",
"72 42 OFFCURVE",
"72 41 OFFCURVE",
"74 41 CURVE SMOOTH",
"75 41 OFFCURVE",
"76 42 OFFCURVE",
"78 42 CURVE",
"77 43 OFFCURVE",
"75 45 OFFCURVE",
"75 45 CURVE SMOOTH"
);
},
{
closed = 1;
nodes = (
"41 39 LINE",
"45 34 OFFCURVE",
"45 34 OFFCURVE",
"56 36 CURVE"
);
},
{
closed = 1;
nodes = (
"75 34 OFFCURVE",
"75 33 OFFCURVE",
"75 33 CURVE",
"75 31 OFFCURVE",
"76 31 OFFCURVE",
"76 31 CURVE",
"79 31 OFFCURVE",
"79 33 OFFCURVE",
"79 33 CURVE SMOOTH",
"78 33 OFFCURVE",
"76 33 OFFCURVE",
"76 34 CURVE"
);
},
{
closed = 1;
nodes = (
"490 47 OFFCURVE",
"490 47 OFFCURVE",
"494 49 CURVE",
"491 48 OFFCURVE",
"489 48 OFFCURVE",
"486 49 CURVE"
);
},
{
closed = 1;
nodes = (
"98 9 LINE SMOOTH",
"96 9 OFFCURVE",
"92 10 OFFCURVE",
"92 6 CURVE",
"190 3 LINE",
"170 8 LINE",
"159 8 OFFCURVE",
"149 12 OFFCURVE",
"139 11 CURVE SMOOTH"
);
},
{
closed = 1;
nodes = (
"322 17 OFFCURVE",
"311 15 OFFCURVE",
"301 15 CURVE",
"309 13 OFFCURVE",
"317 13 OFFCURVE",
"325 13 CURVE SMOOTH",
"341 11 OFFCURVE",
"356 8 OFFCURVE",
"372 8 CURVE SMOOTH",
"410 6 LINE",
"409 7 OFFCURVE",
"408 9 OFFCURVE",
"406 9 CURVE",
"394 9 OFFCURVE",
"382 15 OFFCURVE",
"370 14 CURVE SMOOTH",
"358 14 OFFCURVE",
"345 14 OFFCURVE",
"333 16 CURVE"
);
},
{
closed = 1;
nodes = (
"250 2 OFFCURVE",
"248 1 OFFCURVE",
"247 1 CURVE",
"247 -1 LINE",
"257 -1 LINE",
"255 1 OFFCURVE",
"254 2 OFFCURVE",
"253 2 CURVE SMOOTH"
);
},
{
closed = 1;
nodes = (
"410 6 LINE",
"416 6 OFFCURVE",
"421 3 OFFCURVE",
"427 7 CURVE"
);
},
{
closed = 1;
nodes = (
"504 -1 OFFCURVE",
"508 -1 OFFCURVE",
"512 -3 CURVE",
"508 -1 OFFCURVE",
"506 1 OFFCURVE",
"499 -1 CURVE"
);
}
);
width = 588;
},
{
associatedMasterId = "82E980F0-013F-4801-8ED7-9905E88076B0";
layerId = "626D775A-2479-4BA5-A458-1D069E2A2E2E";
width = 600;
}
);
unicode = 0055;
},
{
glyphname = V;
lastChange = "2017-01-19 14:16:10 +0000";
layers = (
{
layerId = "82E980F0-013F-4801-8ED7-9905E88076B0";
name = Regular;
paths = (
{
closed = 1;
nodes = (
"24 692 OFFCURVE",
"17 692 OFFCURVE",
"10 691 CURVE",
"3 691 OFFCURVE",
"-3 687 OFFCURVE",
"-4 679 CURVE",
"-7 669 OFFCURVE",
"-8 658 OFFCURVE",
"-9 648 CURVE SMOOTH",
"-25 521 OFFCURVE",
"-34 392 OFFCURVE",
"-33 263 CURVE SMOOTH",
"-33 193 OFFCURVE",
"-32 122 OFFCURVE",
"-35 49 CURVE",
"-35 32 LINE SMOOTH",
"-35 26 OFFCURVE",
"-32 22 OFFCURVE",
"-25 21 CURVE",
"-13 19 OFFCURVE",
"-3 19 OFFCURVE",
"9 18 CURVE",
"63 17 OFFCURVE",
"117 15 OFFCURVE",
"171 9 CURVE SMOOTH",
"247 0 OFFCURVE",
"323 -3 OFFCURVE",
"400 -7 CURVE",
"412 -8 OFFCURVE",
"425 -7 OFFCURVE",
"439 -7 CURVE",
"441 6 OFFCURVE",
"441 15 OFFCURVE",
"441 25 CURVE SMOOTH",
"441 52 OFFCURVE",
"439 78 OFFCURVE",
"439 106 CURVE SMOOTH",
"439 200 OFFCURVE",
"445 296 OFFCURVE",
"459 389 CURVE SMOOTH",
"472 476 OFFCURVE",
"489 562 OFFCURVE",
"510 646 CURVE",
"514 670 LINE",
"514 678 OFFCURVE",
"510 683 OFFCURVE",
"502 683 CURVE",
"488 686 OFFCURVE",
"472 687 OFFCURVE",
"457 687 CURVE",
"421 686 OFFCURVE",
"386 685 OFFCURVE",
"350 685 CURVE SMOOTH",
"244 685 OFFCURVE",
"136 686 OFFCURVE",
"30 691 CURVE"
);
},
{
closed = 1;
nodes = (
"474 629 OFFCURVE",
"474 628 OFFCURVE",
"476 627 CURVE",
"478 623 OFFCURVE",
"478 618 OFFCURVE",
"478 612 CURVE",
"463 519 OFFCURVE",
"450 426 OFFCURVE",
"434 333 CURVE SMOOTH",
"422 270 OFFCURVE",
"415 206 OFFCURVE",
"405 143 CURVE",
"404 128 OFFCURVE",
"400 114 OFFCURVE",
"397 101 CURVE",
"396 90 OFFCURVE",
"390 85 OFFCURVE",
"380 85 CURVE",
"361 84 OFFCURVE",
"341 84 OFFCURVE",
"323 82 CURVE SMOOTH",
"219 78 LINE",
"203 78 OFFCURVE",
"201 80 OFFCURVE",
"197 95 CURVE SMOOTH",
"185 139 OFFCURVE",
"173 182 OFFCURVE",
"163 227 CURVE SMOOTH",
"119 396 LINE SMOOTH",
"102 460 OFFCURVE",
"87 524 OFFCURVE",
"69 589 CURVE",
"68 593 OFFCURVE",
"68 595 OFFCURVE",
"68 599 CURVE",
"67 606 OFFCURVE",
"71 608 OFFCURVE",
"76 610 CURVE",
"79 611 OFFCURVE",
"81 611 OFFCURVE",
"84 611 CURVE",
"130 614 OFFCURVE",
"176 616 OFFCURVE",
"222 618 CURVE",
"237 619 OFFCURVE",
"239 616 OFFCURVE",
"241 602 CURVE SMOOTH",
"252 531 OFFCURVE",
"262 460 OFFCURVE",
"274 389 CURVE",
"278 357 OFFCURVE",
"283 322 OFFCURVE",
"289 290 CURVE",
"294 290 LINE",
"295 313 OFFCURVE",
"298 337 OFFCURVE",
"299 360 CURVE SMOOTH",
"311 602 LINE SMOOTH",
"312 619 OFFCURVE",
"315 623 OFFCURVE",
"329 623 CURVE",
"376 625 OFFCURVE",
"425 627 OFFCURVE",
"472 629 CURVE"
);
}
);
width = 514;
},
{
associatedMasterId = "82E980F0-013F-4801-8ED7-9905E88076B0";
layerId = "626D775A-2479-4BA5-A458-1D069E2A2E2E";
width = 600;
}
);
unicode = 0056;
},
{
glyphname = W;
lastChange = "2017-01-19 14:16:34 +0000";
layers = (
{
layerId = "82E980F0-013F-4801-8ED7-9905E88076B0";
name = Regular;
paths = (
{
closed = 1;
nodes = (
"-33 750 OFFCURVE",
"-44 750 OFFCURVE",
"-54 748 CURVE SMOOTH",
"-62 747 OFFCURVE",
"-65 740 OFFCURVE",
"-65 734 CURVE",
"-67 719 OFFCURVE",
"-60 710 OFFCURVE",
"-48 705 CURVE",
"-6 686 OFFCURVE",
"12 650 OFFCURVE",
"20 607 CURVE",
"26 578 OFFCURVE",
"36 547 OFFCURVE",
"44 518 CURVE SMOOTH",
"55 473 OFFCURVE",
"70 428 OFFCURVE",
"81 383 CURVE SMOOTH",
"94 338 OFFCURVE",
"103 293 OFFCURVE",
"115 249 CURVE SMOOTH",
"126 204 OFFCURVE",
"134 159 OFFCURVE",
"148 115 CURVE SMOOTH",
"160 83 OFFCURVE",
"160 48 OFFCURVE",
"177 17 CURVE",
"208 6 OFFCURVE",
"237 8 OFFCURVE",
"266 9 CURVE",
"279 9 OFFCURVE",
"288 19 OFFCURVE",
"291 30 CURVE",
"295 36 OFFCURVE",
"296 44 OFFCURVE",
"298 51 CURVE",
"301 81 OFFCURVE",
"312 110 OFFCURVE",
"324 139 CURVE SMOOTH",
"410 371 LINE",
"412 377 OFFCURVE",
"417 383 OFFCURVE",
"420 388 CURVE",
"422 390 OFFCURVE",
"428 390 OFFCURVE",
"430 388 CURVE SMOOTH",
"433 385 OFFCURVE",
"434 380 OFFCURVE",
"436 375 CURVE",
"444 342 OFFCURVE",
"451 308 OFFCURVE",
"459 274 CURVE SMOOTH",
"468 231 OFFCURVE",
"481 187 OFFCURVE",
"492 144 CURVE SMOOTH",
"497 126 OFFCURVE",
"500 107 OFFCURVE",
"492 86 CURVE",
"487 83 OFFCURVE",
"479 81 OFFCURVE",
"471 77 CURVE",
"467 75 OFFCURVE",
"462 72 OFFCURVE",
"460 69 CURVE SMOOTH",
"449 48 OFFCURVE",
"434 27 OFFCURVE",
"433 3 CURVE",
"433 -1 OFFCURVE",
"434 -5 OFFCURVE",
"438 -7 CURVE",
"439 -9 OFFCURVE",
"446 -9 OFFCURVE",
"447 -7 CURVE SMOOTH",
"459 4 OFFCURVE",
"468 16 OFFCURVE",
"479 25 CURVE",
"491 36 OFFCURVE",
"507 35 OFFCURVE",
"515 22 CURVE",
"526 -1 OFFCURVE",
"542 -7 OFFCURVE",
"565 -7 CURVE SMOOTH",
"579 -7 OFFCURVE",
"592 -9 OFFCURVE",
"606 -9 CURVE SMOOTH",
"621 -9 OFFCURVE",
"629 -1 OFFCURVE",
"634 11 CURVE",
"638 24 OFFCURVE",
"642 38 OFFCURVE",
"647 51 CURVE SMOOTH",
"663 96 OFFCURVE",
"677 141 OFFCURVE",
"695 186 CURVE SMOOTH",
"719 249 OFFCURVE",
"745 311 OFFCURVE",
"769 374 CURVE SMOOTH",
"794 441 OFFCURVE",
"822 510 OFFCURVE",
"847 579 CURVE SMOOTH",
"859 613 OFFCURVE",
"878 637 OFFCURVE",
"910 650 CURVE SMOOTH",
"918 653 OFFCURVE",
"926 657 OFFCURVE",
"934 661 CURVE",
"941 668 OFFCURVE",
"944 676 OFFCURVE",
"942 686 CURVE",
"941 692 OFFCURVE",
"936 697 OFFCURVE",
"928 698 CURVE",
"859 708 OFFCURVE",
"788 711 OFFCURVE",
"717 711 CURVE",
"704 710 OFFCURVE",
"696 697 OFFCURVE",
"701 684 CURVE",
"704 677 OFFCURVE",
"709 671 OFFCURVE",
"714 668 CURVE",
"733 657 OFFCURVE",
"754 649 OFFCURVE",
"772 636 CURVE",
"786 628 OFFCURVE",
"793 613 OFFCURVE",
"788 596 CURVE",
"785 589 OFFCURVE",
"785 583 OFFCURVE",
"781 576 CURVE",
"709 377 LINE SMOOTH",
"703 358 OFFCURVE",
"698 338 OFFCURVE",
"690 319 CURVE",
"685 306 OFFCURVE",
"680 293 OFFCURVE",
"674 281 CURVE",
"671 279 LINE",
"667 281 OFFCURVE",
"663 281 OFFCURVE",
"661 282 CURVE",
"656 297 LINE",
"640 369 OFFCURVE",
"624 441 OFFCURVE",
"606 514 CURVE",
"602 538 OFFCURVE",
"594 560 OFFCURVE",
"589 583 CURVE SMOOTH",
"584 602 OFFCURVE",
"579 620 OFFCURVE",
"577 639 CURVE",
"574 650 OFFCURVE",
"581 658 OFFCURVE",
"592 661 CURVE",
"605 666 OFFCURVE",
"618 669 OFFCURVE",
"632 673 CURVE SMOOTH",
"645 676 OFFCURVE",
"650 686 OFFCURVE",
"648 700 CURVE SMOOTH",
"647 711 OFFCURVE",
"640 714 OFFCURVE",
"630 716 CURVE",
"579 721 LINE",
"378 730 LINE",
"365 732 OFFCURVE",
"351 732 OFFCURVE",
"338 732 CURVE SMOOTH",
"325 732 OFFCURVE",
"312 730 OFFCURVE",
"308 718 CURVE SMOOTH",
"303 705 OFFCURVE",
"308 695 OFFCURVE",
"324 684 CURVE SMOOTH",
"353 665 OFFCURVE",
"370 639 OFFCURVE",
"377 605 CURVE",
"381 586 OFFCURVE",
"385 565 OFFCURVE",
"391 546 CURVE SMOOTH",
"401 515 OFFCURVE",
"398 488 OFFCURVE",
"388 459 CURVE SMOOTH",
"367 403 OFFCURVE",
"348 347 OFFCURVE",
"327 290 CURVE SMOOTH",
"325 285 OFFCURVE",
"320 284 OFFCURVE",
"316 277 CURVE",
"304 300 OFFCURVE",
"301 322 OFFCURVE",
"296 343 CURVE SMOOTH",
"243 559 LINE SMOOTH",
"237 586 OFFCURVE",
"229 612 OFFCURVE",
"222 639 CURVE SMOOTH",
"216 666 OFFCURVE",
"222 677 OFFCURVE",
"248 687 CURVE",
"255 690 OFFCURVE",
"261 692 OFFCURVE",
"267 695 CURVE SMOOTH",
"274 698 OFFCURVE",
"279 711 OFFCURVE",
"275 722 CURVE",
"272 730 OFFCURVE",
"267 734 OFFCURVE",
"259 734 CURVE",
"253 735 OFFCURVE",
"246 735 OFFCURVE",
"240 737 CURVE",
"152 742 OFFCURVE",
"65 745 OFFCURVE",
"-23 750 CURVE"
);
},
{
closed = 1;
nodes = (
"1003 655 OFFCURVE",
"986 613 OFFCURVE",
"952 568 CURVE SMOOTH",
"929 539 OFFCURVE",
"923 498 OFFCURVE",
"916 462 CURVE",
"907 424 OFFCURVE",
"865 398 OFFCURVE",
"862 358 CURVE SMOOTH",
"860 329 OFFCURVE",
"857 300 OFFCURVE",
"841 274 CURVE",
"838 268 OFFCURVE",
"838 263 OFFCURVE",
"841 257 CURVE",
"851 276 OFFCURVE",
"862 292 OFFCURVE",
"870 310 CURVE SMOOTH",
"894 359 OFFCURVE",
"916 409 OFFCURVE",
"941 457 CURVE SMOOTH",
"950 478 OFFCURVE",
"961 498 OFFCURVE",
"969 517 CURVE SMOOTH",
"990 567 OFFCURVE",
"1011 615 OFFCURVE",
"1040 660 CURVE",
"1047 668 OFFCURVE",
"1051 676 OFFCURVE",
"1050 686 CURVE"
);
},
{
closed = 1;
nodes = (
"841 257 LINE",
"839 252 LINE",
"843 255 LINE"
);
},
{
closed = 1;
nodes = (
"814 224 OFFCURVE",
"812 221 OFFCURVE",
"809 187 CURVE",
"823 207 OFFCURVE",
"830 229 OFFCURVE",
"839 252 CURVE"
);
},
{
closed = 1;
nodes = (
"764 91 LINE",
"762 89 OFFCURVE",
"759 88 OFFCURVE",
"757 85 CURVE",
"756 83 OFFCURVE",
"757 80 OFFCURVE",
"757 77 CURVE",
"759 78 OFFCURVE",
"762 80 OFFCURVE",
"764 83 CURVE"
);
},
{
closed = 1;
nodes = (
"741 56 OFFCURVE",
"730 36 OFFCURVE",
"727 12 CURVE",
"745 33 LINE",
"753 46 OFFCURVE",
"759 61 OFFCURVE",
"757 77 CURVE"
);
},
{
closed = 1;
nodes = (
"716 -13 LINE",
"720 -7 OFFCURVE",
"725 -1 OFFCURVE",
"725 8 CURVE"
);
}
);
width = 950;
},
{
associatedMasterId = "82E980F0-013F-4801-8ED7-9905E88076B0";
layerId = "626D775A-2479-4BA5-A458-1D069E2A2E2E";
width = 600;
}
);
unicode = 0057;
},
{
glyphname = X;
lastChange = "2017-01-19 14:17:09 +0000";
layers = (
{
layerId = "82E980F0-013F-4801-8ED7-9905E88076B0";
name = Regular;
paths = (
{
closed = 1;
nodes = (
"35 742 LINE",
"33 722 OFFCURVE",
"30 704 OFFCURVE",
"26 684 CURVE",
"45 681 OFFCURVE",
"64 673 OFFCURVE",
"74 657 CURVE",
"87 643 OFFCURVE",
"97 628 OFFCURVE",
"105 612 CURVE",
"112 600 OFFCURVE",
"119 587 OFFCURVE",
"128 576 CURVE",
"164 513 OFFCURVE",
"204 449 OFFCURVE",
"244 385 CURVE",
"250 379 OFFCURVE",
"254 370 OFFCURVE",
"260 361 CURVE",
"265 349 OFFCURVE",
"266 340 OFFCURVE",
"257 329 CURVE",
"253 323 LINE SMOOTH",
"196 250 OFFCURVE",
"137 178 OFFCURVE",
"80 103 CURVE SMOOTH",
"70 90 OFFCURVE",
"58 85 OFFCURVE",
"39 83 CURVE",
"26 83 OFFCURVE",
"12 83 OFFCURVE",
"-2 82 CURVE",
"-3 82 LINE",
"-13 59 LINE",
"-14 51 OFFCURVE",
"-17 45 OFFCURVE",
"-20 38 CURVE",
"-20 33 OFFCURVE",
"-17 30 OFFCURVE",
"-13 29 CURVE",
"-6 27 OFFCURVE",
"0 27 OFFCURVE",
"4 27 CURVE SMOOTH",
"33 27 OFFCURVE",
"62 26 OFFCURVE",
"91 26 CURVE SMOOTH",
"225 21 LINE SMOOTH",
"257 21 OFFCURVE",
"259 21 OFFCURVE",
"262 54 CURVE",
"263 65 LINE",
"263 73 OFFCURVE",
"260 77 OFFCURVE",
"251 77 CURVE",
"195 82 LINE",
"175 85 LINE",
"169 86 OFFCURVE",
"166 91 OFFCURVE",
"169 96 CURVE",
"172 105 OFFCURVE",
"176 112 OFFCURVE",
"181 119 CURVE SMOOTH",
"288 259 LINE",
"301 280 OFFCURVE",
"308 279 OFFCURVE",
"320 257 CURVE SMOOTH",
"402 122 LINE",
"410 112 OFFCURVE",
"416 102 OFFCURVE",
"422 90 CURVE",
"427 85 OFFCURVE",
"423 80 OFFCURVE",
"416 80 CURVE",
"401 77 OFFCURVE",
"385 77 OFFCURVE",
"370 76 CURVE SMOOTH",
"358 74 OFFCURVE",
"353 70 OFFCURVE",
"352 58 CURVE",
"350 50 OFFCURVE",
"350 39 OFFCURVE",
"350 30 CURVE SMOOTH",
"350 24 OFFCURVE",
"353 21 OFFCURVE",
"358 19 CURVE",
"431 19 LINE",
"472 18 OFFCURVE",
"515 16 OFFCURVE",
"556 16 CURVE",
"588 15 OFFCURVE",
"620 15 OFFCURVE",
"652 13 CURVE SMOOTH",
"686 12 OFFCURVE",
"683 15 OFFCURVE",
"687 42 CURVE",
"687 47 OFFCURVE",
"687 51 OFFCURVE",
"686 58 CURVE",
"686 61 OFFCURVE",
"683 64 OFFCURVE",
"680 65 CURVE SMOOTH",
"677 67 OFFCURVE",
"673 67 OFFCURVE",
"670 67 CURVE",
"648 70 OFFCURVE",
"631 83 OFFCURVE",
"617 99 CURVE",
"609 108 OFFCURVE",
"603 117 OFFCURVE",
"597 125 CURVE",
"481 309 LINE SMOOTH",
"462 340 OFFCURVE",
"442 372 OFFCURVE",
"422 404 CURVE",
"416 414 OFFCURVE",
"416 420 OFFCURVE",
"423 431 CURVE",
"439 451 LINE SMOOTH",
"455 472 OFFCURVE",
"469 491 OFFCURVE",
"486 510 CURVE",
"520 553 OFFCURVE",
"556 597 OFFCURVE",
"588 641 CURVE",
"602 663 OFFCURVE",
"620 673 OFFCURVE",
"643 670 CURVE",
"657 672 OFFCURVE",
"664 672 OFFCURVE",
"675 673 CURVE",
"683 675 OFFCURVE",
"687 678 OFFCURVE",
"689 686 CURVE",
"689 690 OFFCURVE",
"690 695 OFFCURVE",
"690 699 CURVE SMOOTH",
"690 727 OFFCURVE",
"692 725 OFFCURVE",
"663 727 CURVE",
"654 727 OFFCURVE",
"645 728 OFFCURVE",
"634 728 CURVE SMOOTH",
"602 728 OFFCURVE",
"570 730 OFFCURVE",
"536 730 CURVE",
"507 731 OFFCURVE",
"478 731 OFFCURVE",
"449 731 CURVE SMOOTH",
"431 731 OFFCURVE",
"428 728 OFFCURVE",
"428 712 CURVE SMOOTH",
"428 709 LINE SMOOTH",
"428 678 OFFCURVE",
"430 678 OFFCURVE",
"457 677 CURVE",
"465 675 OFFCURVE",
"475 675 OFFCURVE",
"484 673 CURVE",
"504 669 OFFCURVE",
"507 661 OFFCURVE",
"498 645 CURVE",
"494 634 LINE",
"459 585 OFFCURVE",
"423 539 OFFCURVE",
"390 492 CURVE",
"382 484 LINE SMOOTH",
"379 481 OFFCURVE",
"373 481 OFFCURVE",
"372 484 CURVE",
"367 491 OFFCURVE",
"362 497 OFFCURVE",
"361 503 CURVE",
"333 545 OFFCURVE",
"309 591 OFFCURVE",
"285 635 CURVE SMOOTH",
"263 675 OFFCURVE",
"257 673 OFFCURVE",
"309 678 CURVE",
"347 680 OFFCURVE",
"341 683 OFFCURVE",
"344 712 CURVE",
"344 716 OFFCURVE",
"344 721 OFFCURVE",
"343 725 CURVE",
"341 728 OFFCURVE",
"338 733 OFFCURVE",
"335 733 CURVE",
"326 734 OFFCURVE",
"314 736 OFFCURVE",
"301 736 CURVE SMOOTH",
"250 738 OFFCURVE",
"198 739 OFFCURVE",
"144 739 CURVE",
"108 741 OFFCURVE",
"71 742 OFFCURVE",
"36 742 CURVE SMOOTH"
);
}
);
width = 690;
},
{
associatedMasterId = "82E980F0-013F-4801-8ED7-9905E88076B0";
layerId = "626D775A-2479-4BA5-A458-1D069E2A2E2E";
width = 600;
}
);
unicode = 0058;
},
{
glyphname = Y;
lastChange = "2017-01-19 14:17:45 +0000";
layers = (
{
layerId = "82E980F0-013F-4801-8ED7-9905E88076B0";
name = Regular;
paths = (
{
closed = 1;
nodes = (
"3 734 LINE",
"-1 733 OFFCURVE",
"-7 734 OFFCURVE",
"-12 733 CURVE",
"-13 733 OFFCURVE",
"-15 731 OFFCURVE",
"-18 729 CURVE",
"-21 723 OFFCURVE",
"-18 713 OFFCURVE",
"-12 712 CURVE",
"-1 706 LINE",
"14 702 OFFCURVE",
"26 694 OFFCURVE",
"30 679 CURVE",
"54 637 LINE",
"66 604 OFFCURVE",
"77 568 OFFCURVE",
"88 537 CURVE SMOOTH",
"109 479 OFFCURVE",
"131 423 OFFCURVE",
"152 364 CURVE SMOOTH",
"176 294 LINE",
"179 288 OFFCURVE",
"180 279 OFFCURVE",
"179 273 CURVE",
"180 245 OFFCURVE",
"179 216 OFFCURVE",
"177 186 CURVE SMOOTH",
"172 41 LINE SMOOTH",
"172 25 OFFCURVE",
"172 7 OFFCURVE",
"166 -12 CURVE SMOOTH",
"160 -31 OFFCURVE",
"144 -43 OFFCURVE",
"125 -46 CURVE",
"120 -46 OFFCURVE",
"111 -43 OFFCURVE",
"108 -49 CURVE",
"112 -49 LINE",
"325 -31 LINE",
"340 -29 LINE",
"345 -28 OFFCURVE",
"348 -25 OFFCURVE",
"346 -20 CURVE",
"342 -8 OFFCURVE",
"340 5 OFFCURVE",
"342 22 CURVE",
"343 107 LINE",
"346 161 OFFCURVE",
"346 212 OFFCURVE",
"348 263 CURVE SMOOTH",
"348 285 OFFCURVE",
"351 305 OFFCURVE",
"361 323 CURVE SMOOTH",
"367 334 LINE",
"389 387 OFFCURVE",
"410 439 OFFCURVE",
"431 493 CURVE",
"451 537 OFFCURVE",
"469 583 OFFCURVE",
"490 625 CURVE SMOOTH",
"502 654 OFFCURVE",
"521 676 OFFCURVE",
"550 688 CURVE",
"560 691 LINE",
"568 694 OFFCURVE",
"568 700 OFFCURVE",
"568 709 CURVE SMOOTH",
"568 712 OFFCURVE",
"565 713 OFFCURVE",
"562 715 CURVE",
"560 716 OFFCURVE",
"556 716 OFFCURVE",
"553 716 CURVE",
"436 721 LINE",
"416 719 LINE",
"415 719 OFFCURVE",
"412 718 OFFCURVE",
"412 716 CURVE",
"407 707 OFFCURVE",
"410 699 OFFCURVE",
"420 696 CURVE",
"436 692 LINE",
"447 688 OFFCURVE",
"453 682 OFFCURVE",
"457 669 CURVE",
"457 649 LINE",
"453 637 OFFCURVE",
"451 624 OFFCURVE",
"448 611 CURVE",
"410 511 LINE SMOOTH",
"400 484 OFFCURVE",
"389 460 OFFCURVE",
"379 435 CURVE SMOOTH",
"349 356 LINE",
"345 348 LINE",
"343 348 OFFCURVE",
"340 348 OFFCURVE",
"339 350 CURVE SMOOTH",
"337 351 OFFCURVE",
"335 354 OFFCURVE",
"334 358 CURVE",
"308 438 LINE",
"246 625 LINE",
"241 634 OFFCURVE",
"240 643 OFFCURVE",
"237 651 CURVE",
"235 658 OFFCURVE",
"234 664 OFFCURVE",
"234 672 CURVE SMOOTH",
"234 683 OFFCURVE",
"238 697 OFFCURVE",
"253 700 CURVE",
"267 703 LINE",
"271 706 OFFCURVE",
"273 710 OFFCURVE",
"273 718 CURVE SMOOTH",
"273 721 OFFCURVE",
"270 724 OFFCURVE",
"264 726 CURVE",
"250 726 LINE",
"217 727 OFFCURVE",
"187 729 OFFCURVE",
"153 727 CURVE"
);
}
);
width = 518;
},
{
associatedMasterId = "82E980F0-013F-4801-8ED7-9905E88076B0";
layerId = "626D775A-2479-4BA5-A458-1D069E2A2E2E";
width = 600;
}
);
unicode = 0059;
},
{
glyphname = Z;
lastChange = "2017-01-19 14:18:00 +0000";
layers = (
{
layerId = "82E980F0-013F-4801-8ED7-9905E88076B0";
name = Regular;
paths = (
{
closed = 1;
nodes = (
"531 771 LINE",
"529 769 LINE",
"528 760 OFFCURVE",
"528 752 OFFCURVE",
"527 743 CURVE",
"522 628 LINE",
"506 120 LINE SMOOTH",
"504 89 OFFCURVE",
"504 57 OFFCURVE",
"504 26 CURVE SMOOTH",
"504 19 OFFCURVE",
"504 13 OFFCURVE",
"506 6 CURVE",
"510 12 OFFCURVE",
"510 23 OFFCURVE",
"510 33 CURVE",
"513 99 OFFCURVE",
"514 165 OFFCURVE",
"515 232 CURVE SMOOTH",
"518 360 OFFCURVE",
"524 487 OFFCURVE",
"528 614 CURVE SMOOTH",
"529 650 OFFCURVE",
"532 687 OFFCURVE",
"532 723 CURVE",
"534 738 OFFCURVE",
"534 752 OFFCURVE",
"532 766 CURVE"
);
},
{
closed = 1;
nodes = (
"82 745 OFFCURVE",
"72 739 OFFCURVE",
"64 736 CURVE",
"60 732 LINE",
"44 746 OFFCURVE",
"44 726 OFFCURVE",
"40 722 CURVE SMOOTH",
"23 705 OFFCURVE",
"22 683 OFFCURVE",
"24 660 CURVE SMOOTH",
"27 640 OFFCURVE",
"29 639 OFFCURVE",
"50 636 CURVE SMOOTH",
"60 635 OFFCURVE",
"71 632 OFFCURVE",
"81 632 CURVE SMOOTH",
"105 632 OFFCURVE",
"128 635 OFFCURVE",
"152 635 CURVE",
"258 631 LINE",
"268 631 OFFCURVE",
"276 629 OFFCURVE",
"286 628 CURVE SMOOTH",
"295 626 OFFCURVE",
"299 619 OFFCURVE",
"293 611 CURVE SMOOTH",
"275 581 OFFCURVE",
"257 550 OFFCURVE",
"237 521 CURVE SMOOTH",
"220 496 OFFCURVE",
"202 472 OFFCURVE",
"185 445 CURVE SMOOTH",
"169 420 OFFCURVE",
"148 398 OFFCURVE",
"137 369 CURVE SMOOTH",
"130 352 OFFCURVE",
"113 339 OFFCURVE",
"103 324 CURVE SMOOTH",
"81 287 OFFCURVE",
"48 256 OFFCURVE",
"36 214 CURVE SMOOTH",
"34 210 OFFCURVE",
"30 207 OFFCURVE",
"27 204 CURVE",
"14 185 OFFCURVE",
"-5 166 OFFCURVE",
"-11 145 CURVE",
"-18 113 OFFCURVE",
"-16 78 OFFCURVE",
"-15 44 CURVE",
"-15 27 OFFCURVE",
"-5 19 OFFCURVE",
"12 16 CURVE SMOOTH",
"19 14 OFFCURVE",
"27 14 OFFCURVE",
"34 14 CURVE SMOOTH",
"173 14 LINE SMOOTH",
"219 13 OFFCURVE",
"265 16 OFFCURVE",
"310 14 CURVE SMOOTH",
"354 12 OFFCURVE",
"397 13 OFFCURVE",
"439 13 CURVE SMOOTH",
"456 13 OFFCURVE",
"468 23 OFFCURVE",
"469 40 CURVE SMOOTH",
"470 58 OFFCURVE",
"470 78 OFFCURVE",
"470 96 CURVE",
"469 113 OFFCURVE",
"451 128 OFFCURVE",
"434 128 CURVE SMOOTH",
"413 128 OFFCURVE",
"393 128 OFFCURVE",
"373 127 CURVE",
"354 128 OFFCURVE",
"334 128 OFFCURVE",
"314 128 CURVE SMOOTH",
"271 130 OFFCURVE",
"227 130 OFFCURVE",
"182 130 CURVE",
"169 131 OFFCURVE",
"155 131 OFFCURVE",
"141 133 CURVE",
"133 133 OFFCURVE",
"130 138 OFFCURVE",
"134 147 CURVE SMOOTH",
"136 149 OFFCURVE",
"137 154 OFFCURVE",
"140 156 CURVE",
"178 213 OFFCURVE",
"217 269 OFFCURVE",
"254 327 CURVE",
"285 369 OFFCURVE",
"307 417 OFFCURVE",
"338 458 CURVE SMOOTH",
"354 477 OFFCURVE",
"366 496 OFFCURVE",
"380 515 CURVE",
"383 518 OFFCURVE",
"386 522 OFFCURVE",
"386 525 CURVE SMOOTH",
"386 536 OFFCURVE",
"396 539 OFFCURVE",
"400 548 CURVE",
"416 572 OFFCURVE",
"442 590 OFFCURVE",
"441 624 CURVE",
"439 625 OFFCURVE",
"442 628 OFFCURVE",
"444 628 CURVE",
"459 631 OFFCURVE",
"456 645 OFFCURVE",
"458 656 CURVE",
"459 673 OFFCURVE",
"459 691 OFFCURVE",
"459 709 CURVE",
"461 738 OFFCURVE",
"452 746 OFFCURVE",
"424 740 CURVE",
"418 739 OFFCURVE",
"411 738 OFFCURVE",
"404 739 CURVE",
"361 742 OFFCURVE",
"317 747 OFFCURVE",
"275 735 CURVE",
"273 735 OFFCURVE",
"271 733 OFFCURVE",
"271 735 CURVE",
"258 749 OFFCURVE",
"241 739 OFFCURVE",
"227 740 CURVE",
"182 742 OFFCURVE",
"136 745 OFFCURVE",
"90 745 CURVE SMOOTH"
);
},
{
closed = 1;
nodes = (
"98 721 OFFCURVE",
"99 719 CURVE",
"95 719 LINE",
"95 722 OFFCURVE",
"96 722 OFFCURVE",
"98 722 CURVE"
);
},
{
closed = 1;
nodes = (
"230 695 OFFCURVE",
"231 695 OFFCURVE",
"231 695 CURVE",
"230 694 OFFCURVE",
"230 693 OFFCURVE",
"230 691 CURVE",
"228 691 OFFCURVE",
"228 693 OFFCURVE",
"228 693 CURVE",
"228 694 OFFCURVE",
"228 695 OFFCURVE",
"230 697 CURVE"
);
}
);
width = 434;
},
{
associatedMasterId = "82E980F0-013F-4801-8ED7-9905E88076B0";
layerId = "626D775A-2479-4BA5-A458-1D069E2A2E2E";
width = 600;
}
);
unicode = 005A;
},
{
glyphname = a;
lastChange = "2017-01-19 14:27:38 +0000";
layers = (
{
layerId = "82E980F0-013F-4801-8ED7-9905E88076B0";
name = Regular;
paths = (
{
closed = 1;
nodes = (
"-14 531 OFFCURVE",
"-15 523 OFFCURVE",
"-16 514 CURVE",
"-16 508 OFFCURVE",
"-18 502 OFFCURVE",
"-14 495 CURVE",
"-11 498 OFFCURVE",
"-9 499 OFFCURVE",
"-9 500 CURVE",
"-7 514 OFFCURVE",
"-6 526 OFFCURVE",
"-6 539 CURVE",
"-9 539 OFFCURVE",
"-11 540 OFFCURVE",
"-14 540 CURVE"
);
},
{
closed = 1;
nodes = (
"86 481 OFFCURVE",
"59 452 OFFCURVE",
"43 409 CURVE SMOOTH",
"35 383 OFFCURVE",
"33 356 OFFCURVE",
"36 328 CURVE",
"36 321 OFFCURVE",
"41 317 OFFCURVE",
"49 317 CURVE",
"54 316 OFFCURVE",
"59 316 OFFCURVE",
"65 316 CURVE",
"107 318 OFFCURVE",
"111 314 OFFCURVE",
"111 359 CURVE SMOOTH",
"111 366 LINE",
"115 396 OFFCURVE",
"133 418 OFFCURVE",
"163 423 CURVE SMOOTH",
"176 425 OFFCURVE",
"190 424 OFFCURVE",
"202 424 CURVE",
"223 423 OFFCURVE",
"238 412 OFFCURVE",
"243 392 CURVE",
"248 366 OFFCURVE",
"253 340 OFFCURVE",
"245 311 CURVE",
"230 308 OFFCURVE",
"217 307 OFFCURVE",
"205 307 CURVE",
"169 304 OFFCURVE",
"134 298 OFFCURVE",
"101 282 CURVE SMOOTH",
"64 265 OFFCURVE",
"38 237 OFFCURVE",
"28 196 CURVE SMOOTH",
"21 162 OFFCURVE",
"22 128 OFFCURVE",
"30 94 CURVE SMOOTH",
"43 35 OFFCURVE",
"92 11 OFFCURVE",
"139 10 CURVE SMOOTH",
"175 9 OFFCURVE",
"211 16 OFFCURVE",
"240 37 CURVE",
"245 40 OFFCURVE",
"250 42 OFFCURVE",
"254 43 CURVE",
"274 21 OFFCURVE",
"272 21 OFFCURVE",
"299 21 CURVE SMOOTH",
"309 21 OFFCURVE",
"318 22 OFFCURVE",
"327 22 CURVE",
"334 24 OFFCURVE",
"339 28 OFFCURVE",
"338 36 CURVE",
"338 44 LINE",
"328 136 OFFCURVE",
"329 228 OFFCURVE",
"327 319 CURVE SMOOTH",
"325 349 OFFCURVE",
"324 377 OFFCURVE",
"320 406 CURVE SMOOTH",
"315 445 OFFCURVE",
"293 475 OFFCURVE",
"255 488 CURVE SMOOTH",
"214 502 OFFCURVE",
"174 503 OFFCURVE",
"132 492 CURVE SMOOTH"
);
},
{
closed = 1;
nodes = (
"246 242 OFFCURVE",
"254 237 OFFCURVE",
"253 228 CURVE",
"253 202 OFFCURVE",
"254 175 OFFCURVE",
"250 149 CURVE SMOOTH",
"248 127 OFFCURVE",
"237 107 OFFCURVE",
"216 96 CURVE",
"193 83 OFFCURVE",
"171 79 OFFCURVE",
"147 85 CURVE",
"127 89 OFFCURVE",
"113 100 OFFCURVE",
"106 118 CURVE",
"99 139 OFFCURVE",
"97 162 OFFCURVE",
"106 184 CURVE SMOOTH",
"112 200 OFFCURVE",
"122 215 OFFCURVE",
"138 221 CURVE SMOOTH",
"170 234 OFFCURVE",
"203 242 OFFCURVE",
"238 242 CURVE SMOOTH"
);
},
{
closed = 1;
nodes = (
"-46 215 OFFCURVE",
"-52 199 OFFCURVE",
"-46 184 CURVE",
"-37 202 OFFCURVE",
"-37 202 OFFCURVE",
"-43 228 CURVE"
);
},
{
closed = 1;
nodes = (
"-53 166 OFFCURVE",
"-51 152 OFFCURVE",
"-46 136 CURVE",
"-37 150 OFFCURVE",
"-38 165 OFFCURVE",
"-44 180 CURVE"
);
},
{
closed = 1;
nodes = (
"-51 127 OFFCURVE",
"-49 118 OFFCURVE",
"-47 109 CURVE",
"-39 117 OFFCURVE",
"-41 126 OFFCURVE",
"-46 136 CURVE"
);
},
{
closed = 1;
nodes = (
"-48 105 OFFCURVE",
"-48 102 OFFCURVE",
"-48 100 CURVE",
"-46 99 LINE",
"-42 104 OFFCURVE",
"-44 105 OFFCURVE",
"-47 106 CURVE"
);
},
{
closed = 1;
nodes = (
"-46 63 LINE",
"-46 64 OFFCURVE",
"-43 67 OFFCURVE",
"-48 67 CURVE"
);
},
{
closed = 1;
nodes = (
"-53 40 OFFCURVE",
"-49 20 OFFCURVE",
"-46 -1 CURVE",
"-36 20 OFFCURVE",
"-38 40 OFFCURVE",
"-46 59 CURVE"
);
},
{
closed = 1;
nodes = (
"-46 -4 LINE",
"-47 -7 OFFCURVE",
"-48 -10 OFFCURVE",
"-48 -13 CURVE SMOOTH",
"-48 -15 OFFCURVE",
"-47 -17 OFFCURVE",
"-46 -20 CURVE",
"-44 -17 OFFCURVE",
"-42 -15 OFFCURVE",
"-42 -12 CURVE"
);
},
{
closed = 1;
nodes = (
"214 -18 OFFCURVE",
"213 -18 OFFCURVE",
"213 -20 CURVE",
"213 -20 OFFCURVE",
"214 -21 OFFCURVE",
"216 -21 CURVE",
"217 -20 LINE",
"217 -18 OFFCURVE",
"216 -17 OFFCURVE",
"214 -17 CURVE"
);
}
);
width = 368;
},
{
associatedMasterId = "82E980F0-013F-4801-8ED7-9905E88076B0";
layerId = "626D775A-2479-4BA5-A458-1D069E2A2E2E";
width = 600;
}
);
unicode = 0061;
},
{
glyphname = b;
lastChange = "2017-01-19 14:19:30 +0000";
layers = (
{
layerId = "82E980F0-013F-4801-8ED7-9905E88076B0";
name = Regular;
paths = (
{
closed = 1;
nodes = (
"23 623 OFFCURVE",
"-43 507 OFFCURVE",
"-30 447 CURVE",
"-25 428 OFFCURVE",
"6 426 OFFCURVE",
"10 405 CURVE",
"39 277 OFFCURVE",
"25 150 OFFCURVE",
"6 24 CURVE",
"92 16 OFFCURVE",
"178 12 OFFCURVE",
"264 8 CURVE",
"277 44 LINE",
"280 55 OFFCURVE",
"277 64 OFFCURVE",
"281 74 CURVE SMOOTH",
"291 104 OFFCURVE",
"299 135 OFFCURVE",
"306 165 CURVE",
"302 176 OFFCURVE",
"300 189 OFFCURVE",
"300 202 CURVE SMOOTH",
"300 233 OFFCURVE",
"303 264 OFFCURVE",
"315 292 CURVE",
"312 322 LINE",
"300 409 OFFCURVE",
"329 497 OFFCURVE",
"317 582 CURVE",
"288 587 OFFCURVE",
"259 592 OFFCURVE",
"231 596 CURVE SMOOTH",
"173 605 OFFCURVE",
"114 610 OFFCURVE",
"56 618 CURVE SMOOTH"
);
},
{
closed = 1;
nodes = (
"111 524 LINE SMOOTH",
"123 524 OFFCURVE",
"127 519 OFFCURVE",
"127 506 CURVE SMOOTH",
"127 495 OFFCURVE",
"126 484 OFFCURVE",
"126 472 CURVE",
"125 457 OFFCURVE",
"125 441 OFFCURVE",
"123 426 CURVE SMOOTH",
"120 375 LINE",
"120 371 OFFCURVE",
"118 366 OFFCURVE",
"120 364 CURVE SMOOTH",
"121 361 OFFCURVE",
"125 360 OFFCURVE",
"126 360 CURVE",
"132 362 OFFCURVE",
"138 365 OFFCURVE",
"142 367 CURVE SMOOTH",
"163 382 OFFCURVE",
"185 384 OFFCURVE",
"211 379 CURVE",
"222 376 OFFCURVE",
"232 371 OFFCURVE",
"238 365 CURVE SMOOTH",
"259 344 OFFCURVE",
"277 321 OFFCURVE",
"281 291 CURVE SMOOTH",
"284 268 OFFCURVE",
"288 243 OFFCURVE",
"285 220 CURVE SMOOTH",
"282 192 OFFCURVE",
"280 163 OFFCURVE",
"258 140 CURVE",
"257 137 OFFCURVE",
"253 135 OFFCURVE",
"251 132 CURVE SMOOTH",
"238 108 OFFCURVE",
"216 97 OFFCURVE",
"192 91 CURVE SMOOTH",
"167 84 OFFCURVE",
"144 86 OFFCURVE",
"121 95 CURVE",
"111 100 OFFCURVE",
"99 106 OFFCURVE",
"89 113 CURVE",
"80 117 OFFCURVE",
"76 117 OFFCURVE",
"68 110 CURVE",
"58 100 LINE SMOOTH",
"56 99 OFFCURVE",
"56 95 OFFCURVE",
"55 95 CURVE SMOOTH",
"50 95 OFFCURVE",
"45 94 OFFCURVE",
"41 95 CURVE",
"38 95 OFFCURVE",
"36 100 OFFCURVE",
"37 104 CURVE",
"38 126 OFFCURVE",
"41 149 OFFCURVE",
"42 172 CURVE SMOOTH",
"46 229 LINE",
"54 356 LINE SMOOTH",
"55 391 OFFCURVE",
"60 424 OFFCURVE",
"58 459 CURVE",
"58 464 LINE SMOOTH",
"58 481 OFFCURVE",
"51 494 OFFCURVE",
"34 502 CURVE SMOOTH",
"27 506 LINE SMOOTH",
"19 510 OFFCURVE",
"15 515 OFFCURVE",
"18 517 CURVE",
"21 520 OFFCURVE",
"25 524 OFFCURVE",
"29 524 CURVE SMOOTH"
);
},
{
closed = 1;
nodes = (
"123 334 OFFCURVE",
"120 329 OFFCURVE",
"118 322 CURVE",
"114 294 LINE",
"112 230 LINE SMOOTH",
"111 208 OFFCURVE",
"108 185 OFFCURVE",
"109 162 CURVE SMOOTH",
"111 141 OFFCURVE",
"117 123 OFFCURVE",
"136 112 CURVE SMOOTH",
"154 101 OFFCURVE",
"173 105 OFFCURVE",
"187 125 CURVE",
"196 145 LINE SMOOTH",
"209 172 OFFCURVE",
"210 201 OFFCURVE",
"214 229 CURVE",
"216 255 OFFCURVE",
"213 281 OFFCURVE",
"206 307 CURVE",
"205 316 OFFCURVE",
"200 325 OFFCURVE",
"194 331 CURVE",
"180 353 OFFCURVE",
"148 356 OFFCURVE",
"129 339 CURVE"
);
}
);
width = 320;
},
{
associatedMasterId = "82E980F0-013F-4801-8ED7-9905E88076B0";
layerId = "626D775A-2479-4BA5-A458-1D069E2A2E2E";
width = 600;
}
);
unicode = 0062;
},
{
glyphname = c;
lastChange = "2017-01-19 14:19:47 +0000";
layers = (
{
layerId = "82E980F0-013F-4801-8ED7-9905E88076B0";
name = Regular;
paths = (
{
closed = 1;
nodes = (
"176 528 OFFCURVE",
"144 527 OFFCURVE",
"114 516 CURVE",
"96 511 OFFCURVE",
"80 501 OFFCURVE",
"66 487 CURVE SMOOTH",
"47 467 OFFCURVE",
"34 442 OFFCURVE",
"26 415 CURVE SMOOTH",
"21 398 OFFCURVE",
"17 380 OFFCURVE",
"13 363 CURVE",
"11 356 OFFCURVE",
"11 349 OFFCURVE",
"10 341 CURVE",
"10 311 OFFCURVE",
"8 283 OFFCURVE",
"8 256 CURVE SMOOTH",
"8 241 OFFCURVE",
"8 228 OFFCURVE",
"11 215 CURVE",
"14 190 OFFCURVE",
"19 163 OFFCURVE",
"22 137 CURVE",
"27 111 OFFCURVE",
"36 88 OFFCURVE",
"51 66 CURVE SMOOTH",
"73 28 OFFCURVE",
"108 6 OFFCURVE",
"150 -3 CURVE",
"184 -9 OFFCURVE",
"217 -7 OFFCURVE",
"249 1 CURVE SMOOTH",
"287 13 OFFCURVE",
"315 35 OFFCURVE",
"332 69 CURVE SMOOTH",
"343 91 OFFCURVE",
"350 116 OFFCURVE",
"354 141 CURVE",
"355 153 OFFCURVE",
"357 166 OFFCURVE",
"351 181 CURVE",
"330 184 OFFCURVE",
"308 183 OFFCURVE",
"286 183 CURVE SMOOTH",
"278 183 OFFCURVE",
"269 181 OFFCURVE",
"261 180 CURVE SMOOTH",
"254 179 OFFCURVE",
"251 176 OFFCURVE",
"249 169 CURVE",
"247 149 LINE",
"247 139 OFFCURVE",
"241 131 OFFCURVE",
"233 124 CURVE SMOOTH",
"224 115 OFFCURVE",
"207 112 OFFCURVE",
"198 128 CURVE",
"194 132 OFFCURVE",
"192 137 OFFCURVE",
"191 143 CURVE",
"187 152 OFFCURVE",
"185 163 OFFCURVE",
"184 174 CURVE",
"183 211 OFFCURVE",
"177 248 OFFCURVE",
"178 287 CURVE",
"179 300 OFFCURVE",
"177 313 OFFCURVE",
"177 327 CURVE",
"176 348 OFFCURVE",
"179 369 OFFCURVE",
"183 389 CURVE SMOOTH",
"184 394 OFFCURVE",
"186 402 OFFCURVE",
"190 407 CURVE",
"194 419 OFFCURVE",
"207 422 OFFCURVE",
"218 415 CURVE",
"223 412 OFFCURVE",
"227 409 OFFCURVE",
"230 404 CURVE SMOOTH",
"233 397 OFFCURVE",
"235 390 OFFCURVE",
"239 383 CURVE",
"241 369 OFFCURVE",
"242 355 OFFCURVE",
"245 341 CURVE SMOOTH",
"246 331 OFFCURVE",
"249 328 OFFCURVE",
"256 328 CURVE SMOOTH",
"279 328 OFFCURVE",
"301 329 OFFCURVE",
"325 329 CURVE SMOOTH",
"328 329 OFFCURVE",
"330 330 OFFCURVE",
"334 330 CURVE",
"338 334 OFFCURVE",
"341 337 OFFCURVE",
"341 342 CURVE",
"342 346 OFFCURVE",
"341 351 OFFCURVE",
"341 356 CURVE",
"339 396 OFFCURVE",
"338 435 OFFCURVE",
"338 475 CURVE",
"337 483 OFFCURVE",
"338 492 OFFCURVE",
"337 501 CURVE",
"337 508 OFFCURVE",
"335 514 OFFCURVE",
"334 521 CURVE",
"315 525 OFFCURVE",
"297 523 OFFCURVE",
"280 521 CURVE",
"275 521 OFFCURVE",
"272 517 OFFCURVE",
"267 515 CURVE",
"265 513 OFFCURVE",
"262 510 OFFCURVE",
"259 508 CURVE",
"241 515 OFFCURVE",
"225 523 OFFCURVE",
"206 524 CURVE"
);
}
);
width = 365;
},
{
associatedMasterId = "82E980F0-013F-4801-8ED7-9905E88076B0";
layerId = "626D775A-2479-4BA5-A458-1D069E2A2E2E";
width = 600;
}
);
unicode = 0063;
},
{
glyphname = d;
lastChange = "2017-01-19 14:28:57 +0000";
layers = (
{
layerId = "82E980F0-013F-4801-8ED7-9905E88076B0";
name = Regular;
paths = (
{
closed = 1;
nodes = (
"173 708 OFFCURVE",
"171 706 OFFCURVE",
"171 704 CURVE",
"173 706 OFFCURVE",
"177 706 OFFCURVE",
"173 710 CURVE"
);
},
{
closed = 1;
nodes = (
"168 699 OFFCURVE",
"165 692 OFFCURVE",
"163 685 CURVE",
"151 667 OFFCURVE",
"142 648 OFFCURVE",
"132 629 CURVE",
"130 625 OFFCURVE",
"128 621 OFFCURVE",
"121 621 CURVE",
"111 624 OFFCURVE",
"109 618 OFFCURVE",
"106 609 CURVE",
"98 580 OFFCURVE",
"90 551 OFFCURVE",
"81 519 CURVE SMOOTH",
"67 458 OFFCURVE",
"46 395 OFFCURVE",
"22 336 CURVE SMOOTH",
"11 306 OFFCURVE",
"1 277 OFFCURVE",
"-9 250 CURVE SMOOTH",
"-15 238 OFFCURVE",
"-15 223 OFFCURVE",
"-15 210 CURVE",
"-12 185 OFFCURVE",
"-9 161 OFFCURVE",
"-9 137 CURVE SMOOTH",
"-9 -26 LINE SMOOTH",
"-9 -70 OFFCURVE",
"-13 -72 OFFCURVE",
"33 -74 CURVE SMOOTH",
"71 -75 OFFCURVE",
"111 -75 OFFCURVE",
"150 -75 CURVE",
"194 -78 OFFCURVE",
"237 -72 OFFCURVE",
"280 -78 CURVE",
"290 -78 LINE",
"303 -75 OFFCURVE",
"315 -75 OFFCURVE",
"327 -75 CURVE",
"338 -74 OFFCURVE",
"347 -78 OFFCURVE",
"356 -84 CURVE SMOOTH",
"369 -94 OFFCURVE",
"381 -99 OFFCURVE",
"396 -103 CURVE",
"404 -103 OFFCURVE",
"408 -103 OFFCURVE",
"413 -102 CURVE SMOOTH",
"423 -98 OFFCURVE",
"430 -91 OFFCURVE",
"430 -79 CURVE",
"433 -54 OFFCURVE",
"437 -28 OFFCURVE",
"434 -1 CURVE",
"433 17 OFFCURVE",
"430 34 OFFCURVE",
"430 50 CURVE SMOOTH",
"430 99 OFFCURVE",
"430 149 OFFCURVE",
"430 197 CURVE SMOOTH",
"429 247 OFFCURVE",
"430 293 OFFCURVE",
"437 341 CURVE SMOOTH",
"439 366 OFFCURVE",
"445 391 OFFCURVE",
"448 417 CURVE SMOOTH",
"455 468 OFFCURVE",
"456 518 OFFCURVE",
"462 567 CURVE",
"462 569 OFFCURVE",
"461 571 OFFCURVE",
"461 575 CURVE",
"458 575 OFFCURVE",
"455 576 OFFCURVE",
"453 578 CURVE",
"449 580 OFFCURVE",
"447 581 OFFCURVE",
"445 583 CURVE",
"443 606 OFFCURVE",
"453 624 OFFCURVE",
"445 644 CURVE",
"437 648 OFFCURVE",
"426 647 OFFCURVE",
"417 647 CURVE SMOOTH",
"386 647 OFFCURVE",
"353 645 OFFCURVE",
"320 645 CURVE SMOOTH",
"278 645 OFFCURVE",
"234 645 OFFCURVE",
"189 647 CURVE",
"180 647 OFFCURVE",
"170 645 OFFCURVE",
"160 652 CURVE",
"156 658 OFFCURVE",
"160 666 OFFCURVE",
"164 673 CURVE",
"167 683 OFFCURVE",
"171 692 OFFCURVE",
"171 704 CURVE"
);
},
{
closed = 1;
nodes = (
"255 589 OFFCURVE",
"270 589 OFFCURVE",
"285 587 CURVE SMOOTH",
"303 585 OFFCURVE",
"323 585 OFFCURVE",
"343 581 CURVE",
"358 578 OFFCURVE",
"374 581 OFFCURVE",
"390 583 CURVE",
"404 583 OFFCURVE",
"415 583 OFFCURVE",
"426 580 CURVE",
"408 557 OFFCURVE",
"404 545 OFFCURVE",
"403 514 CURVE",
"403 446 LINE",
"399 430 OFFCURVE",
"399 414 OFFCURVE",
"398 397 CURVE",
"398 389 OFFCURVE",
"396 381 OFFCURVE",
"396 375 CURVE SMOOTH",
"396 256 LINE SMOOTH",
"396 244 OFFCURVE",
"395 232 OFFCURVE",
"394 222 CURVE",
"391 174 OFFCURVE",
"390 123 OFFCURVE",
"390 75 CURVE SMOOTH",
"390 50 OFFCURVE",
"394 27 OFFCURVE",
"415 7 CURVE",
"405 7 OFFCURVE",
"403 5 OFFCURVE",
"398 5 CURVE",
"367 7 OFFCURVE",
"336 8 OFFCURVE",
"304 8 CURVE SMOOTH",
"290 8 OFFCURVE",
"276 17 OFFCURVE",
"261 13 CURVE",
"256 12 OFFCURVE",
"254 18 OFFCURVE",
"254 21 CURVE SMOOTH",
"254 29 OFFCURVE",
"255 34 OFFCURVE",
"255 39 CURVE",
"254 49 OFFCURVE",
"255 58 OFFCURVE",
"252 65 CURVE",
"245 78 OFFCURVE",
"245 93 OFFCURVE",
"247 108 CURVE SMOOTH",
"252 123 OFFCURVE",
"251 142 OFFCURVE",
"252 158 CURVE",
"252 161 OFFCURVE",
"251 164 OFFCURVE",
"251 166 CURVE",
"255 212 OFFCURVE",
"252 252 OFFCURVE",
"254 297 CURVE",
"255 314 OFFCURVE",
"252 329 OFFCURVE",
"251 347 CURVE",
"251 350 OFFCURVE",
"247 353 OFFCURVE",
"251 357 CURVE",
"256 370 OFFCURVE",
"256 382 OFFCURVE",
"256 395 CURVE",
"260 440 OFFCURVE",
"260 481 OFFCURVE",
"261 525 CURVE",
"261 548 OFFCURVE",
"255 567 OFFCURVE",
"237 581 CURVE",
"235 581 OFFCURVE",
"235 583 OFFCURVE",
"234 587 CURVE",
"235 587 OFFCURVE",
"237 590 OFFCURVE",
"241 590 CURVE"
);
},
{
closed = 1;
nodes = (
"348 487 OFFCURVE",
"346 485 OFFCURVE",
"343 481 CURVE",
"343 478 OFFCURVE",
"346 472 OFFCURVE",
"348 472 CURVE",
"352 471 OFFCURVE",
"355 474 OFFCURVE",
"356 478 CURVE SMOOTH",
"358 481 OFFCURVE",
"355 485 OFFCURVE",
"352 487 CURVE"
);
},
{
closed = 1;
nodes = (
"186 415 OFFCURVE",
"195 413 OFFCURVE",
"203 408 CURVE",
"206 406 OFFCURVE",
"212 404 OFFCURVE",
"222 395 CURVE",
"208 391 OFFCURVE",
"203 391 OFFCURVE",
"195 388 CURVE",
"185 385 OFFCURVE",
"176 376 OFFCURVE",
"173 362 CURVE",
"170 347 OFFCURVE",
"167 329 OFFCURVE",
"165 314 CURVE SMOOTH",
"163 277 OFFCURVE",
"160 241 OFFCURVE",
"160 202 CURVE",
"163 165 OFFCURVE",
"160 128 OFFCURVE",
"160 93 CURVE SMOOTH",
"160 80 OFFCURVE",
"160 68 OFFCURVE",
"164 58 CURVE",
"170 40 OFFCURVE",
"178 30 OFFCURVE",
"197 29 CURVE",
"198 29 OFFCURVE",
"203 27 OFFCURVE",
"205 27 CURVE",
"204 22 OFFCURVE",
"204 20 OFFCURVE",
"203 20 CURVE",
"182 2 OFFCURVE",
"159 -1 OFFCURVE",
"136 2 CURVE SMOOTH",
"92 11 OFFCURVE",
"59 37 OFFCURVE",
"38 82 CURVE SMOOTH",
"24 117 OFFCURVE",
"17 155 OFFCURVE",
"16 193 CURVE",
"16 200 OFFCURVE",
"16 208 OFFCURVE",
"17 214 CURVE",
"19 228 OFFCURVE",
"22 241 OFFCURVE",
"17 256 CURVE",
"16 259 OFFCURVE",
"17 264 OFFCURVE",
"19 270 CURVE",
"29 308 LINE SMOOTH",
"31 315 OFFCURVE",
"33 321 OFFCURVE",
"36 328 CURVE",
"44 343 OFFCURVE",
"52 357 OFFCURVE",
"62 372 CURVE",
"80 395 OFFCURVE",
"103 413 OFFCURVE",
"134 414 CURVE",
"144 415 OFFCURVE",
"151 417 OFFCURVE",
"163 417 CURVE SMOOTH",
"167 417 OFFCURVE",
"173 418 OFFCURVE",
"178 417 CURVE"
);
}
);
width = 482;
},
{
associatedMasterId = "82E980F0-013F-4801-8ED7-9905E88076B0";
layerId = "626D775A-2479-4BA5-A458-1D069E2A2E2E";
width = 600;
}
);
unicode = 0064;
},
{
glyphname = e;
lastChange = "2017-01-19 14:20:33 +0000";
layers = (
{
layerId = "82E980F0-013F-4801-8ED7-9905E88076B0";
name = Regular;
paths = (
{
closed = 1;
nodes = (
"305 639 OFFCURVE",
"289 642 OFFCURVE",
"279 629 CURVE",
"271 616 OFFCURVE",
"261 614 OFFCURVE",
"250 614 CURVE SMOOTH",
"-6 614 LINE SMOOTH",
"-48 614 OFFCURVE",
"-92 616 OFFCURVE",
"-137 608 CURVE",
"-128 608 OFFCURVE",
"-120 606 OFFCURVE",
"-112 606 CURVE SMOOTH",
"61 606 LINE SMOOTH",
"134 606 OFFCURVE",
"207 608 OFFCURVE",
"281 608 CURVE SMOOTH",
"302 608 OFFCURVE",
"312 619 OFFCURVE",
"322 635 CURVE"
);
},
{
closed = 1;
nodes = (
"109 459 LINE",
"102 455 OFFCURVE",
"98 452 OFFCURVE",
"91 450 CURVE",
"78 445 OFFCURVE",
"80 444 OFFCURVE",
"63 426 CURVE SMOOTH",
"19 375 OFFCURVE",
"3 314 OFFCURVE",
"-1 249 CURVE SMOOTH",
"-4 179 OFFCURVE",
"14 118 OFFCURVE",
"61 66 CURVE",
"63 62 LINE",
"61 62 LINE",
"83 54 OFFCURVE",
"102 43 OFFCURVE",
"122 36 CURVE SMOOTH",
"199 10 OFFCURVE",
"281 39 OFFCURVE",
"319 102 CURVE",
"325 111 OFFCURVE",
"330 123 OFFCURVE",
"333 133 CURVE",
"335 136 OFFCURVE",
"330 141 OFFCURVE",
"327 144 CURVE SMOOTH",
"325 146 OFFCURVE",
"319 146 OFFCURVE",
"317 144 CURVE SMOOTH",
"279 105 LINE SMOOTH",
"247 70 OFFCURVE",
"166 69 OFFCURVE",
"135 128 CURVE SMOOTH",
"114 165 OFFCURVE",
"111 205 OFFCURVE",
"112 246 CURVE",
"112 260 OFFCURVE",
"125 272 OFFCURVE",
"138 272 CURVE",
"176 270 OFFCURVE",
"214 269 OFFCURVE",
"250 265 CURVE",
"274 262 OFFCURVE",
"297 260 OFFCURVE",
"322 264 CURVE SMOOTH",
"332 265 OFFCURVE",
"340 273 OFFCURVE",
"341 283 CURVE",
"345 314 OFFCURVE",
"340 344 OFFCURVE",
"333 375 CURVE",
"325 404 OFFCURVE",
"309 429 OFFCURVE",
"283 442 CURVE",
"229 472 OFFCURVE",
"170 485 OFFCURVE",
"107 459 CURVE"
);
},
{
closed = 1;
nodes = (
"174 434 OFFCURVE",
"202 429 OFFCURVE",
"214 408 CURVE SMOOTH",
"227 382 OFFCURVE",
"230 354 OFFCURVE",
"225 324 CURVE",
"224 319 OFFCURVE",
"217 313 OFFCURVE",
"212 311 CURVE",
"184 305 OFFCURVE",
"156 303 OFFCURVE",
"129 314 CURVE",
"125 316 OFFCURVE",
"124 319 OFFCURVE",
"120 323 CURVE",
"124 339 OFFCURVE",
"125 359 OFFCURVE",
"132 375 CURVE",
"137 390 OFFCURVE",
"147 404 OFFCURVE",
"158 418 CURVE"
);
}
);
width = 362;
},
{
associatedMasterId = "82E980F0-013F-4801-8ED7-9905E88076B0";
layerId = "626D775A-2479-4BA5-A458-1D069E2A2E2E";
width = 600;
}
);
unicode = 0065;
},
{
glyphname = f;
lastChange = "2017-01-19 14:20:57 +0000";
layers = (
{
layerId = "82E980F0-013F-4801-8ED7-9905E88076B0";
name = Regular;
paths = (
{
closed = 1;
nodes = (
"184 636 OFFCURVE",
"127 617 OFFCURVE",
"104 577 CURVE SMOOTH",
"78 534 OFFCURVE",
"68 487 OFFCURVE",
"63 437 CURVE",
"63 417 OFFCURVE",
"62 411 OFFCURVE",
"37 411 CURVE SMOOTH",
"31 411 OFFCURVE",
"25 411 OFFCURVE",
"21 410 CURVE SMOOTH",
"16 409 OFFCURVE",
"12 404 OFFCURVE",
"10 399 CURVE",
"8 396 OFFCURVE",
"7 390 OFFCURVE",
"7 385 CURVE",
"4 372 OFFCURVE",
"10 364 OFFCURVE",
"21 360 CURVE",
"27 359 OFFCURVE",
"34 359 OFFCURVE",
"40 359 CURVE",
"53 356 OFFCURVE",
"57 349 OFFCURVE",
"59 336 CURVE",
"60 274 OFFCURVE",
"57 212 OFFCURVE",
"53 152 CURVE SMOOTH",
"47 92 LINE",
"44 79 OFFCURVE",
"37 68 OFFCURVE",
"23 63 CURVE",
"16 63 OFFCURVE",
"11 60 OFFCURVE",
"5 56 CURVE",
"3 50 OFFCURVE",
"2 45 OFFCURVE",
"1 40 CURVE",
"-1 19 OFFCURVE",
"2 17 OFFCURVE",
"23 10 CURVE",
"34 5 OFFCURVE",
"42 4 OFFCURVE",
"53 6 CURVE",
"69 8 OFFCURVE",
"85 5 OFFCURVE",
"101 6 CURVE",
"112 6 OFFCURVE",
"118 2 OFFCURVE",
"124 -7 CURVE SMOOTH",
"128 -14 OFFCURVE",
"134 -15 OFFCURVE",
"139 -8 CURVE",
"143 2 OFFCURVE",
"151 5 OFFCURVE",
"160 4 CURVE",
"168 4 OFFCURVE",
"177 3 OFFCURVE",
"184 4 CURVE",
"200 4 OFFCURVE",
"208 15 OFFCURVE",
"208 29 CURVE SMOOTH",
"208 45 OFFCURVE",
"204 51 OFFCURVE",
"187 58 CURVE",
"182 60 OFFCURVE",
"177 61 OFFCURVE",
"172 63 CURVE",
"150 73 OFFCURVE",
"140 92 OFFCURVE",
"143 116 CURVE",
"143 121 OFFCURVE",
"144 127 OFFCURVE",
"145 132 CURVE SMOOTH",
"149 147 OFFCURVE",
"156 161 OFFCURVE",
"145 177 CURVE",
"142 180 OFFCURVE",
"144 190 OFFCURVE",
"144 196 CURVE",
"145 229 OFFCURVE",
"146 261 OFFCURVE",
"145 294 CURVE SMOOTH",
"144 313 OFFCURVE",
"144 334 OFFCURVE",
"151 353 CURVE",
"156 354 OFFCURVE",
"162 356 OFFCURVE",
"166 356 CURVE SMOOTH",
"178 356 OFFCURVE",
"190 354 OFFCURVE",
"202 353 CURVE",
"224 352 OFFCURVE",
"234 357 OFFCURVE",
"231 385 CURVE",
"230 395 OFFCURVE",
"229 402 OFFCURVE",
"222 407 CURVE",
"205 421 LINE",
"195 412 OFFCURVE",
"183 407 OFFCURVE",
"170 407 CURVE",
"156 408 OFFCURVE",
"150 411 OFFCURVE",
"150 424 CURVE SMOOTH",
"150 439 OFFCURVE",
"150 454 OFFCURVE",
"151 468 CURVE SMOOTH",
"153 493 OFFCURVE",
"155 518 OFFCURVE",
"158 543 CURVE SMOOTH",
"160 557 OFFCURVE",
"166 570 OFFCURVE",
"179 578 CURVE",
"187 582 OFFCURVE",
"192 583 OFFCURVE",
"200 578 CURVE",
"204 577 OFFCURVE",
"204 569 OFFCURVE",
"200 562 CURVE",
"196 557 OFFCURVE",
"192 553 OFFCURVE",
"191 549 CURVE",
"184 531 OFFCURVE",
"189 514 OFFCURVE",
"203 501 CURVE SMOOTH",
"216 489 OFFCURVE",
"229 488 OFFCURVE",
"246 497 CURVE",
"258 501 OFFCURVE",
"265 511 OFFCURVE",
"269 523 CURVE",
"282 560 OFFCURVE",
"266 601 OFFCURVE",
"228 617 CURVE SMOOTH"
);
}
);
width = 293;
},
{
associatedMasterId = "82E980F0-013F-4801-8ED7-9905E88076B0";
layerId = "626D775A-2479-4BA5-A458-1D069E2A2E2E";
width = 600;
}
);
unicode = 0066;
},
{
glyphname = g;
lastChange = "2017-01-19 14:21:27 +0000";
layers = (
{
layerId = "82E980F0-013F-4801-8ED7-9905E88076B0";
name = Regular;
paths = (
{
closed = 1;
nodes = (
"79 660 LINE",
"41 431 OFFCURVE",
"-6 200 OFFCURVE",
"-10 -34 CURVE",
"22 -37 OFFCURVE",
"52 -38 OFFCURVE",
"83 -41 CURVE SMOOTH",
"109 -43 OFFCURVE",
"137 -44 OFFCURVE",
"163 -47 CURVE SMOOTH",
"211 -51 OFFCURVE",
"261 -55 OFFCURVE",
"309 -60 CURVE SMOOTH",
"374 -68 LINE",
"389 -26 OFFCURVE",
"413 14 OFFCURVE",
"397 56 CURVE SMOOTH",
"324 258 OFFCURVE",
"380 458 OFFCURVE",
"402 660 CURVE"
);
},
{
closed = 1;
nodes = (
"376 616 OFFCURVE",
"383 613 OFFCURVE",
"381 602 CURVE",
"380 571 OFFCURVE",
"379 539 OFFCURVE",
"376 508 CURVE",
"376 500 OFFCURVE",
"374 495 OFFCURVE",
"364 492 CURVE SMOOTH",
"359 491 OFFCURVE",
"358 486 OFFCURVE",
"358 480 CURVE",
"357 475 OFFCURVE",
"357 470 OFFCURVE",
"357 465 CURVE",
"358 435 OFFCURVE",
"351 404 OFFCURVE",
"341 377 CURVE SMOOTH",
"324 335 OFFCURVE",
"294 309 OFFCURVE",
"248 301 CURVE SMOOTH",
"231 298 OFFCURVE",
"214 298 OFFCURVE",
"196 301 CURVE",
"190 302 OFFCURVE",
"185 302 OFFCURVE",
"181 296 CURVE",
"179 292 OFFCURVE",
"184 285 OFFCURVE",
"192 283 CURVE SMOOTH",
"200 280 OFFCURVE",
"209 279 OFFCURVE",
"217 276 CURVE",
"237 271 OFFCURVE",
"257 267 OFFCURVE",
"278 260 CURVE SMOOTH",
"334 242 OFFCURVE",
"349 209 OFFCURVE",
"351 165 CURVE SMOOTH",
"353 143 OFFCURVE",
"350 122 OFFCURVE",
"341 102 CURVE SMOOTH",
"337 93 OFFCURVE",
"333 85 OFFCURVE",
"328 77 CURVE",
"308 54 OFFCURVE",
"283 34 OFFCURVE",
"253 26 CURVE SMOOTH",
"207 14 OFFCURVE",
"162 14 OFFCURVE",
"116 30 CURVE SMOOTH",
"105 34 OFFCURVE",
"96 38 OFFCURVE",
"87 45 CURVE",
"49 68 OFFCURVE",
"41 113 OFFCURVE",
"63 149 CURVE",
"70 161 OFFCURVE",
"78 170 OFFCURVE",
"88 178 CURVE",
"94 183 OFFCURVE",
"100 189 OFFCURVE",
"108 194 CURVE",
"95 204 OFFCURVE",
"87 213 OFFCURVE",
"82 226 CURVE",
"69 255 OFFCURVE",
"75 283 OFFCURVE",
"94 308 CURVE",
"99 315 OFFCURVE",
"107 323 OFFCURVE",
"113 330 CURVE SMOOTH",
"118 335 OFFCURVE",
"118 340 OFFCURVE",
"116 346 CURVE",
"109 356 OFFCURVE",
"103 365 OFFCURVE",
"97 377 CURVE",
"86 407 OFFCURVE",
"83 440 OFFCURVE",
"86 473 CURVE SMOOTH",
"88 496 OFFCURVE",
"92 518 OFFCURVE",
"101 539 CURVE SMOOTH",
"117 573 OFFCURVE",
"141 599 OFFCURVE",
"176 611 CURVE",
"218 623 OFFCURVE",
"260 620 OFFCURVE",
"299 596 CURVE",
"304 593 OFFCURVE",
"308 589 OFFCURVE",
"312 586 CURVE",
"317 584 OFFCURVE",
"321 584 OFFCURVE",
"325 586 CURVE",
"330 590 OFFCURVE",
"334 594 OFFCURVE",
"338 597 CURVE SMOOTH",
"347 603 OFFCURVE",
"358 609 OFFCURVE",
"367 613 CURVE SMOOTH"
);
},
{
closed = 1;
nodes = (
"218 522 OFFCURVE",
"211 516 OFFCURVE",
"209 507 CURVE",
"209 503 LINE",
"207 491 OFFCURVE",
"205 478 OFFCURVE",
"203 465 CURVE",
"203 448 OFFCURVE",
"202 429 OFFCURVE",
"203 412 CURVE",
"203 406 OFFCURVE",
"206 399 OFFCURVE",
"209 394 CURVE",
"213 389 OFFCURVE",
"223 389 OFFCURVE",
"226 394 CURVE SMOOTH",
"230 402 OFFCURVE",
"232 410 OFFCURVE",
"234 418 CURVE",
"237 436 OFFCURVE",
"239 454 OFFCURVE",
"241 473 CURVE",
"240 473 LINE",
"240 505 LINE",
"239 516 OFFCURVE",
"232 524 OFFCURVE",
"224 522 CURVE"
);
},
{
closed = 1;
nodes = (
"188 177 OFFCURVE",
"183 173 OFFCURVE",
"179 166 CURVE SMOOTH",
"172 154 OFFCURVE",
"168 143 OFFCURVE",
"168 126 CURVE",
"169 122 OFFCURVE",
"169 114 OFFCURVE",
"172 107 CURVE SMOOTH",
"180 89 OFFCURVE",
"210 85 OFFCURVE",
"223 101 CURVE SMOOTH",
"237 118 OFFCURVE",
"237 136 OFFCURVE",
"232 156 CURVE",
"230 161 OFFCURVE",
"226 166 OFFCURVE",
"220 168 CURVE",
"213 172 OFFCURVE",
"203 174 OFFCURVE",
"194 175 CURVE"
);
}
);
width = 402;
},
{
associatedMasterId = "82E980F0-013F-4801-8ED7-9905E88076B0";
layerId = "626D775A-2479-4BA5-A458-1D069E2A2E2E";
width = 600;
}
);
unicode = 0067;
},
{
glyphname = h;
lastChange = "2017-01-19 14:22:23 +0000";
layers = (
{
layerId = "82E980F0-013F-4801-8ED7-9905E88076B0";
name = Regular;
paths = (
{
closed = 1;
nodes = (
"-4 622 OFFCURVE",
"-5 622 OFFCURVE",
"-8 620 CURVE SMOOTH",
"-10 619 OFFCURVE",
"-11 616 OFFCURVE",
"-15 613 CURVE",
"-15 611 OFFCURVE",
"-15 608 OFFCURVE",
"-13 606 CURVE",
"-9 606 LINE",
"-8 611 OFFCURVE",
"-5 613 OFFCURVE",
"-4 616 CURVE",
"-3 616 OFFCURVE",
"-4 620 OFFCURVE",
"-4 620 CURVE"
);
},
{
closed = 1;
nodes = (
"105 620 LINE SMOOTH",
"88 620 OFFCURVE",
"73 620 OFFCURVE",
"59 619 CURVE",
"42 619 OFFCURVE",
"25 616 OFFCURVE",
"10 616 CURVE",
"4 614 OFFCURVE",
"0 611 OFFCURVE",
"0 605 CURVE",
"-1 597 OFFCURVE",
"0 592 OFFCURVE",
"5 589 CURVE",
"27 580 LINE SMOOTH",
"43 572 OFFCURVE",
"50 558 OFFCURVE",
"54 540 CURVE",
"55 526 OFFCURVE",
"54 515 OFFCURVE",
"48 506 CURVE",
"43 487 OFFCURVE",
"43 487 OFFCURVE",
"43 468 CURVE",
"22 459 LINE",
"34 437 OFFCURVE",
"34 437 OFFCURVE",
"48 426 CURVE",
"50 414 OFFCURVE",
"50 402 OFFCURVE",
"50 389 CURVE SMOOTH",
"50 352 LINE SMOOTH",
"50 310 OFFCURVE",
"48 268 OFFCURVE",
"47 228 CURVE",
"47 221 OFFCURVE",
"46 214 OFFCURVE",
"43 209 CURVE",
"42 203 OFFCURVE",
"39 200 OFFCURVE",
"34 200 CURVE",
"36 192 OFFCURVE",
"34 186 OFFCURVE",
"39 180 CURVE",
"42 175 OFFCURVE",
"42 169 OFFCURVE",
"43 164 CURVE",
"43 139 OFFCURVE",
"46 114 OFFCURVE",
"43 88 CURVE",
"39 66 LINE",
"37 55 OFFCURVE",
"32 49 OFFCURVE",
"22 44 CURVE",
"19 43 OFFCURVE",
"17 41 OFFCURVE",
"11 41 CURVE",
"4 37 OFFCURVE",
"0 32 OFFCURVE",
"0 24 CURVE SMOOTH",
"0 15 OFFCURVE",
"4 10 OFFCURVE",
"14 9 CURVE SMOOTH",
"24 7 OFFCURVE",
"34 6 OFFCURVE",
"43 6 CURVE SMOOTH",
"76 6 OFFCURVE",
"107 6 OFFCURVE",
"139 4 CURVE",
"152 1 OFFCURVE",
"164 4 OFFCURVE",
"176 4 CURVE SMOOTH",
"181 -10 OFFCURVE",
"181 -3 OFFCURVE",
"196 -15 CURVE",
"200 -14 OFFCURVE",
"204 -12 OFFCURVE",
"208 -9 CURVE",
"218 3 OFFCURVE",
"231 -2 OFFCURVE",
"243 -2 CURVE",
"263 -4 OFFCURVE",
"283 -8 OFFCURVE",
"302 -5 CURVE",
"319 -11 OFFCURVE",
"335 -5 OFFCURVE",
"354 -5 CURVE SMOOTH",
"358 -5 OFFCURVE",
"362 -1 OFFCURVE",
"362 6 CURVE",
"363 17 OFFCURVE",
"362 23 OFFCURVE",
"352 26 CURVE",
"349 27 OFFCURVE",
"347 27 OFFCURVE",
"344 31 CURVE",
"331 35 OFFCURVE",
"325 46 OFFCURVE",
"322 62 CURVE",
"322 86 LINE",
"325 135 OFFCURVE",
"326 184 OFFCURVE",
"326 232 CURVE",
"328 260 OFFCURVE",
"328 290 OFFCURVE",
"326 319 CURVE",
"326 346 OFFCURVE",
"319 370 OFFCURVE",
"305 392 CURVE SMOOTH",
"293 411 OFFCURVE",
"278 423 OFFCURVE",
"260 425 CURVE",
"249 425 LINE",
"218 428 OFFCURVE",
"192 417 OFFCURVE",
"168 391 CURVE",
"157 374 LINE",
"155 374 OFFCURVE",
"152 372 OFFCURVE",
"149 370 CURVE",
"149 406 LINE",
"150 423 OFFCURVE",
"150 437 OFFCURVE",
"152 453 CURVE",
"152 485 OFFCURVE",
"153 518 OFFCURVE",
"153 551 CURVE SMOOTH",
"153 602 LINE",
"152 616 OFFCURVE",
"149 620 OFFCURVE",
"139 620 CURVE SMOOTH"
);
},
{
closed = 1;
nodes = (
"215 602 OFFCURVE",
"214 602 OFFCURVE",
"210 599 CURVE",
"212 599 OFFCURVE",
"214 597 OFFCURVE",
"215 596 CURVE",
"217 596 OFFCURVE",
"218 597 OFFCURVE",
"219 597 CURVE",
"219 599 OFFCURVE",
"218 602 OFFCURVE",
"217 602 CURVE SMOOTH"
);
},
{
closed = 1;
nodes = (
"237 560 LINE",
"237 560 OFFCURVE",
"238 558 OFFCURVE",
"240 558 CURVE",
"240 560 OFFCURVE",
"240 560 OFFCURVE",
"241 561 CURVE",
"241 561 OFFCURVE",
"240 561 OFFCURVE",
"240 563 CURVE"
);
},
{
closed = 1;
nodes = (
"47 447 LINE",
"47 443 LINE",
"47 443 OFFCURVE",
"46 443 OFFCURVE",
"46 442 CURVE",
"46 443 OFFCURVE",
"43 445 OFFCURVE",
"43 447 CURVE"
);
},
{
closed = 1;
nodes = (
"192 357 OFFCURVE",
"195 353 OFFCURVE",
"194 349 CURVE",
"192 343 OFFCURVE",
"190 336 OFFCURVE",
"189 330 CURVE",
"189 329 OFFCURVE",
"190 325 OFFCURVE",
"192 325 CURVE SMOOTH",
"194 325 OFFCURVE",
"196 325 OFFCURVE",
"198 327 CURVE SMOOTH",
"201 332 OFFCURVE",
"204 343 OFFCURVE",
"208 347 CURVE",
"219 338 OFFCURVE",
"224 329 OFFCURVE",
"227 312 CURVE SMOOTH",
"229 296 OFFCURVE",
"229 282 OFFCURVE",
"229 266 CURVE SMOOTH",
"229 257 OFFCURVE",
"227 248 OFFCURVE",
"227 239 CURVE SMOOTH",
"226 194 OFFCURVE",
"226 149 OFFCURVE",
"224 103 CURVE SMOOTH",
"224 85 OFFCURVE",
"218 66 OFFCURVE",
"215 46 CURVE",
"214 41 OFFCURVE",
"210 37 OFFCURVE",
"205 35 CURVE",
"200 32 OFFCURVE",
"198 27 OFFCURVE",
"192 23 CURVE",
"166 23 OFFCURVE",
"203 36 OFFCURVE",
"192 32 CURVE",
"191 41 OFFCURVE",
"180 23 OFFCURVE",
"186 26 CURVE",
"186 27 LINE",
"181 27 OFFCURVE",
"175 31 OFFCURVE",
"171 32 CURVE",
"144 44 OFFCURVE",
"141 54 OFFCURVE",
"141 80 CURVE",
"143 122 OFFCURVE",
"143 164 OFFCURVE",
"144 204 CURVE",
"144 235 OFFCURVE",
"145 265 OFFCURVE",
"145 293 CURVE SMOOTH",
"145 327 OFFCURVE",
"163 349 OFFCURVE",
"189 357 CURVE"
);
},
{
closed = 1;
nodes = (
"37 -46 OFFCURVE",
"51 -49 OFFCURVE",
"66 -52 CURVE",
"54 -46 OFFCURVE",
"37 -41 OFFCURVE",
"20 -44 CURVE"
);
},
{
closed = 1;
nodes = (
"168 -70 OFFCURVE",
"175 -72 OFFCURVE",
"182 -73 CURVE",
"176 -72 OFFCURVE",
"168 -70 OFFCURVE",
"161 -67 CURVE"
);
}
);
width = 372;
},
{
associatedMasterId = "82E980F0-013F-4801-8ED7-9905E88076B0";
layerId = "626D775A-2479-4BA5-A458-1D069E2A2E2E";
width = 600;
}
);
unicode = 0068;
},
{
glyphname = i;
lastChange = "2017-01-19 14:22:52 +0000";
layers = (
{
layerId = "82E980F0-013F-4801-8ED7-9905E88076B0";
name = Regular;
paths = (
{
closed = 1;
nodes = (
"26 516 LINE",
"24 495 OFFCURVE",
"22 474 OFFCURVE",
"20 452 CURVE",
"24 449 OFFCURVE",
"28 445 OFFCURVE",
"31 442 CURVE",
"48 430 OFFCURVE",
"66 428 OFFCURVE",
"83 432 CURVE",
"109 441 OFFCURVE",
"118 464 OFFCURVE",
"117 482 CURVE SMOOTH",
"114 528 OFFCURVE",
"68 542 OFFCURVE",
"40 525 CURVE"
);
},
{
closed = 1;
nodes = (
"33 412 OFFCURVE",
"30 411 OFFCURVE",
"30 409 CURVE",
"31 408 OFFCURVE",
"33 407 OFFCURVE",
"33 408 CURVE",
"34 408 OFFCURVE",
"35 409 OFFCURVE",
"36 410 CURVE",
"36 411 OFFCURVE",
"35 412 OFFCURVE",
"35 412 CURVE SMOOTH"
);
},
{
closed = 1;
nodes = (
"22 363 LINE",
"19 363 OFFCURVE",
"15 362 OFFCURVE",
"12 361 CURVE",
"8 329 LINE",
"20 324 OFFCURVE",
"26 316 OFFCURVE",
"27 304 CURVE",
"27 300 OFFCURVE",
"28 295 OFFCURVE",
"28 290 CURVE SMOOTH",
"28 242 LINE SMOOTH",
"28 203 OFFCURVE",
"29 165 OFFCURVE",
"29 126 CURVE",
"30 108 OFFCURVE",
"30 91 OFFCURVE",
"30 73 CURVE",
"29 59 OFFCURVE",
"26 46 OFFCURVE",
"10 39 CURVE",
"7 37 LINE",
"2 34 OFFCURVE",
"0 31 OFFCURVE",
"0 26 CURVE SMOOTH",
"0 7 OFFCURVE",
"3 6 OFFCURVE",
"20 5 CURVE",
"30 5 LINE SMOOTH",
"63 5 OFFCURVE",
"95 5 OFFCURVE",
"127 6 CURVE",
"138 6 LINE",
"151 7 OFFCURVE",
"154 10 OFFCURVE",
"154 21 CURVE",
"155 30 OFFCURVE",
"152 37 OFFCURVE",
"143 39 CURVE",
"140 41 LINE",
"130 46 OFFCURVE",
"125 53 OFFCURVE",
"124 64 CURVE",
"124 70 OFFCURVE",
"123 77 OFFCURVE",
"123 84 CURVE",
"122 144 OFFCURVE",
"122 203 OFFCURVE",
"121 262 CURVE",
"121 287 LINE",
"123 287 LINE SMOOTH",
"124 287 OFFCURVE",
"127 287 OFFCURVE",
"127 289 CURVE",
"121 290 LINE",
"121 320 LINE SMOOTH",
"121 330 OFFCURVE",
"120 340 OFFCURVE",
"120 350 CURVE SMOOTH",
"120 371 OFFCURVE",
"118 373 OFFCURVE",
"95 370 CURVE SMOOTH"
);
},
{
closed = 1;
nodes = (
"105 288 OFFCURVE",
"103 288 OFFCURVE",
"98 289 CURVE",
"102 292 OFFCURVE",
"105 292 OFFCURVE",
"108 289 CURVE"
);
}
);
width = 164;
},
{
associatedMasterId = "82E980F0-013F-4801-8ED7-9905E88076B0";
layerId = "626D775A-2479-4BA5-A458-1D069E2A2E2E";
width = 600;
}
);
unicode = 0069;
},
{
glyphname = j;
lastChange = "2017-01-19 14:23:16 +0000";
layers = (
{
layerId = "82E980F0-013F-4801-8ED7-9905E88076B0";
name = Regular;
paths = (
{
closed = 1;
nodes = (
"233 558 OFFCURVE",
"222 551 OFFCURVE",
"209 546 CURVE",
"201 547 OFFCURVE",
"200 540 OFFCURVE",
"196 537 CURVE",
"190 537 OFFCURVE",
"183 537 OFFCURVE",
"178 536 CURVE",
"173 536 OFFCURVE",
"168 535 OFFCURVE",
"166 532 CURVE",
"148 523 OFFCURVE",
"145 522 OFFCURVE",
"145 502 CURVE",
"147 494 OFFCURVE",
"148 485 OFFCURVE",
"150 478 CURVE SMOOTH",
"167 441 OFFCURVE",
"209 429 OFFCURVE",
"248 452 CURVE SMOOTH",
"274 469 OFFCURVE",
"281 502 OFFCURVE",
"270 527 CURVE SMOOTH",
"265 541 OFFCURVE",
"253 551 OFFCURVE",
"244 563 CURVE"
);
},
{
closed = 1;
nodes = (
"247 386 LINE",
"208 385 OFFCURVE",
"168 384 OFFCURVE",
"129 381 CURVE SMOOTH",
"116 380 OFFCURVE",
"102 379 OFFCURVE",
"89 376 CURVE SMOOTH",
"82 375 OFFCURVE",
"81 372 OFFCURVE",
"81 365 CURVE SMOOTH",
"81 358 OFFCURVE",
"82 354 OFFCURVE",
"88 353 CURVE",
"126 344 LINE",
"133 342 OFFCURVE",
"139 339 OFFCURVE",
"143 334 CURVE",
"152 323 OFFCURVE",
"158 311 OFFCURVE",
"158 299 CURVE SMOOTH",
"157 252 OFFCURVE",
"157 205 OFFCURVE",
"155 158 CURVE SMOOTH",
"154 106 OFFCURVE",
"153 55 OFFCURVE",
"150 3 CURVE SMOOTH",
"149 -24 OFFCURVE",
"147 -51 OFFCURVE",
"138 -77 CURVE",
"133 -85 OFFCURVE",
"129 -94 OFFCURVE",
"121 -99 CURVE SMOOTH",
"117 -103 OFFCURVE",
"112 -104 OFFCURVE",
"107 -104 CURVE",
"102 -104 OFFCURVE",
"102 -99 OFFCURVE",
"103 -90 CURVE SMOOTH",
"106 -82 OFFCURVE",
"107 -74 OFFCURVE",
"108 -63 CURVE SMOOTH",
"110 -54 OFFCURVE",
"110 -44 OFFCURVE",
"107 -34 CURVE SMOOTH",
"102 -11 OFFCURVE",
"74 6 OFFCURVE",
"49 3 CURVE",
"46 3 OFFCURVE",
"45 3 OFFCURVE",
"42 1 CURVE",
"26 -6 OFFCURVE",
"13 -16 OFFCURVE",
"6 -33 CURVE SMOOTH",
"-3 -53 OFFCURVE",
"-1 -74 OFFCURVE",
"9 -94 CURVE",
"11 -99 OFFCURVE",
"15 -104 OFFCURVE",
"20 -113 CURVE",
"8 -113 OFFCURVE",
"-1 -112 OFFCURVE",
"-7 -112 CURVE SMOOTH",
"-18 -112 LINE",
"-20 -113 LINE",
"-20 -114 OFFCURVE",
"-20 -117 OFFCURVE",
"-18 -117 CURVE",
"4 -121 LINE",
"45 -122 OFFCURVE",
"86 -124 OFFCURVE",
"125 -126 CURVE SMOOTH",
"138 -127 OFFCURVE",
"149 -124 OFFCURVE",
"161 -118 CURVE SMOOTH",
"186 -104 OFFCURVE",
"210 -88 OFFCURVE",
"225 -62 CURVE SMOOTH",
"241 -37 OFFCURVE",
"255 -10 OFFCURVE",
"258 18 CURVE SMOOTH",
"265 61 OFFCURVE",
"267 104 OFFCURVE",
"265 146 CURVE",
"265 158 OFFCURVE",
"266 169 OFFCURVE",
"267 180 CURVE",
"267 189 OFFCURVE",
"270 198 OFFCURVE",
"268 207 CURVE",
"266 246 OFFCURVE",
"270 285 OFFCURVE",
"270 323 CURVE SMOOTH",
"270 337 OFFCURVE",
"271 351 OFFCURVE",
"271 365 CURVE SMOOTH",
"271 370 OFFCURVE",
"270 373 OFFCURVE",
"270 376 CURVE",
"270 382 OFFCURVE",
"263 386 OFFCURVE",
"257 387 CURVE"
);
},
{
closed = 1;
nodes = (
"257 -119 OFFCURVE",
"244 -121 OFFCURVE",
"229 -124 CURVE",
"232 -124 OFFCURVE",
"233 -127 OFFCURVE",
"234 -127 CURVE SMOOTH",
"244 -127 OFFCURVE",
"255 -128 OFFCURVE",
"265 -128 CURVE SMOOTH",
"266 -128 OFFCURVE",
"271 -128 OFFCURVE",
"271 -123 CURVE"
);
},
{
closed = 1;
nodes = (
"224 -119 OFFCURVE",
"216 -121 OFFCURVE",
"208 -126 CURVE",
"218 -127 OFFCURVE",
"224 -127 OFFCURVE",
"229 -124 CURVE"
);
}
);
width = 295;
},
{
associatedMasterId = "82E980F0-013F-4801-8ED7-9905E88076B0";
layerId = "626D775A-2479-4BA5-A458-1D069E2A2E2E";
width = 600;
}
);
unicode = 006A;
},
{
glyphname = k;
lastChange = "2017-01-26 09:04:39 +0000";
layers = (
{
layerId = "82E980F0-013F-4801-8ED7-9905E88076B0";
name = Regular;
paths = (
{
closed = 1;
nodes = (
"201 500 OFFCURVE",
"93 505 OFFCURVE",
"-15 485 CURVE",
"0 348 OFFCURVE",
"-4 217 OFFCURVE",
"0 81 CURVE",
"3 78 OFFCURVE",
"3 76 OFFCURVE",
"0 70 CURVE",
"0 51 OFFCURVE",
"2 30 OFFCURVE",
"3 10 CURVE",
"333 10 LINE",
"330 43 OFFCURVE",
"329 77 OFFCURVE",
"327 111 CURVE",
"321 126 OFFCURVE",
"316 143 OFFCURVE",
"314 160 CURVE SMOOTH",
"312 169 OFFCURVE",
"312 178 OFFCURVE",
"312 186 CURVE",
"311 211 OFFCURVE",
"315 236 OFFCURVE",
"326 259 CURVE",
"325 345 OFFCURVE",
"322 430 OFFCURVE",
"311 515 CURVE"
);
},
{
closed = 1;
nodes = (
"101 448 LINE",
"108 449 OFFCURVE",
"111 447 OFFCURVE",
"112 440 CURVE",
"114 430 OFFCURVE",
"114 419 OFFCURVE",
"114 408 CURVE",
"118 299 LINE",
"121 266 OFFCURVE",
"122 233 OFFCURVE",
"125 200 CURVE",
"125 199 OFFCURVE",
"125 196 OFFCURVE",
"126 193 CURVE",
"126 192 OFFCURVE",
"129 191 OFFCURVE",
"130 191 CURVE",
"140 199 LINE",
"156 215 OFFCURVE",
"171 232 OFFCURVE",
"188 249 CURVE",
"192 254 OFFCURVE",
"195 258 OFFCURVE",
"196 263 CURVE",
"201 273 OFFCURVE",
"195 282 OFFCURVE",
"186 285 CURVE SMOOTH",
"182 286 OFFCURVE",
"178 286 OFFCURVE",
"175 288 CURVE",
"166 290 OFFCURVE",
"164 292 OFFCURVE",
"164 301 CURVE",
"163 303 OFFCURVE",
"163 304 OFFCURVE",
"164 306 CURVE",
"164 312 OFFCURVE",
"167 315 OFFCURVE",
"173 317 CURVE",
"178 317 LINE",
"271 321 LINE",
"279 321 LINE",
"293 322 OFFCURVE",
"296 314 OFFCURVE",
"293 300 CURVE",
"293 297 OFFCURVE",
"289 295 OFFCURVE",
"286 293 CURVE",
"282 290 OFFCURVE",
"275 289 OFFCURVE",
"270 286 CURVE SMOOTH",
"264 284 OFFCURVE",
"258 280 OFFCURVE",
"252 275 CURVE",
"236 260 OFFCURVE",
"221 244 OFFCURVE",
"204 229 CURVE",
"197 222 OFFCURVE",
"197 218 OFFCURVE",
"203 210 CURVE",
"229 167 OFFCURVE",
"256 126 OFFCURVE",
"284 84 CURVE",
"290 74 OFFCURVE",
"300 65 OFFCURVE",
"311 59 CURVE",
"318 55 OFFCURVE",
"319 48 OFFCURVE",
"318 41 CURVE",
"318 37 OFFCURVE",
"315 34 OFFCURVE",
"312 34 CURVE",
"308 33 OFFCURVE",
"304 33 OFFCURVE",
"300 33 CURVE",
"247 29 LINE",
"230 29 OFFCURVE",
"214 29 OFFCURVE",
"196 28 CURVE",
"192 28 OFFCURVE",
"188 28 OFFCURVE",
"186 32 CURVE",
"184 39 OFFCURVE",
"184 47 OFFCURVE",
"188 50 CURVE SMOOTH",
"199 56 LINE SMOOTH",
"203 59 OFFCURVE",
"204 65 OFFCURVE",
"203 70 CURVE",
"201 74 OFFCURVE",
"200 77 OFFCURVE",
"197 81 CURVE SMOOTH",
"181 106 OFFCURVE",
"163 132 OFFCURVE",
"145 156 CURVE",
"143 162 OFFCURVE",
"138 162 OFFCURVE",
"134 158 CURVE",
"127 154 OFFCURVE",
"125 147 OFFCURVE",
"126 139 CURVE",
"127 119 OFFCURVE",
"127 99 OFFCURVE",
"129 78 CURVE",
"129 65 OFFCURVE",
"134 55 OFFCURVE",
"148 50 CURVE",
"156 47 OFFCURVE",
"159 39 OFFCURVE",
"155 30 CURVE",
"151 26 LINE",
"148 26 OFFCURVE",
"145 25 OFFCURVE",
"143 25 CURVE",
"43 21 LINE",
"33 21 OFFCURVE",
"29 24 OFFCURVE",
"29 28 CURVE",
"28 34 OFFCURVE",
"26 41 OFFCURVE",
"34 44 CURVE",
"47 51 OFFCURVE",
"51 62 OFFCURVE",
"51 76 CURVE",
"49 88 OFFCURVE",
"49 100 OFFCURVE",
"49 113 CURVE",
"47 156 OFFCURVE",
"44 200 OFFCURVE",
"43 244 CURVE SMOOTH",
"34 374 LINE",
"34 384 LINE",
"33 395 OFFCURVE",
"28 403 OFFCURVE",
"17 404 CURVE",
"15 406 OFFCURVE",
"14 406 OFFCURVE",
"12 406 CURVE",
"7 407 OFFCURVE",
"4 411 OFFCURVE",
"4 418 CURVE SMOOTH",
"4 419 OFFCURVE",
"3 423 OFFCURVE",
"4 425 CURVE",
"6 427 OFFCURVE",
"8 430 OFFCURVE",
"11 432 CURVE",
"12 433 OFFCURVE",
"15 434 OFFCURVE",
"18 434 CURVE",
"44 437 OFFCURVE",
"70 441 OFFCURVE",
"96 448 CURVE"
);
}
);
width = 363;
},
{
associatedMasterId = "82E980F0-013F-4801-8ED7-9905E88076B0";
layerId = "626D775A-2479-4BA5-A458-1D069E2A2E2E";
width = 600;
}
);
unicode = 006B;
},
{
glyphname = l;
lastChange = "2017-01-19 14:24:23 +0000";
layers = (
{
layerId = "82E980F0-013F-4801-8ED7-9905E88076B0";
name = Regular;
paths = (
{
closed = 1;
nodes = (
"-4 448 OFFCURVE",
"-3 245 OFFCURVE",
"-2 43 CURVE",
"2 41 OFFCURVE",
"9 43 OFFCURVE",
"14 44 CURVE",
"25 48 OFFCURVE",
"32 58 OFFCURVE",
"35 69 CURVE SMOOTH",
"39 89 OFFCURVE",
"42 109 OFFCURVE",
"43 128 CURVE SMOOTH",
"52 242 LINE SMOOTH",
"54 288 OFFCURVE",
"61 332 OFFCURVE",
"61 377 CURVE SMOOTH",
"61 396 OFFCURVE",
"61 413 OFFCURVE",
"63 433 CURVE SMOOTH",
"65 470 LINE",
"70 497 OFFCURVE",
"61 519 OFFCURVE",
"34 532 CURVE",
"30 535 OFFCURVE",
"28 537 OFFCURVE",
"25 539 CURVE SMOOTH",
"24 540 OFFCURVE",
"24 543 OFFCURVE",
"24 546 CURVE",
"25 547 OFFCURVE",
"27 548 OFFCURVE",
"28 548 CURVE SMOOTH",
"31 548 OFFCURVE",
"37 550 OFFCURVE",
"41 550 CURVE SMOOTH",
"78 550 OFFCURVE",
"114 548 OFFCURVE",
"149 552 CURVE SMOOTH",
"158 554 OFFCURVE",
"166 552 OFFCURVE",
"174 551 CURVE",
"180 551 OFFCURVE",
"184 548 OFFCURVE",
"184 543 CURVE",
"184 517 LINE",
"177 425 LINE",
"166 259 LINE SMOOTH",
"163 202 OFFCURVE",
"160 146 OFFCURVE",
"156 89 CURVE",
"156 77 OFFCURVE",
"158 66 OFFCURVE",
"159 53 CURVE SMOOTH",
"160 41 OFFCURVE",
"173 32 OFFCURVE",
"189 31 CURVE",
"195 31 OFFCURVE",
"200 40 OFFCURVE",
"202 54 CURVE",
"203 60 OFFCURVE",
"203 66 OFFCURVE",
"203 73 CURVE",
"207 149 OFFCURVE",
"211 225 OFFCURVE",
"214 302 CURVE SMOOTH",
"216 326 OFFCURVE",
"214 351 OFFCURVE",
"217 375 CURVE SMOOTH",
"224 442 OFFCURVE",
"222 511 OFFCURVE",
"227 578 CURVE",
"227 608 LINE",
"224 624 OFFCURVE",
"221 630 OFFCURVE",
"205 632 CURVE",
"200 634 OFFCURVE",
"196 634 OFFCURVE",
"194 634 CURVE",
"161 637 OFFCURVE",
"129 639 OFFCURVE",
"98 642 CURVE SMOOTH",
"70 645 OFFCURVE",
"43 648 OFFCURVE",
"17 649 CURVE",
"12 649 OFFCURVE",
"6 650 OFFCURVE",
"2 650 CURVE"
);
},
{
closed = 1;
nodes = (
"-2 -31 LINE",
"6 -31 LINE",
"32 -31 OFFCURVE",
"61 -31 OFFCURVE",
"88 -32 CURVE",
"116 -32 OFFCURVE",
"147 -33 OFFCURVE",
"176 -33 CURVE SMOOTH",
"184 -33 OFFCURVE",
"189 -31 OFFCURVE",
"196 -28 CURVE",
"198 -14 OFFCURVE",
"198 -3 OFFCURVE",
"198 11 CURVE",
"177 14 OFFCURVE",
"156 16 OFFCURVE",
"136 18 CURVE SMOOTH",
"97 20 OFFCURVE",
"57 23 OFFCURVE",
"18 26 CURVE",
"10 27 OFFCURVE",
"5 27 OFFCURVE",
"-2 30 CURVE"
);
}
);
width = 227;
},
{
associatedMasterId = "82E980F0-013F-4801-8ED7-9905E88076B0";
layerId = "626D775A-2479-4BA5-A458-1D069E2A2E2E";
width = 600;
}
);
unicode = 006C;
},
{
glyphname = m;
lastChange = "2017-01-19 14:24:49 +0000";
layers = (
{
layerId = "82E980F0-013F-4801-8ED7-9905E88076B0";
name = Regular;
paths = (
{
closed = 1;
nodes = (
"242 487 OFFCURVE",
"226 480 OFFCURVE",
"210 468 CURVE SMOOTH",
"203 463 OFFCURVE",
"199 458 OFFCURVE",
"194 453 CURVE",
"185 449 LINE",
"184 458 OFFCURVE",
"184 464 OFFCURVE",
"184 471 CURVE",
"183 478 OFFCURVE",
"179 481 OFFCURVE",
"173 482 CURVE SMOOTH",
"165 484 OFFCURVE",
"158 484 OFFCURVE",
"152 484 CURVE SMOOTH",
"109 485 OFFCURVE",
"65 481 OFFCURVE",
"23 484 CURVE",
"20 484 OFFCURVE",
"16 482 OFFCURVE",
"12 482 CURVE",
"7 481 OFFCURVE",
"4 478 OFFCURVE",
"3 474 CURVE SMOOTH",
"1 470 OFFCURVE",
"1 466 OFFCURVE",
"1 463 CURVE",
"0 438 OFFCURVE",
"1 413 OFFCURVE",
"1 389 CURVE",
"0 376 OFFCURVE",
"6 370 OFFCURVE",
"19 369 CURVE",
"21 368 OFFCURVE",
"22 365 OFFCURVE",
"25 364 CURVE",
"25 351 OFFCURVE",
"26 338 OFFCURVE",
"26 326 CURVE SMOOTH",
"26 286 OFFCURVE",
"23 247 OFFCURVE",
"26 208 CURVE SMOOTH",
"28 182 OFFCURVE",
"26 156 OFFCURVE",
"25 129 CURVE",
"25 126 OFFCURVE",
"23 124 OFFCURVE",
"23 121 CURVE",
"17 119 OFFCURVE",
"11 115 OFFCURVE",
"4 113 CURVE",
"-2 82 OFFCURVE",
"1 52 OFFCURVE",
"1 24 CURVE SMOOTH",
"1 16 OFFCURVE",
"6 13 OFFCURVE",
"14 12 CURVE",
"25 12 LINE SMOOTH",
"74 12 OFFCURVE",
"116 10 OFFCURVE",
"165 10 CURVE SMOOTH",
"185 10 LINE",
"195 12 OFFCURVE",
"199 14 OFFCURVE",
"199 24 CURVE",
"200 46 OFFCURVE",
"200 67 OFFCURVE",
"200 89 CURVE SMOOTH",
"200 98 OFFCURVE",
"200 105 OFFCURVE",
"195 113 CURVE",
"175 121 LINE",
"175 155 LINE SMOOTH",
"175 209 OFFCURVE",
"174 262 OFFCURVE",
"175 316 CURVE SMOOTH",
"175 327 OFFCURVE",
"178 338 OFFCURVE",
"180 348 CURVE SMOOTH",
"183 357 OFFCURVE",
"191 360 OFFCURVE",
"200 359 CURVE",
"213 357 OFFCURVE",
"227 348 OFFCURVE",
"228 338 CURVE",
"232 319 OFFCURVE",
"231 300 OFFCURVE",
"231 280 CURVE SMOOTH",
"231 174 LINE SMOOTH",
"231 125 OFFCURVE",
"231 76 OFFCURVE",
"232 26 CURVE SMOOTH",
"232 14 OFFCURVE",
"234 10 OFFCURVE",
"248 10 CURVE SMOOTH",
"390 10 LINE",
"396 12 OFFCURVE",
"400 15 OFFCURVE",
"401 21 CURVE",
"401 24 OFFCURVE",
"402 26 OFFCURVE",
"402 30 CURVE",
"401 55 OFFCURVE",
"401 79 OFFCURVE",
"401 104 CURVE",
"400 111 OFFCURVE",
"396 115 OFFCURVE",
"388 116 CURVE SMOOTH",
"380 118 OFFCURVE",
"377 125 OFFCURVE",
"377 132 CURVE SMOOTH",
"377 162 OFFCURVE",
"376 193 OFFCURVE",
"376 222 CURVE SMOOTH",
"376 245 OFFCURVE",
"377 267 OFFCURVE",
"377 288 CURVE SMOOTH",
"377 332 LINE SMOOTH",
"377 338 OFFCURVE",
"380 344 OFFCURVE",
"382 351 CURVE",
"390 362 OFFCURVE",
"401 364 OFFCURVE",
"422 357 CURVE",
"430 349 OFFCURVE",
"436 341 OFFCURVE",
"436 328 CURVE",
"435 315 OFFCURVE",
"435 300 OFFCURVE",
"435 285 CURVE",
"436 263 OFFCURVE",
"438 242 OFFCURVE",
"438 220 CURVE SMOOTH",
"438 171 OFFCURVE",
"436 121 OFFCURVE",
"435 72 CURVE SMOOTH",
"435 31 LINE",
"436 13 OFFCURVE",
"439 10 OFFCURVE",
"456 10 CURVE SMOOTH",
"519 10 LINE",
"547 9 OFFCURVE",
"576 13 OFFCURVE",
"604 12 CURVE",
"613 12 OFFCURVE",
"615 15 OFFCURVE",
"617 24 CURVE",
"617 29 LINE",
"618 51 OFFCURVE",
"618 73 OFFCURVE",
"618 94 CURVE SMOOTH",
"618 113 OFFCURVE",
"618 113 OFFCURVE",
"599 119 CURVE",
"597 119 OFFCURVE",
"596 121 OFFCURVE",
"593 122 CURVE",
"593 368 LINE SMOOTH",
"593 385 OFFCURVE",
"592 402 OFFCURVE",
"588 420 CURVE SMOOTH",
"581 452 OFFCURVE",
"560 473 OFFCURVE",
"529 481 CURVE SMOOTH",
"506 489 OFFCURVE",
"481 490 OFFCURVE",
"456 487 CURVE SMOOTH",
"429 485 OFFCURVE",
"407 475 OFFCURVE",
"391 453 CURVE SMOOTH",
"387 448 OFFCURVE",
"385 441 OFFCURVE",
"376 439 CURVE",
"364 455 LINE SMOOTH",
"349 474 OFFCURVE",
"332 484 OFFCURVE",
"308 487 CURVE SMOOTH",
"292 490 OFFCURVE",
"277 489 OFFCURVE",
"263 489 CURVE"
);
},
{
closed = 1;
nodes = (
"628 293 LINE",
"625 293 OFFCURVE",
"624 291 OFFCURVE",
"623 290 CURVE",
"617 282 OFFCURVE",
"614 272 OFFCURVE",
"613 262 CURVE",
"608 238 OFFCURVE",
"610 214 OFFCURVE",
"612 189 CURVE",
"612 179 OFFCURVE",
"609 172 OFFCURVE",
"610 162 CURVE",
"614 150 LINE",
"614 148 OFFCURVE",
"615 148 OFFCURVE",
"617 147 CURVE",
"618 148 OFFCURVE",
"618 148 OFFCURVE",
"618 150 CURVE",
"621 196 OFFCURVE",
"625 243 OFFCURVE",
"628 290 CURVE"
);
}
);
width = 587;
},
{
associatedMasterId = "82E980F0-013F-4801-8ED7-9905E88076B0";
layerId = "626D775A-2479-4BA5-A458-1D069E2A2E2E";
width = 600;
}
);
unicode = 006D;
},
{
glyphname = n;
lastChange = "2017-01-19 14:25:14 +0000";
layers = (
{
layerId = "82E980F0-013F-4801-8ED7-9905E88076B0";
name = Regular;
paths = (
{
closed = 1;
nodes = (
"63 527 OFFCURVE",
"49 525 OFFCURVE",
"35 516 CURVE",
"30 513 OFFCURVE",
"25 510 OFFCURVE",
"21 508 CURVE",
"13 503 OFFCURVE",
"10 496 OFFCURVE",
"10 488 CURVE",
"9 465 OFFCURVE",
"8 443 OFFCURVE",
"8 421 CURVE SMOOTH",
"8 410 OFFCURVE",
"8 399 OFFCURVE",
"10 389 CURVE",
"12 373 OFFCURVE",
"13 358 OFFCURVE",
"13 342 CURVE SMOOTH",
"13 335 OFFCURVE",
"13 328 OFFCURVE",
"15 321 CURVE SMOOTH",
"17 309 OFFCURVE",
"16 297 OFFCURVE",
"10 286 CURVE",
"9 284 OFFCURVE",
"9 281 OFFCURVE",
"9 280 CURVE",
"16 270 OFFCURVE",
"15 261 OFFCURVE",
"13 250 CURVE",
"13 251 LINE",
"12 248 OFFCURVE",
"12 245 OFFCURVE",
"12 241 CURVE",
"13 231 OFFCURVE",
"15 222 OFFCURVE",
"10 213 CURVE",
"10 211 OFFCURVE",
"8 209 OFFCURVE",
"8 208 CURVE",
"9 202 OFFCURVE",
"11 196 OFFCURVE",
"5 190 CURVE SMOOTH",
"3 187 OFFCURVE",
"3 181 OFFCURVE",
"2 177 CURVE",
"-7 138 OFFCURVE",
"-9 97 OFFCURVE",
"-8 57 CURVE SMOOTH",
"-8 48 OFFCURVE",
"-7 39 OFFCURVE",
"-9 31 CURVE",
"-11 25 OFFCURVE",
"-9 22 OFFCURVE",
"-4 17 CURVE",
"3 12 OFFCURVE",
"10 9 OFFCURVE",
"19 8 CURVE",
"24 8 OFFCURVE",
"28 6 OFFCURVE",
"32 6 CURVE",
"107 3 LINE",
"147 -1 LINE",
"185 -2 OFFCURVE",
"224 -5 OFFCURVE",
"262 -10 CURVE",
"276 -11 OFFCURVE",
"290 -14 OFFCURVE",
"305 -15 CURVE",
"307 -15 OFFCURVE",
"310 -13 OFFCURVE",
"310 -10 CURVE",
"312 -7 OFFCURVE",
"312 -3 OFFCURVE",
"313 -1 CURVE",
"315 31 OFFCURVE",
"315 63 OFFCURVE",
"314 95 CURVE SMOOTH",
"313 140 OFFCURVE",
"310 185 OFFCURVE",
"309 230 CURVE SMOOTH",
"308 315 OFFCURVE",
"308 400 OFFCURVE",
"307 486 CURVE",
"307 505 OFFCURVE",
"305 507 OFFCURVE",
"286 508 CURVE SMOOTH",
"235 513 OFFCURVE",
"184 514 OFFCURVE",
"133 521 CURVE",
"128 521 LINE",
"112 522 OFFCURVE",
"95 522 OFFCURVE",
"80 525 CURVE SMOOTH"
);
},
{
closed = 1;
nodes = (
"89 457 OFFCURVE",
"110 457 OFFCURVE",
"132 457 CURVE SMOOTH",
"138 457 OFFCURVE",
"140 456 OFFCURVE",
"141 450 CURVE SMOOTH",
"142 443 OFFCURVE",
"141 436 OFFCURVE",
"148 430 CURVE",
"159 439 LINE SMOOTH",
"183 460 OFFCURVE",
"211 464 OFFCURVE",
"239 457 CURVE SMOOTH",
"265 451 OFFCURVE",
"282 432 OFFCURVE",
"284 404 CURVE SMOOTH",
"286 392 OFFCURVE",
"286 379 OFFCURVE",
"284 367 CURVE SMOOTH",
"283 350 OFFCURVE",
"283 332 OFFCURVE",
"283 314 CURVE SMOOTH",
"283 153 LINE SMOOTH",
"283 141 OFFCURVE",
"284 128 OFFCURVE",
"276 118 CURVE",
"276 116 OFFCURVE",
"276 114 OFFCURVE",
"277 114 CURVE",
"284 107 OFFCURVE",
"281 97 OFFCURVE",
"281 90 CURVE SMOOTH",
"281 84 OFFCURVE",
"276 82 OFFCURVE",
"271 82 CURVE",
"263 81 OFFCURVE",
"256 81 OFFCURVE",
"248 81 CURVE SMOOTH",
"235 81 OFFCURVE",
"222 82 OFFCURVE",
"209 82 CURVE SMOOTH",
"205 82 OFFCURVE",
"203 83 OFFCURVE",
"198 83 CURVE",
"197 87 OFFCURVE",
"196 90 OFFCURVE",
"196 94 CURVE SMOOTH",
"197 144 OFFCURVE",
"197 192 OFFCURVE",
"198 241 CURVE SMOOTH",
"198 341 LINE SMOOTH",
"198 348 OFFCURVE",
"198 357 OFFCURVE",
"195 364 CURVE",
"192 372 OFFCURVE",
"185 376 OFFCURVE",
"177 377 CURVE SMOOTH",
"160 379 OFFCURVE",
"148 371 OFFCURVE",
"145 354 CURVE",
"145 352 OFFCURVE",
"144 350 OFFCURVE",
"144 347 CURVE",
"145 322 OFFCURVE",
"140 296 OFFCURVE",
"142 271 CURVE SMOOTH",
"145 250 OFFCURVE",
"144 229 OFFCURVE",
"144 209 CURVE SMOOTH",
"142 172 OFFCURVE",
"142 137 OFFCURVE",
"141 101 CURVE SMOOTH",
"141 96 OFFCURVE",
"141 90 OFFCURVE",
"140 83 CURVE",
"110 83 OFFCURVE",
"83 82 OFFCURVE",
"56 84 CURVE",
"53 95 OFFCURVE",
"54 106 OFFCURVE",
"54 115 CURVE",
"56 141 OFFCURVE",
"55 167 OFFCURVE",
"55 193 CURVE SMOOTH",
"55 226 OFFCURVE",
"55 260 OFFCURVE",
"58 292 CURVE",
"58 294 OFFCURVE",
"60 296 OFFCURVE",
"60 299 CURVE",
"56 342 OFFCURVE",
"58 386 OFFCURVE",
"56 431 CURVE",
"56 439 OFFCURVE",
"53 448 OFFCURVE",
"56 457 CURVE",
"60 457 OFFCURVE",
"64 458 OFFCURVE",
"69 458 CURVE"
);
},
{
closed = 1;
nodes = (
"41 377 LINE",
"39 377 OFFCURVE",
"38 376 OFFCURVE",
"36 376 CURVE",
"37 377 OFFCURVE",
"37 378 OFFCURVE",
"37 379 CURVE"
);
},
{
closed = 1;
nodes = (
"39 367 LINE",
"36 365 LINE",
"36 368 OFFCURVE",
"36 371 OFFCURVE",
"37 373 CURVE"
);
}
);
width = 315;
},
{
associatedMasterId = "82E980F0-013F-4801-8ED7-9905E88076B0";
layerId = "626D775A-2479-4BA5-A458-1D069E2A2E2E";
width = 600;
}
);
unicode = 006E;
},
{
glyphname = o;
lastChange = "2017-01-19 14:25:44 +0000";
layers = (
{
layerId = "82E980F0-013F-4801-8ED7-9905E88076B0";
name = Regular;
paths = (
{
closed = 1;
nodes = (
"173 511 OFFCURVE",
"138 507 OFFCURVE",
"105 494 CURVE",
"91 489 OFFCURVE",
"75 482 OFFCURVE",
"61 475 CURVE",
"55 481 OFFCURVE",
"63 492 OFFCURVE",
"56 499 CURVE",
"39 455 OFFCURVE",
"29 410 OFFCURVE",
"24 365 CURVE SMOOTH",
"18 320 LINE",
"-3 209 OFFCURVE",
"-12 95 OFFCURVE",
"-20 -17 CURVE",
"-20 -34 LINE",
"-19 -36 OFFCURVE",
"-17 -39 OFFCURVE",
"-13 -42 CURVE",
"-4 -4 OFFCURVE",
"-7 34 OFFCURVE",
"2 77 CURVE",
"8 69 OFFCURVE",
"12 65 OFFCURVE",
"15 60 CURVE SMOOTH",
"40 27 OFFCURVE",
"75 9 OFFCURVE",
"115 1 CURVE",
"138 -5 OFFCURVE",
"162 -8 OFFCURVE",
"186 -8 CURVE SMOOTH",
"216 -8 OFFCURVE",
"245 -2 OFFCURVE",
"271 11 CURVE",
"293 21 OFFCURVE",
"313 34 OFFCURVE",
"328 54 CURVE SMOOTH",
"352 88 OFFCURVE",
"371 125 OFFCURVE",
"379 167 CURVE SMOOTH",
"387 222 OFFCURVE",
"394 275 OFFCURVE",
"386 332 CURVE SMOOTH",
"381 367 OFFCURVE",
"369 402 OFFCURVE",
"347 432 CURVE SMOOTH",
"330 458 OFFCURVE",
"306 477 OFFCURVE",
"276 487 CURVE",
"253 495 OFFCURVE",
"230 500 OFFCURVE",
"208 505 CURVE"
);
},
{
closed = 1;
nodes = (
"184 397 OFFCURVE",
"197 394 OFFCURVE",
"208 381 CURVE",
"210 377 OFFCURVE",
"212 372 OFFCURVE",
"214 367 CURVE",
"215 358 OFFCURVE",
"217 348 OFFCURVE",
"216 339 CURVE",
"215 305 OFFCURVE",
"214 272 OFFCURVE",
"211 238 CURVE",
"201 143 LINE SMOOTH",
"199 135 OFFCURVE",
"197 126 OFFCURVE",
"193 118 CURVE",
"192 114 OFFCURVE",
"189 111 OFFCURVE",
"184 107 CURVE SMOOTH",
"173 99 OFFCURVE",
"159 102 OFFCURVE",
"153 114 CURVE SMOOTH",
"149 121 OFFCURVE",
"146 129 OFFCURVE",
"146 136 CURVE",
"143 151 OFFCURVE",
"143 167 OFFCURVE",
"143 182 CURVE",
"146 222 OFFCURVE",
"149 261 OFFCURVE",
"153 301 CURVE SMOOTH",
"154 320 OFFCURVE",
"156 339 OFFCURVE",
"159 358 CURVE SMOOTH",
"160 367 OFFCURVE",
"164 377 OFFCURVE",
"171 383 CURVE"
);
}
);
width = 400;
},
{
associatedMasterId = "82E980F0-013F-4801-8ED7-9905E88076B0";
layerId = "626D775A-2479-4BA5-A458-1D069E2A2E2E";
width = 600;
}
);
unicode = 006F;
},
